<?xml version="1.0" encoding="utf-8"?>
<!-- Generator: Adobe Illustrator 17.0.0, SVG Export Plug-In . SVG Version: 6.00 Build 0)  -->
<!DOCTYPE svg PUBLIC "-//W3C//DTD SVG 1.1//EN" "http://www.w3.org/Graphics/SVG/1.1/DTD/svg11.dtd">
<svg version="1.1" id="Laag_1" xmlns="http://www.w3.org/2000/svg" xmlns:xlink="http://www.w3.org/1999/xlink" x="0px" y="0px"
	 width="150px" height="150px" viewBox="0 0 150 150" enable-background="new 0 0 150 150" xml:space="preserve">
<path fill="#FFFFFF" d="M119.397,0.02L30.364,0C13.596,0,0.013,13.07,0.013,29.191v23.353H0v66.204C0,134.868,11.319,150,30.351,150
	h46.817v-0.088c0-18.896,0-39.841,0-58.736c0-0.992,0-0.992-1.07-0.992c-6.131,0-12.274,0-18.417-0.013
	c-1.032,0-1.045,0-1.045-1.017c0-7.006,0-14.012,0-21.017c0-0.301,0.038-0.603,0.076-1.004h20.456v-1.105
	c0-5.123-0.013-10.233,0.013-15.342c0.013-3.252,0.302-6.478,1.095-9.642c1.435-5.763,4.23-10.772,9.039-14.614
	c5.388-4.294,11.745-6.127,18.618-6.34c6.458-0.188,12.903,0.075,19.336,0.741c1.057,0.1,1.07,0.1,1.07,1.13v18.406
	c0,1.18,0,1.193-1.208,1.193c-3.563,0-7.125-0.05-10.675,0.013c-1.775,0.038-3.575,0.113-5.312,0.402
	c-3.336,0.578-5.753,2.348-6.622,5.637c-0.315,1.205-0.529,2.461-0.541,3.704c-0.063,5.035-0.038,10.069-0.038,15.104
	c0,0.226,0.038,0.439,0.063,0.728h23.377c0,0.364,0.038,0.615,0,0.866c-0.441,3.289-0.881,6.579-1.322,9.868
	c-0.504,3.741-1.032,7.47-1.523,11.224c-0.138,1.067-0.113,1.08-1.221,1.08c-6.118,0-12.236,0-18.341-0.013
	c-0.768-0.013-1.045,0.151-1.045,0.967c0.025,18.908,0.013,39.891,0.013,58.811l0.013,0.05l17.547-0.033
	c17.99,0,30.351-14.588,30.351-30.709V95.906V29.703C149.853,13.582,136.164,0.02,119.397,0.02"/>
</svg>
