<?xml version="1.0" standalone="no"?>
<!DOCTYPE svg PUBLIC "-//W3C//DTD SVG 1.1//EN" "http://www.w3.org/Graphics/SVG/1.1/DTD/svg11.dtd" >
<svg xmlns="http://www.w3.org/2000/svg" xmlns:xlink="http://www.w3.org/1999/xlink" version="1.1">
<metadata>
Created by FontForge 20170910 at Wed Feb  8 11:03:26 2006
 By Jimmy Wärting
Please review the description of this font at http://www.itcfonts.com.
</metadata>
<defs>
<font id="AramCapsITCStd" horiz-adv-x="400" >
  <font-face 
    font-family="Aram Caps ITC Std"
    font-weight="400"
    font-variant="small-caps"
    font-stretch="normal"
    units-per-em="1000"
    panose-1="2 0 6 3 4 0 0 2 0 4"
    ascent="734"
    descent="-266"
    x-height="724"
    cap-height="725"
    bbox="-73 -276 1096 941"
    underline-thickness="20"
    underline-position="-133"
    stemh="41"
    stemv="47"
    unicode-range="U+0020-FB02"
  />
<missing-glyph horiz-adv-x="500" 
d="M12 0v665h475v-665h-475zM88 618l162 -243l161 243h-323zM60 575v-484c0 -1 161 242 161 242zM440 575l-162 -242l162 -243v485zM411 48l-161 242l-162 -242h323z" />
    <glyph glyph-name="fi" unicode="fi" horiz-adv-x="514" 
d="M443 705c0 -16 -1 -31 -2 -47c-5 -120 -7 -241 -7 -361c0 -63 1 -125 3 -188c1 -28 5 -57 5 -85c0 -12 -6 -26 -20 -26c-10 0 -20 5 -29 10l-6 13c6 140 8 281 8 422v82c0 43 -3 86 -3 128c-3 -2 -8 -2 -12 -2h-2c-27 25 -125 30 -161 30c-20 0 -58 -1 -76 -9
c-20 -42 -17 -260 -18 -320c10 -12 26 -14 40 -14c26 0 52 9 78 9c9 -5 14 -13 14 -23c0 -6 -1 -13 -2 -19c-20 -10 -44 -11 -66 -11s-44 2 -66 2c0 -92 3 -185 14 -277c-3 -10 -11 -20 -23 -20c-24 0 -31 28 -32 47c-2 29 -2 59 -2 89c0 112 0 225 2 338c2 80 2 160 17 239
c15 11 36 12 54 12c52 0 199 -5 242 -23c0 15 8 24 23 24c11 0 27 -7 27 -20z" />
    <glyph glyph-name="fl" unicode="fl" horiz-adv-x="580" 
d="M580 25c0 -12 -10 -17 -20 -20c-17 -5 -56 -2 -76 -4c-16 -1 -32 -3 -48 -5c-7 -1 -14 -3 -21 -3c-21 0 -37 22 -39 41l5 17c-7 78 -10 157 -10 236c0 64 2 128 5 192c3 58 6 116 13 173h-7h-2c-32 23 -126 29 -165 29c-20 0 -55 -1 -74 -9c-20 -42 -17 -260 -18 -320
c10 -12 26 -14 40 -14c26 0 52 9 78 9c9 -5 14 -13 14 -23c0 -6 -1 -13 -2 -19c-20 -10 -44 -11 -66 -11s-44 2 -66 2c0 -92 3 -185 14 -277c-3 -10 -11 -20 -23 -20c-24 0 -31 28 -32 47c-2 29 -2 59 -2 89c0 112 0 225 2 338c2 80 2 160 17 239c15 11 36 12 54 12
c49 0 208 -8 247 -25c2 8 5 21 12 26c16 -2 28 0 34 -18c-24 -160 -31 -321 -31 -483c0 -37 0 -122 12 -155c5 -14 11 -22 26 -26c8 -2 26 -2 34 -2c21 0 42 0 58 17h3c14 0 34 -18 34 -33z" />
    <glyph glyph-name=".notdef" horiz-adv-x="500" 
d="M12 0v665h475v-665h-475zM88 618l162 -243l161 243h-323zM60 575v-484c0 -1 161 242 161 242zM440 575l-162 -242l162 -243v485zM411 48l-161 242l-162 -242h323z" />
    <glyph glyph-name="space" unicode=" " horiz-adv-x="190" 
 />
    <glyph glyph-name="exclam" unicode="!" horiz-adv-x="240" 
d="M146 189c-6 -3 -12 -4 -18 -4c-12 0 -23 5 -32 12c-8 63 -10 126 -10 189c0 111 7 222 7 333c4 5 11 7 17 7c12 0 24 -8 31 -17c3 -24 5 -48 5 -72c0 -52 -6 -103 -10 -155c-3 -41 -5 -83 -5 -124c0 -57 2 -114 15 -169zM167 43c-5 -16 -20 -27 -29 -40
c-5 -2 -11 -3 -17 -3c-19 0 -40 11 -40 32c0 34 23 35 48 45c17 -5 30 -19 38 -34z" />
    <glyph glyph-name="quotedbl" unicode="&#x22;" horiz-adv-x="239" 
d="M198 686c0 -27 -5 -135 -43 -135c0 39 -3 79 -9 117c-3 16 -10 31 -10 47c0 14 12 21 24 21c13 0 31 -10 35 -22c3 -6 3 -21 3 -28zM99 664c1 -39 -4 -78 -11 -116c-4 -2 -8 -4 -11 -4c-4 0 -8 1 -11 3c0 56 -27 107 -32 162v1c0 10 17 22 26 22c16 0 27 -4 36 -17
c2 -17 3 -34 3 -51z" />
    <glyph glyph-name="numbersign" unicode="#" horiz-adv-x="469" 
d="M444 603c0 -9 -5 -21 -11 -27c-23 1 -47 2 -70 2l-1 -178h10c20 -1 40 3 60 5c6 -5 10 -15 10 -23s-4 -16 -11 -21c-15 0 -29 1 -44 1c-9 0 -18 -1 -27 -2l-1 -68c-5 -5 -12 -7 -19 -7c-9 0 -21 4 -28 10c2 21 2 43 3 64c-39 -2 -76 -3 -115 -3c-19 0 -33 0 -52 1
c2 -21 2 -43 5 -64c-6 -5 -18 -7 -26 -7c-10 0 -19 5 -26 11l-1 61h-5c-14 0 -27 1 -41 1c-6 0 -13 0 -19 -1c-6 5 -10 13 -10 21s3 18 8 24c18 -3 37 -4 55 -4h11c-2 36 -2 71 -2 107c0 25 0 47 1 72h-8c-20 0 -40 1 -60 -2c-3 7 -4 18 -4 25c0 8 2 16 6 22
c12 -1 24 -3 36 -3c10 0 19 1 29 2l-2 67c7 5 15 9 24 9c8 0 20 -3 27 -7c-1 -23 -2 -47 -2 -70c30 -2 56 0 86 0c28 0 53 -1 81 -1h9c0 10 1 20 1 30c0 14 -1 28 -2 42c6 5 18 8 26 8s16 -3 23 -8c-2 -24 -3 -49 -4 -73c24 0 47 0 71 1c5 -4 9 -10 9 -17zM320 579
c-40 0 -76 3 -116 3c-22 0 -39 -3 -61 -4c-1 -20 -1 -35 -1 -55v-43c0 -28 1 -55 3 -83c21 -1 38 -2 59 -2c39 0 75 2 114 3c3 62 1 119 2 181z" />
    <glyph glyph-name="dollar" unicode="$" horiz-adv-x="360" 
d="M312 687c0 -14 -12 -17 -23 -17c-21 0 -43 5 -64 5c-76 0 -121 -65 -121 -136c0 -163 187 -266 187 -402c0 -51 -31 -95 -69 -127c2 -30 5 -61 5 -91c0 -33 -6 -67 -19 -98c-6 -3 -13 -6 -20 -7l-7 6c-8 59 0 119 -12 178c-20 0 -58 -1 -58 27c0 12 22 13 30 15
c53 11 99 50 99 107c0 114 -191 221 -191 395c0 19 3 59 12 75c3 6 8 10 12 15c31 34 61 63 104 81c10 30 -1 195 29 195c20 0 19 -42 19 -55c0 -25 -3 -49 -3 -74c0 -30 0 -48 32 -61c16 -6 58 -7 58 -31z" />
    <glyph glyph-name="percent" unicode="%" horiz-adv-x="677" 
d="M617 236c0 -50 -77 -113 -125 -113c-52 0 -66 56 -66 98c0 28 12 110 49 110c48 0 90 -52 134 -68c6 -8 8 -17 8 -27zM555 236c-16 21 -37 39 -63 46c-13 -15 -17 -36 -17 -55c0 -20 6 -50 32 -49c24 12 48 28 48 58zM497 698c-65 -175 -149 -343 -216 -517
c-21 -54 -49 -119 -54 -177c-5 -3 -11 -5 -17 -5c-16 0 -47 9 -47 30c0 6 4 11 7 16c50 94 90 195 131 293c54 127 107 254 154 384h1c17 0 35 -6 41 -24zM254 533c0 -32 -46 -116 -78 -126c-7 -2 -15 -3 -22 -3c-49 0 -94 45 -94 94c0 52 40 93 92 93c27 0 102 -25 102 -58
zM206 530c-8 15 -24 26 -41 26h-11c-30 0 -47 -39 -47 -65c0 -14 5 -27 16 -36c8 -3 17 -4 25 -4c37 0 45 53 58 79z" />
    <glyph glyph-name="ampersand" unicode="&#x26;" horiz-adv-x="691" 
d="M686 20c-3 -16 -18 -20 -32 -20c-49 0 -126 58 -164 89c-23 -13 -43 -29 -65 -42c-43 -25 -103 -44 -153 -44c-110 0 -222 82 -222 199c0 80 63 165 130 204c-14 30 -23 63 -23 96c0 111 104 215 215 215c60 0 97 -33 97 -94c0 -100 -124 -193 -202 -240
c66 -82 140 -158 223 -224c66 32 113 103 113 177c0 24 -7 47 -20 67c39 -10 64 -39 64 -80c0 -73 -60 -155 -114 -200c44 -47 98 -72 153 -103zM417 621c0 33 -31 50 -61 50c-75 0 -149 -85 -149 -158c0 -28 11 -55 29 -76c66 18 181 110 181 184zM448 131
c-48 41 -92 86 -136 132c-34 35 -67 72 -105 102c-58 -33 -108 -91 -108 -161c0 -87 81 -151 164 -151c69 0 134 34 185 78z" />
    <glyph glyph-name="quoteright" unicode="&#x2019;" horiz-adv-x="145" 
d="M95 730c14 -23 20 -49 20 -75c0 -36 -12 -72 -29 -104c-3 -2 -7 -2 -11 -2s-11 0 -14 4c4 16 7 32 7 48c0 39 -16 73 -34 107c4 18 22 27 39 27c8 0 15 -1 22 -5z" />
    <glyph glyph-name="parenleft" unicode="(" horiz-adv-x="200" 
d="M192 -16c-4 -2 -8 -3 -13 -3c-20 0 -39 33 -49 47c-52 75 -94 144 -94 239c0 8 0 16 1 24c12 151 55 297 103 440c6 5 13 9 21 9c14 0 22 -18 23 -29c-37 -140 -95 -279 -95 -426c0 -70 17 -134 53 -194c20 -33 48 -66 50 -107z" />
    <glyph glyph-name="parenright" unicode=")" horiz-adv-x="200" 
d="M172 430c0 -133 -34 -260 -85 -382c-7 -16 -25 -69 -45 -69c-10 0 -18 6 -18 16c0 3 0 6 1 9c47 147 100 281 100 438c0 75 -15 160 -65 218c-10 12 -22 21 -33 32c-10 9 -15 14 -15 28c0 4 0 7 1 11c5 4 12 6 18 6c29 0 45 -18 62 -39c60 -75 79 -174 79 -268z" />
    <glyph glyph-name="asterisk" unicode="*" horiz-adv-x="227" 
d="M210 658c0 -38 -50 -36 -54 -55c10 -21 37 -43 37 -68c0 -3 -1 -7 -1 -10c-4 -6 -12 -9 -19 -9c-21 0 -39 42 -54 60c-24 -9 -28 -72 -53 -72c-9 0 -11 3 -18 8c-3 5 -5 11 -5 17c0 20 24 45 31 63c-14 6 -53 14 -53 31c0 11 6 27 19 27c16 0 36 -16 51 -19
c3 5 4 10 4 15c0 16 -16 40 -16 56c0 10 15 19 24 19c14 0 21 -8 28 -20c1 -13 4 -40 10 -52c15 5 34 23 50 23c6 0 12 -1 17 -4c2 -3 2 -6 2 -10z" />
    <glyph glyph-name="plus" unicode="+" 
d="M324 382c5 -7 11 -16 11 -25s-6 -16 -13 -21c-17 2 -34 3 -51 3s-34 -1 -52 -3c-4 -18 -5 -37 -5 -56c0 -21 2 -43 3 -65c-6 -8 -17 -11 -27 -11c-9 0 -18 3 -24 10v21c0 21 1 42 1 63c0 12 0 25 -3 37c-10 2 -21 2 -31 2c-20 0 -40 -1 -61 -3c-5 6 -7 14 -7 22
c0 9 2 19 8 26c18 -2 36 -3 53 -3c15 0 29 1 43 3c3 40 3 79 3 119c9 6 18 11 29 11c10 0 19 -5 26 -11c-7 -30 -8 -63 -8 -94v-25c6 -1 12 -1 18 -1c20 0 40 3 60 3c9 0 18 -1 27 -2z" />
    <glyph glyph-name="comma" unicode="," horiz-adv-x="170" 
d="M112 53c9 -16 12 -35 12 -53c0 -33 -15 -91 -36 -117c-4 -5 -11 -6 -16 -6s-14 1 -17 6c9 22 14 46 14 71c0 30 -8 59 -24 85c5 16 26 22 40 22c10 0 20 -2 27 -8z" />
    <glyph glyph-name="hyphen" unicode="-" horiz-adv-x="308" 
d="M278 358c0 -8 -3 -15 -8 -21c-39 -1 -78 -3 -117 -3h-41c-25 0 -50 1 -74 5c-5 6 -8 13 -8 21c0 10 5 23 13 30c30 -14 80 -15 113 -15c37 0 72 5 109 9c9 -4 13 -17 13 -26z" />
    <glyph glyph-name="period" unicode="." horiz-adv-x="170" 
d="M128 23c0 -18 -12 -26 -29 -26c-26 0 -53 12 -53 42c0 17 13 36 32 36c30 0 50 -23 50 -52z" />
    <glyph glyph-name="slash" unicode="/" horiz-adv-x="355" 
d="M352 707c-69 -200 -190 -376 -262 -575c-16 -43 -26 -88 -38 -133h-3c-17 0 -33 10 -39 26c53 247 224 447 295 688c5 5 13 8 20 8c11 0 21 -5 27 -14z" />
    <glyph glyph-name="zero" unicode="0" horiz-adv-x="360" 
d="M310 372c0 -72 -41 -382 -134 -382c-1 0 -6 1 -7 1c-90 24 -117 239 -117 317c0 92 28 284 69 365c-5 19 -10 35 -10 54v3c7 4 14 5 22 5c47 0 106 -76 125 -115c37 -75 52 -165 52 -248zM264 377c0 67 -27 212 -68 264c-6 1 -11 2 -17 2c-18 0 -25 -15 -31 -29
c-35 -83 -46 -220 -46 -310c0 -85 10 -203 77 -264c63 56 85 254 85 337z" />
    <glyph glyph-name="one" unicode="1" horiz-adv-x="360" 
d="M251 687c0 -11 -8 -19 -12 -29c-23 -55 -22 -416 -22 -500c0 -52 1 -106 12 -157c-4 -1 -9 -1 -13 -1c-15 0 -29 2 -43 7c-1 13 -1 26 -1 39v194c0 105 2 210 2 315c0 31 0 62 2 93c-55 -3 -98 -54 -120 -54c-8 0 -16 15 -16 22c0 25 101 78 124 93c10 7 21 15 34 15
c14 0 53 -22 53 -37z" />
    <glyph glyph-name="two" unicode="2" horiz-adv-x="360" 
d="M291 74l16 -22c0 -31 -182 -52 -213 -52c-17 0 -41 0 -41 23c0 6 2 12 4 17c57 165 137 324 158 500c1 6 1 12 1 18c0 112 -129 107 -129 150c0 13 13 16 23 16c93 0 157 -60 157 -154c0 -38 -8 -76 -18 -113s-23 -74 -35 -111c-13 -40 -26 -81 -39 -121
c-11 -34 -23 -67 -35 -101c-6 -19 -12 -38 -20 -56c6 -12 18 -18 31 -18c43 0 81 29 124 29c6 0 11 -2 16 -5z" />
    <glyph glyph-name="three" unicode="3" horiz-adv-x="360" 
d="M313 697c-5 -18 -18 -37 -27 -53c-46 -80 -122 -179 -142 -268c68 -60 117 -123 117 -218c0 -64 -18 -116 -69 -156c-11 -1 -21 -2 -32 -2c-21 0 -39 7 -39 31c0 6 1 11 6 15c6 -3 12 -4 19 -4c55 0 72 75 72 118c0 79 -43 153 -123 174c-6 9 -9 21 -9 32
c0 65 153 238 153 312c-13 2 -26 4 -39 4c-26 0 -51 -6 -77 -6c-24 0 -36 8 -40 33c37 12 86 16 125 16c27 0 91 -2 105 -28z" />
    <glyph glyph-name="four" unicode="4" horiz-adv-x="360" 
d="M317 174c0 -11 2 -36 -15 -36c-19 0 -41 1 -59 -7l2 -125c-7 -6 -16 -6 -24 -6s-17 1 -25 1c-1 8 -2 16 -2 24c0 18 2 37 2 55c0 15 -2 30 -5 45c-14 3 -29 5 -43 5c-23 0 -46 -3 -69 -3c-13 0 -27 0 -40 4l-7 18c44 195 113 383 168 575c8 0 17 1 25 1c5 0 10 0 15 -2
c7 -66 9 -132 9 -198c0 -98 -5 -197 -5 -295v-53c5 -1 10 -1 15 -1c13 0 25 2 38 2c7 0 14 -1 20 -4zM212 628c-47 -151 -95 -302 -125 -457c12 -3 24 -5 36 -5c25 0 49 5 73 9c4 54 5 109 7 163c3 97 6 193 9 290z" />
    <glyph glyph-name="five" unicode="5" horiz-adv-x="360" 
d="M312 697c0 -14 -1 -21 -17 -21h-71c-30 0 -59 3 -89 3c-2 -5 -5 -10 -6 -15c-6 -25 -2 -52 -2 -78l-2 -111c71 -74 152 -168 152 -276c0 -75 -20 -151 -86 -195c-6 -4 -24 -15 -30 -15c-14 0 -35 9 -35 26c0 4 0 8 2 11c86 25 101 92 101 172c0 71 -74 201 -145 221
c-5 31 -6 63 -6 95c0 71 7 143 5 214c8 8 19 12 30 12c14 0 28 -2 34 -17c14 -2 28 -3 42 -3c33 0 67 4 100 4c23 0 23 -7 23 -27z" />
    <glyph glyph-name="six" unicode="6" horiz-adv-x="360" 
d="M300 232c0 -74 -49 -209 -119 -243c-20 2 -41 2 -60 9c-64 23 -74 156 -74 214c0 154 53 307 127 440c7 13 32 59 42 66c6 5 12 6 20 6c9 0 32 -5 32 -17c0 -2 -1 -4 -2 -5l-2 -1c-42 -52 -140 -228 -140 -293c0 -6 2 -12 6 -17c14 6 28 9 43 9c25 0 50 -6 69 -23
c37 -32 58 -97 58 -145zM257 232c0 47 -35 124 -90 124c-61 0 -73 -128 -73 -172s9 -118 47 -146c2 -2 7 -2 10 -2c70 0 106 141 106 196z" />
    <glyph glyph-name="seven" unicode="7" horiz-adv-x="360" 
d="M336 711v-2c0 -24 -23 -49 -32 -70c-32 -72 -43 -152 -63 -227c-19 -72 -40 -143 -59 -214c-9 -35 -18 -69 -28 -104c-2 -8 -24 -86 -28 -89c-8 -6 -10 -6 -19 -6c-12 0 -25 3 -30 15c17 46 30 95 44 142c21 72 43 144 63 216c17 61 34 121 50 182c10 38 20 77 25 116
c-23 4 -47 6 -71 6c-33 0 -66 -4 -99 -4c-15 0 -38 21 -44 34c1 12 16 17 26 19c22 -6 45 -7 68 -7h34c36 0 71 7 107 7c19 0 39 -4 56 -14z" />
    <glyph glyph-name="eight" unicode="8" horiz-adv-x="360" 
d="M292 641c0 -75 -41 -169 -79 -233c33 -81 74 -169 74 -258c0 -73 -36 -124 -98 -160h-2c-82 0 -122 38 -122 121c0 91 44 196 80 279c-26 67 -72 159 -72 230c0 76 61 115 131 115c61 0 88 -36 88 -94zM249 637c0 40 -16 56 -56 56c-48 0 -73 -37 -73 -82
c0 -50 38 -133 58 -181c34 47 71 149 71 207zM242 142c0 59 -34 158 -66 207c-6 -20 -15 -38 -23 -58c-20 -51 -39 -117 -39 -172c0 -30 14 -80 51 -80c44 0 77 65 77 103z" />
    <glyph glyph-name="nine" unicode="9" horiz-adv-x="360" 
d="M313 698c0 -30 -16 -57 -19 -86c-3 -22 -2 -45 -2 -68c0 -92 -4 -188 -23 -278c-16 -77 -63 -234 -143 -264c-5 -2 -9 -2 -14 -2c-16 0 -36 5 -36 25c0 31 13 22 35 28c52 14 104 174 115 224c14 64 20 129 20 194c0 17 -3 34 -8 50c-38 -34 -97 -106 -150 -106
c-28 0 -50 31 -50 57c0 94 112 227 206 240c5 13 16 20 29 23c20 -4 40 -13 40 -37zM250 660c-4 1 -9 2 -13 2c-55 0 -155 -115 -155 -169c0 -14 6 -30 23 -30c1 0 4 1 5 1c70 23 127 128 140 196z" />
    <glyph glyph-name="colon" unicode=":" horiz-adv-x="180" 
d="M134 383c0 -20 -24 -31 -37 -43c-25 2 -49 8 -49 38c0 31 23 35 48 35c18 0 38 -9 38 -30zM138 42c0 -23 -23 -42 -45 -42c-23 0 -43 18 -43 41c0 25 24 40 47 40c21 0 41 -17 41 -39z" />
    <glyph glyph-name="semicolon" unicode=";" horiz-adv-x="180" 
d="M130 368c0 -4 -1 -8 -2 -12c-11 -9 -24 -17 -39 -17c-23 0 -42 29 -42 50c0 14 20 32 34 32c16 0 26 -14 39 -21c4 -10 10 -21 10 -32zM124 68c5 -16 8 -33 8 -50c0 -36 -16 -79 -34 -110c-3 -6 -10 -8 -16 -8c-7 0 -15 2 -19 8c7 21 12 43 12 65c0 32 -10 56 -20 85
c8 13 22 21 37 21c12 0 23 -4 32 -11z" />
    <glyph glyph-name="less" unicode="&#x3c;" 
d="M341 216c-3 -13 -19 -35 -33 -35c-46 0 -237 133 -237 171c0 4 0 7 2 10c19 29 155 132 197 158h4c23 0 48 -8 48 -27c0 -11 -44 -25 -52 -30c-56 -35 -94 -63 -130 -114c31 -44 146 -114 201 -133z" />
    <glyph glyph-name="equal" unicode="=" 
d="M341 415c0 -8 -3 -17 -10 -21c-8 1 -15 2 -23 2c-66 0 -119 -8 -184 -8c-17 0 -36 0 -52 4c-7 5 -10 14 -10 22c0 10 5 19 12 25c23 -4 47 -5 71 -5c54 0 96 5 151 5c12 0 25 0 37 -2c5 -6 8 -14 8 -22zM346 313c0 -8 -2 -16 -10 -19c-47 4 -81 6 -129 6
c-46 0 -91 -2 -137 -6c-5 7 -8 15 -8 24c0 7 2 15 7 20c5 6 51 6 59 6c75 0 137 -1 211 -9c5 -6 7 -15 7 -22z" />
    <glyph glyph-name="greater" unicode="&#x3e;" 
d="M341 357c0 -6 -3 -13 -6 -18c-114 -43 -158 -110 -231 -156c-3 0 -5 -1 -7 -1c-13 0 -22 8 -25 20c9 33 143 128 184 157c-15 47 -69 67 -113 94c-12 7 -51 24 -60 32c-3 3 -5 9 -5 12c0 14 11 25 24 28c44 -7 128 -72 174 -106c18 -13 38 -24 54 -41c5 -6 11 -12 11 -21
z" />
    <glyph glyph-name="question" unicode="?" horiz-adv-x="375" 
d="M368 585c0 -116 -196 -193 -196 -296c0 -32 27 -49 27 -67c0 -13 -12 -30 -26 -30c-37 0 -56 53 -56 84c0 121 198 221 198 314c0 37 -50 68 -81 78c-28 9 -58 11 -87 11c-25 0 -53 -8 -76 -18c-12 -5 -25 -13 -39 -13c-11 0 -20 10 -20 21c0 26 14 30 35 37
c34 10 69 19 105 19c64 0 132 -20 179 -65c21 -20 37 -46 37 -75zM202 29c0 -18 -6 -29 -25 -29c-24 0 -51 19 -51 45c0 18 20 29 36 29c24 0 40 -23 40 -45z" />
    <glyph glyph-name="at" unicode="@" horiz-adv-x="728" 
d="M696 500c0 -80 -34 -205 -111 -244c-27 -14 -62 -24 -92 -24s-57 11 -77 33c-28 -12 -57 -46 -87 -46c-5 0 -11 1 -16 3c-49 16 -74 31 -74 87c0 77 50 189 139 189c60 0 88 -36 88 -94c0 -28 -5 -55 -5 -83c0 -3 0 -16 1 -18c9 -18 29 -29 49 -29c14 0 25 5 37 11
c68 36 107 122 107 197c0 82 -39 187 -131 202c-12 2 -25 3 -37 3c-164 0 -315 -139 -379 -282c-14 -30 -19 -64 -19 -97c0 -140 99 -265 245 -265c38 0 75 8 112 18c17 5 34 10 52 12c1 -4 2 -7 2 -11c0 -10 -4 -21 -9 -30c-43 -23 -93 -32 -142 -32c-78 0 -171 24 -227 82
c-53 55 -74 133 -74 208c0 53 10 113 33 162c65 141 235 270 394 270c137 0 221 -85 221 -222zM416 414c0 20 -10 34 -27 44h-6c-57 0 -87 -72 -96 -119c-1 -5 -1 -9 -1 -14c0 -24 14 -47 33 -61c67 21 85 41 93 111c1 13 4 26 4 39z" />
    <glyph glyph-name="A" unicode="A" horiz-adv-x="645" 
d="M642 13c0 -5 -9 -10 -13 -12c-19 3 -28 -6 -43 13c-20 25 -48 122 -64 159c-15 7 -33 7 -49 7c-48 0 -96 -7 -144 -13c-43 -5 -85 -11 -128 -17c-29 -4 -57 -9 -86 -10c-41 -20 -47 -82 -58 -121c-4 -14 -8 -20 -24 -20c-15 0 -36 8 -36 26c0 24 266 568 301 652
c6 15 14 48 35 48c8 0 15 -3 21 -8c6 -4 171 -436 193 -488c18 -3 36 -11 49 -23c1 -5 1 -11 1 -16c0 -18 -14 -18 -23 -30l48 -115c4 -9 20 -23 20 -32zM497 224v1c0 17 -46 126 -56 150c-35 85 -70 170 -112 252c-73 -138 -145 -277 -199 -423l1 -13h10
c120 0 237 31 356 33z" />
    <glyph glyph-name="B" unicode="B" horiz-adv-x="551" 
d="M511 273c0 -145 -177 -272 -311 -281c-22 -1 -45 -3 -67 -3c-11 0 -22 3 -32 5c-14 21 -14 273 -14 318c0 88 2 175 5 263c2 51 1 104 13 154c30 5 60 7 90 7c65 0 202 -10 202 -100c0 -60 -36 -103 -86 -132c107 -25 200 -117 200 -231zM338 622c0 63 -74 70 -122 70
c-21 0 -43 -2 -64 -5c-5 -50 -9 -101 -9 -151c0 -8 0 -30 6 -35h5c60 0 184 50 184 121zM459 291v3c-4 81 -64 133 -136 162c-19 8 -47 17 -68 17c-13 0 -51 -12 -67 -16c-13 -3 -27 -5 -39 -9c-16 -6 -18 -154 -18 -178c0 -33 3 -219 32 -227c8 -2 17 -3 26 -3
c113 0 267 125 270 244v7z" />
    <glyph glyph-name="C" unicode="C" horiz-adv-x="624" 
d="M590 61c0 -34 -160 -61 -190 -61c-197 0 -357 152 -357 351c0 115 36 213 126 287c66 54 162 87 247 87c31 0 133 -11 133 -53c0 -10 -9 -13 -17 -13c-35 0 -67 23 -103 23s-72 -6 -107 -17c-141 -45 -228 -153 -228 -303c0 -189 123 -316 313 -316c35 0 69 9 101 21
c10 4 48 20 55 20c14 0 27 -11 27 -26z" />
    <glyph glyph-name="D" unicode="D" horiz-adv-x="610" 
d="M572 365c0 -162 -163 -291 -303 -340c-35 -12 -112 -25 -149 -25c-18 0 -36 7 -36 28c0 19 2 38 3 57c1 24 1 49 1 73c0 157 -12 314 -12 471v23c0 32 3 63 38 79c3 2 9 4 13 4c15 0 39 -10 52 -18h30c107 -6 195 -65 269 -138c54 -53 94 -138 94 -214zM523 373
c0 95 -62 174 -133 230c-48 38 -110 75 -174 75c-20 0 -39 -1 -57 -9c-35 -3 -36 -161 -36 -202v-6c0 -131 8 -263 12 -394c7 -12 17 -18 31 -18c156 0 357 161 357 324z" />
    <glyph glyph-name="E" unicode="E" horiz-adv-x="450" 
d="M429 54c0 -8 -6 -15 -10 -21c-88 -12 -175 -33 -265 -33c-25 0 -48 4 -60 29c4 11 5 22 15 29c-11 68 -16 138 -20 207c-7 119 -9 238 -9 357c0 21 -1 46 3 67c5 23 20 21 38 29c45 2 91 7 136 7c19 0 120 -6 120 -30c0 -11 -11 -21 -22 -21c-6 0 -12 2 -18 4
c-30 9 -62 10 -93 10c-28 0 -103 0 -109 -36c-3 -17 -2 -36 -2 -53c0 -46 2 -92 2 -138c0 -18 0 -36 -1 -54c23 -11 45 -12 70 -12c33 0 67 3 100 3c17 0 63 3 63 -22c0 -17 -18 -20 -31 -20c-33 0 -67 3 -100 3c-20 0 -88 0 -102 -10c4 -91 0 -186 21 -275
c8 -32 23 -32 52 -32c41 0 81 7 121 16l36 9c2 1 16 5 17 5c12 0 48 -1 48 -18z" />
    <glyph glyph-name="F" unicode="F" horiz-adv-x="449" 
d="M409 694c0 -7 -4 -13 -9 -18h-10c-65 0 -129 9 -194 9c-18 0 -36 -1 -54 -3c-19 -17 -19 -97 -19 -123c0 -94 10 -187 15 -281c15 -13 36 -14 55 -14c57 0 111 19 168 19c9 0 27 -1 27 -14c0 -8 -4 -18 -7 -26c-32 -13 -198 -25 -237 -22c0 -8 -1 -15 -1 -23
c0 -42 7 -134 29 -169c0 -13 -5 -30 -21 -30c-9 0 -26 7 -30 15c-4 7 -9 49 -10 60c-28 201 -28 403 -37 605c7 20 11 39 33 47c48 -3 96 -2 144 -2s97 -2 145 -7c7 -5 13 -14 13 -23z" />
    <glyph glyph-name="G" unicode="G" horiz-adv-x="646" 
d="M585 -2v-5c0 -7 -2 -15 -11 -15c-17 0 -42 17 -57 26c-37 -2 -73 -4 -110 -4c-196 0 -358 179 -358 371c0 51 14 102 38 147c71 135 209 215 361 215c16 0 88 0 88 -24c0 -11 -3 -31 -18 -31c-11 0 -21 8 -31 11c-15 4 -32 3 -48 3c-126 0 -242 -73 -302 -183
c-21 -39 -35 -83 -35 -128c0 -207 146 -344 351 -344c43 0 74 2 74 55c0 10 -2 19 -3 29c-2 23 -1 46 -1 68c0 59 -1 118 -7 176c3 9 12 15 21 15c13 0 26 -10 35 -19c-1 -28 -1 -55 -1 -83v-89c0 -35 1 -164 14 -191z" />
    <glyph glyph-name="H" unicode="H" horiz-adv-x="744" 
d="M670 21c0 -17 -12 -22 -27 -22c-20 0 -31 10 -31 30c0 135 6 269 6 404c-41 10 -83 10 -124 10c-120 0 -239 -11 -359 -19c-5 -75 -10 -150 -10 -225c0 -56 10 -110 10 -166c0 -15 -5 -33 -23 -33c-16 0 -36 16 -36 33c0 156 6 311 6 467c0 69 0 139 -6 208
c8 6 19 10 29 10c13 0 26 -4 33 -15c-4 -46 -8 -91 -8 -137c0 -28 1 -57 5 -85c21 -5 44 -4 65 -4c117 0 235 8 352 8c16 0 32 0 48 -1c5 2 18 6 18 12c0 74 -7 147 -11 221c8 5 17 8 26 8c13 0 25 -8 33 -17c2 -150 1 -301 1 -451v-202c0 -11 3 -23 3 -34z" />
    <glyph glyph-name="I" unicode="I" horiz-adv-x="217" 
d="M141 673c0 -159 -11 -318 -11 -477c0 -62 2 -124 6 -186c-4 -6 -11 -10 -19 -10c-10 0 -20 4 -29 8c-5 21 -7 42 -7 63c0 16 1 33 2 49c7 198 11 397 9 595c10 6 21 10 33 10c4 0 12 -1 14 -5s2 -39 2 -47z" />
    <glyph glyph-name="J" unicode="J" horiz-adv-x="578" 
d="M534 640c0 -97 -17 -194 -41 -288c-25 -98 -98 -288 -192 -336c-21 -11 -47 -16 -70 -16c-25 0 -51 7 -70 24c-93 80 -91 244 -95 357c6 9 17 19 28 19c14 0 26 -18 34 -28c-3 -26 -5 -53 -5 -79c0 -70 27 -240 120 -240c116 0 195 279 216 371c12 52 21 106 21 160
c0 64 -5 94 -78 94c-86 0 -170 -26 -253 -45c-16 -4 -32 -8 -49 -8c-29 0 -34 27 -40 49c6 14 18 22 33 22s30 -8 45 -8c2 0 5 1 7 1c34 3 67 5 101 10c70 10 140 26 212 26c31 0 56 -1 74 -30c2 -3 2 -7 2 -11c0 -11 -10 -20 -10 -30c0 -5 6 -11 10 -14z" />
    <glyph glyph-name="K" unicode="K" horiz-adv-x="604" 
d="M564 26c0 -17 -15 -22 -29 -22c-17 0 -25 5 -34 19c-19 31 -35 81 -52 116c-39 80 -82 158 -122 237l-42 84c-29 -7 -126 -127 -143 -156c-11 -18 -11 -41 -11 -62c0 -41 4 -152 18 -187c1 -12 6 -23 6 -35c0 -14 -11 -21 -24 -21c-17 0 -33 4 -39 21
c-8 21 -10 190 -10 223c0 106 5 212 5 318c0 36 -1 72 -3 108c7 22 -6 48 29 48c11 0 21 -5 28 -14c-6 -65 -11 -131 -11 -196c0 -37 3 -75 6 -112c123 108 245 217 366 327c6 2 11 2 17 2c11 0 38 -4 38 -19c0 -16 -20 -22 -32 -27c-4 -2 -8 -3 -11 -5
c-22 -14 -41 -34 -60 -51c-43 -38 -85 -76 -126 -116c66 -151 132 -305 220 -445c7 -12 16 -20 16 -35z" />
    <glyph glyph-name="L" unicode="L" horiz-adv-x="424" 
d="M427 54c0 -3 -1 -6 -1 -9c-31 -23 -238 -46 -285 -46c-15 0 -32 20 -35 33c-4 15 -7 84 -9 104c-7 100 -11 200 -11 300c0 86 1 200 25 282c7 4 16 7 24 7c9 0 18 -6 23 -13c-21 -113 -27 -228 -27 -343c0 -99 4 -198 24 -295c11 -8 24 -13 36 -20c11 -2 22 -3 33 -3
c50 0 99 15 148 24c10 2 21 4 31 4c18 0 24 -8 24 -25z" />
    <glyph glyph-name="M" unicode="M" horiz-adv-x="947" 
d="M887 56c0 -21 -19 -32 -38 -32c-15 0 -33 8 -33 26c0 82 1 163 1 245c0 93 -3 186 -11 279c-2 21 -3 42 -7 63c-67 -35 -253 -213 -306 -276c-3 0 -6 -1 -9 -1c-15 0 -25 5 -35 15s-18 22 -27 33c-75 88 -182 141 -273 211l-6 -9c0 -99 -12 -198 -12 -297
c0 -80 8 -161 8 -241c0 -20 18 -35 18 -56c0 -8 -13 -16 -19 -18c-21 5 -44 8 -53 30c-4 11 -5 71 -5 87c0 28 1 55 1 83c0 137 13 274 13 411c0 27 -21 49 -21 71c0 19 26 23 40 23c10 0 140 -106 162 -121c68 -47 139 -89 197 -149c3 -1 5 -2 8 -2c22 0 249 219 294 251
c10 23 27 43 54 43c15 0 26 -24 35 -34c-1 -24 -5 -48 -5 -72c0 -175 11 -351 13 -526c9 -10 16 -23 16 -37z" />
    <glyph glyph-name="N" unicode="N" horiz-adv-x="784" 
d="M716 357c0 -14 -8 -30 -18 -39c-6 -66 -7 -132 -7 -197v-48c0 -16 8 -32 8 -48c0 -22 -22 -25 -39 -26c-10 10 -16 21 -16 35c0 98 9 196 9 294c0 4 0 8 -1 12c-60 32 -121 61 -181 93c-52 27 -291 152 -332 152c-11 0 -14 -54 -15 -63c-1 -26 -2 -51 -2 -77
c0 -79 5 -158 11 -237c3 -44 5 -88 15 -131c11 -12 9 -28 9 -43c-7 -9 -19 -10 -29 -10h-13c-18 13 -23 50 -25 71c-2 27 -2 55 -3 82c-5 136 -11 272 -11 408c0 25 7 92 42 92c14 0 24 -12 25 -26c28 -26 179 -84 225 -107c50 -25 98 -55 147 -82c27 -15 111 -62 137 -62
l2 316c6 5 15 9 23 9c13 0 23 -11 28 -22c-10 -30 -9 -80 -9 -112c0 -68 6 -136 4 -204c15 -1 16 -19 16 -30z" />
    <glyph glyph-name="O" unicode="O" horiz-adv-x="829" 
d="M793 355c0 -210 -146 -365 -358 -365c-206 0 -396 131 -396 351c0 222 154 393 380 393c216 0 374 -165 374 -379zM750 353c0 181 -150 343 -334 343c-145 0 -265 -104 -309 -239c-12 -38 -17 -76 -17 -116c0 -181 163 -310 336 -310c178 0 324 143 324 322z" />
    <glyph glyph-name="P" unicode="P" horiz-adv-x="442" 
d="M417 509c0 -119 -119 -205 -215 -254c-16 -8 -33 -15 -49 -22c-4 -2 -7 -3 -7 -4c-18 -7 -18 -1 -18 -26c0 -59 11 -117 16 -176c4 -2 8 -5 8 -10c0 -9 -23 -17 -30 -17c-22 0 -34 15 -34 36c0 60 -1 120 -6 180c-21 3 -44 3 -50 28c6 26 57 9 57 33v83
c0 101 2 204 23 304c7 32 20 61 57 61c21 0 40 -9 59 -18c87 -42 189 -85 189 -198zM369 507c0 93 -115 157 -195 170c-34 -92 -37 -236 -37 -335v-66c91 27 192 99 224 191c5 13 8 26 8 40z" />
    <glyph glyph-name="Q" unicode="Q" horiz-adv-x="863" 
d="M822 370c0 -171 -99 -311 -263 -361c15 -1 29 -1 44 -1c76 0 133 13 203 43c10 -3 11 -15 11 -24s-1 -21 -10 -27c-29 -19 -210 -31 -253 -31c-212 0 -438 70 -500 297c-8 31 -12 62 -12 94c0 208 207 375 406 375c207 0 374 -155 374 -365zM777 364c0 30 -4 60 -12 89
c-37 135 -177 238 -316 238c-24 0 -48 -4 -71 -9c-148 -35 -288 -162 -288 -322c0 -190 171 -327 353 -327c181 0 334 149 334 331z" />
    <glyph glyph-name="R" unicode="R" horiz-adv-x="537" 
d="M513 21c0 -9 -24 -17 -31 -17c-6 0 -12 1 -18 3c-36 34 -72 101 -98 145c-32 53 -65 105 -101 155c-29 -11 -118 -46 -138 -64c0 -27 -1 -55 -1 -82c0 -52 3 -104 19 -154c-4 -7 -12 -8 -19 -8c-17 0 -30 5 -40 19c-8 11 -8 152 -8 176c0 123 3 247 10 370
c2 46 1 95 15 139c37 24 82 32 125 32c104 0 252 -58 252 -181c0 -82 -93 -175 -158 -216c0 -3 -1 -6 -1 -9c0 -78 192 -282 192 -308zM426 561c0 96 -109 134 -189 134c-32 0 -66 -4 -94 -22c-11 -96 -13 -195 -13 -292c0 -21 0 -65 7 -83c114 38 289 122 289 263z" />
    <glyph glyph-name="S" unicode="S" horiz-adv-x="488" 
d="M447 182c0 -7 -2 -14 -4 -21c-31 -101 -134 -169 -238 -169c-44 0 -124 11 -154 46c-4 5 -10 14 -10 21c0 15 21 31 35 32c30 -36 74 -56 121 -56c17 0 37 6 54 11c75 21 141 67 141 152c0 127 -157 164 -245 216c-51 30 -98 82 -98 144c0 112 121 176 221 176
c44 0 110 -18 135 -58c1 -2 2 -6 2 -9c0 -17 -16 -28 -31 -31c-21 39 -64 53 -106 53c-69 0 -169 -44 -169 -124c0 -66 74 -117 127 -143c20 -10 40 -19 60 -28c96 -44 159 -99 159 -212z" />
    <glyph glyph-name="T" unicode="T" horiz-adv-x="499" 
d="M491 691c0 -15 -10 -24 -25 -24c-50 19 -133 10 -188 13c-11 -32 -10 -138 -10 -175c0 -137 3 -274 3 -410c0 -18 0 -56 13 -69c0 -15 -19 -26 -32 -26c-23 0 -29 27 -29 45c0 96 3 191 3 287c0 118 -2 231 -7 349c-12 1 -25 1 -37 1c-50 0 -101 -2 -150 -16
c-9 8 -24 24 -24 37s15 16 25 16c59 0 118 6 177 6c4 12 9 21 23 21c21 0 38 -8 53 -23c36 0 72 -3 108 -3c19 0 38 0 56 3c3 1 7 2 10 2c11 0 20 -8 27 -15c2 -6 4 -13 4 -19z" />
    <glyph glyph-name="U" unicode="U" horiz-adv-x="729" 
d="M673 541c0 -92 -14 -184 -46 -270c-43 -117 -160 -281 -298 -281c-79 0 -136 65 -174 127c-61 101 -87 275 -87 392c0 44 4 116 22 156c11 25 24 39 52 44c8 -2 25 -10 25 -20c0 -9 -18 -25 -23 -33c-17 -27 -21 -121 -21 -155c0 -124 41 -464 210 -464
c52 0 100 31 135 67c113 115 161 271 161 430c0 56 -23 110 -23 166c0 16 14 25 28 25c21 0 33 -16 33 -36c0 -49 6 -99 6 -148z" />
    <glyph glyph-name="V" unicode="V" horiz-adv-x="624" 
d="M612 696c-22 -74 -54 -145 -83 -216c-44 -106 -90 -211 -137 -316c-21 -46 -53 -128 -83 -165h-6c-14 0 -23 3 -33 15c-6 7 -14 34 -18 44c-54 142 -104 287 -165 427c-15 34 -63 130 -65 161c7 10 18 16 30 16c5 0 10 -1 14 -3c21 -55 47 -107 69 -161
c58 -139 107 -282 167 -420c23 38 40 79 58 120c56 126 110 254 157 384c13 35 27 70 33 107c2 12 2 36 20 36s35 -13 42 -29z" />
    <glyph glyph-name="W" unicode="W" horiz-adv-x="978" 
d="M933 687c0 -104 -70 -582 -107 -668c-5 -13 -8 -19 -23 -19c-13 0 -25 1 -36 9c-12 30 -29 59 -45 87c-77 135 -133 282 -223 409c-23 -31 -42 -64 -61 -97c-60 -101 -124 -201 -183 -303c-14 -24 -26 -49 -42 -72c-12 -18 -24 -31 -47 -31c-44 0 -37 87 -40 116
c-4 34 -12 68 -19 101c-12 57 -24 115 -35 172c-14 73 -29 146 -29 221c0 12 0 24 3 36c6 7 15 12 24 12c14 0 23 -13 23 -26c0 -109 25 -216 44 -322c13 -71 28 -142 46 -212c45 43 107 149 141 205c48 80 95 161 140 242c0 21 5 50 32 50c34 0 47 -37 45 -66
c91 -146 161 -304 248 -452c44 120 57 268 71 395c7 61 15 123 15 185c0 18 -13 33 -13 51c0 14 18 15 28 15c19 0 43 -18 43 -38z" />
    <glyph glyph-name="X" unicode="X" horiz-adv-x="615" 
d="M580 24c0 -26 -40 -24 -58 -24c-6 7 -7 13 -9 22c-23 92 -139 249 -203 322c-76 -93 -139 -197 -206 -296c-11 -16 -22 -33 -35 -48c-18 0 -43 9 -43 30c58 73 111 151 165 227c29 41 61 81 88 124v1c0 20 -165 234 -191 259c-9 8 -18 16 -26 24c-7 6 -13 12 -13 22
c0 19 18 34 36 34c1 0 4 -1 5 -1c17 -19 32 -40 47 -60c47 -64 94 -129 141 -193c9 -12 25 -35 38 -42c40 55 77 112 115 168c27 40 56 80 81 122c3 5 5 10 12 10c14 0 32 -3 32 -21c0 -12 -4 -22 -10 -32c-9 -15 -21 -28 -32 -42c-25 -31 -46 -65 -69 -98
c-34 -49 -67 -99 -103 -147c61 -97 129 -188 192 -284c7 -11 46 -68 46 -77z" />
    <glyph glyph-name="Y" unicode="Y" horiz-adv-x="608" 
d="M600 697c0 -5 -2 -9 -5 -13c-3 -3 -7 -5 -11 -8c-71 -51 -265 -285 -265 -371v-112c0 -31 0 -134 10 -158c3 -7 7 -13 7 -21c0 -12 -19 -15 -28 -15c-12 0 -24 4 -30 15c-1 105 -6 211 -12 316c-22 16 -34 40 -48 63c-45 72 -91 144 -139 214c-19 28 -41 55 -59 84
c-2 3 -3 6 -3 9c0 15 20 22 32 22c10 0 17 -3 23 -11c5 -6 7 -15 10 -22c8 -17 18 -33 27 -49c30 -51 62 -100 95 -149c19 -28 38 -57 61 -83c1 0 3 -1 3 -1c18 0 8 23 43 29c92 86 142 209 242 288c17 0 47 -5 47 -27z" />
    <glyph glyph-name="Z" unicode="Z" horiz-adv-x="541" 
d="M519 21c0 -8 -3 -15 -9 -21c-153 -4 -305 -10 -458 -10c-10 7 -19 16 -21 28c14 27 30 53 45 80c109 193 208 391 325 579c-19 7 -66 9 -87 9c-35 0 -71 -3 -106 -3c-33 0 -66 -11 -99 -11c-11 0 -23 12 -30 20v5c-1 30 34 31 57 31c108 0 215 -5 323 -8
c11 -7 32 -21 32 -36c0 -22 -37 -3 -44 -34c-59 -83 -109 -172 -159 -261c-63 -114 -124 -228 -180 -346c26 -11 67 -11 95 -11c88 0 176 13 264 12c4 2 9 3 13 3c15 0 30 -15 39 -26z" />
    <glyph glyph-name="bracketleft" unicode="[" horiz-adv-x="275" 
d="M279 710c0 -3 -6 -13 -8 -16c-8 -8 -41 -6 -52 -6c-27 0 -53 -2 -80 -4c-16 -93 -16 -188 -18 -283c-1 -34 -2 -67 -2 -101c0 -51 1 -237 53 -258c5 -2 11 -3 17 -3c15 0 30 8 45 8c7 0 13 -4 15 -10c-16 -32 -50 -50 -85 -50c-20 0 -40 0 -50 20c-28 58 -36 187 -36 253
c0 43 4 85 4 128c0 80 -1 160 -1 240c0 25 0 50 -4 75c0 3 -1 6 -1 9c0 15 9 18 22 20c27 5 54 5 81 5c18 0 100 -3 100 -27z" />
    <glyph glyph-name="backslash" unicode="\" horiz-adv-x="360" 
d="M352 12c0 -12 -17 -13 -31 -13h-12c-17 41 -31 83 -47 124c-72 192 -144 386 -252 561c1 19 16 35 36 35c19 0 27 -30 33 -43c48 -114 273 -581 273 -664z" />
    <glyph glyph-name="bracketright" unicode="]" horiz-adv-x="275" 
d="M216 227c0 -60 -3 -187 -32 -238h-17c-42 0 -143 3 -143 63c0 3 1 7 5 7c20 0 56 -26 90 -26c6 0 12 0 18 2c36 11 37 155 37 189c0 53 -3 106 -5 159c-4 104 -9 209 -10 313c-14 3 -27 4 -41 4c-20 0 -41 -3 -61 -3c-11 0 -38 0 -38 16c0 0 1 2 1 3c27 23 69 25 108 25
h30c21 0 50 -1 57 -26c-5 -65 -8 -129 -8 -194c0 -98 9 -196 9 -294z" />
    <glyph glyph-name="asciicircum" unicode="^" 
d="M318 552c-6 -6 -15 -11 -24 -11c-36 0 -69 105 -93 130l-9 -1c-36 -33 -54 -125 -100 -127c-6 4 -10 11 -10 18c0 40 75 101 75 143c0 2 -1 5 -1 7c7 13 20 23 35 24h1c32 0 111 -145 126 -183z" />
    <glyph glyph-name="underscore" unicode="_" horiz-adv-x="500" 
d="M554 -126c0 -7 -5 -14 -12 -16c-25 3 -50 3 -75 3c-104 0 -209 -5 -313 -5c-20 0 -132 0 -142 7s-12 12 -12 24c0 4 0 9 3 13c6 8 41 7 51 7c95 0 190 -7 285 -7c40 0 81 0 121 4c20 2 39 8 59 8c17 0 35 -21 35 -38z" />
    <glyph glyph-name="quoteleft" unicode="&#x2018;" horiz-adv-x="145" 
d="M110 575c-4 -18 -24 -24 -40 -24c-8 0 -21 1 -27 7c-7 16 -10 34 -10 52c0 32 15 94 36 118c3 4 9 5 14 5c4 0 10 -1 12 -6c-7 -23 -10 -51 -10 -76c0 -23 3 -62 25 -76z" />
    <glyph glyph-name="a" unicode="a" horiz-adv-x="357" 
d="M335 27c-10 -14 -19 -19 -36 -19c-2 0 -5 0 -7 1c-7 17 -8 39 -11 57l-9 60c-7 44 -10 89 -20 133c-48 -4 -96 -3 -143 -14c-17 -57 -44 -176 -40 -233c-4 -7 -11 -14 -20 -14c-15 0 -29 16 -29 31c0 2 0 5 1 7c14 60 24 121 37 181c33 153 69 306 106 458
c-2 8 -5 16 -5 24c0 12 15 26 27 26c15 0 24 -23 28 -35c5 -14 7 -29 10 -44c21 -112 36 -226 61 -338c14 -5 27 -12 29 -29c-3 -9 -10 -16 -19 -18c11 -78 16 -158 40 -234zM244 299c-18 99 -31 200 -55 298c-28 -101 -56 -203 -71 -307c42 1 84 2 126 9z" />
    <glyph glyph-name="b" unicode="b" horiz-adv-x="342" 
d="M309 227c0 -75 -43 -148 -98 -196c-23 -20 -57 -41 -89 -41c-20 0 -31 9 -36 28c-3 10 -2 21 -2 31c-2 105 -7 209 -7 314c0 74 1 148 5 222c2 30 2 61 7 91c7 39 23 58 64 58c62 0 125 -55 125 -119c0 -62 -36 -92 -74 -134c64 -59 105 -168 105 -254zM235 620
c0 40 -40 68 -77 68c-9 0 -12 0 -18 -7c-14 -17 -18 -122 -18 -149v-37c55 6 113 69 113 125zM265 240c0 55 -41 194 -105 203c-5 -4 -11 -7 -17 -7c-9 0 -17 5 -22 12c0 -32 -1 -63 -1 -95c0 -103 5 -206 13 -308h5c80 0 127 129 127 195z" />
    <glyph glyph-name="c" unicode="c" horiz-adv-x="284" 
d="M262 708c-104 -72 -173 -230 -173 -355c0 -108 50 -227 125 -304c5 -5 12 -9 17 -14c6 -6 7 -9 7 -17c0 -6 -1 -13 -2 -19c-4 -6 -11 -9 -18 -9c-10 0 -20 3 -29 6c-92 95 -143 228 -143 360c0 148 62 281 174 377c3 0 6 1 9 1c15 0 27 -14 33 -26z" />
    <glyph glyph-name="d" unicode="d" horiz-adv-x="325" 
d="M281 375c0 -129 -36 -320 -170 -376c-13 2 -25 8 -33 19v4c0 11 9 21 17 26l-15 20c3 36 4 73 4 109c0 100 -7 201 -7 301c0 78 3 155 3 233c7 6 17 13 27 13c21 0 41 -28 54 -42c90 -102 120 -169 120 -307zM237 360c0 110 -18 221 -111 293c-4 -75 -5 -149 -5 -224
c0 -117 4 -234 15 -351c20 1 33 31 42 46c41 71 59 154 59 236z" />
    <glyph glyph-name="e" unicode="e" horiz-adv-x="310" 
d="M286 700c0 -11 -10 -19 -18 -25c-31 2 -61 12 -92 12c-9 0 -23 0 -32 -4c-27 -11 -21 -225 -23 -263c30 -4 62 1 91 -10c-1 -16 -5 -29 -19 -38c-11 2 -22 3 -33 3c-12 0 -24 -2 -36 -6c-4 -20 -5 -41 -5 -61c0 -36 0 -243 28 -254c4 -2 9 -2 14 -2c32 0 58 24 87 24
c12 0 22 -7 29 -16v-3c0 -13 -5 -19 -16 -26c-30 -1 -59 -7 -88 -16c-21 -7 -42 -16 -65 -16c-14 6 -23 19 -26 33c3 17 5 34 5 51c0 30 -4 61 -5 91c-3 72 -4 145 -4 217c0 105 3 209 10 314l6 -1c-1 2 -1 4 -1 6c0 5 5 15 11 15h42c16 0 133 0 138 -13c1 -4 2 -8 2 -12z
" />
    <glyph glyph-name="f" unicode="f" horiz-adv-x="313" 
d="M298 682c0 -2 0 -5 -1 -7c-13 -9 -22 -16 -39 -16h-2c-17 16 -41 21 -64 21c-17 0 -35 -1 -51 -8c-20 -42 -17 -260 -18 -320c10 -12 26 -14 40 -14c26 0 52 9 78 9c9 -5 14 -13 14 -23c0 -6 -1 -13 -2 -19c-20 -10 -44 -11 -66 -11s-44 2 -66 2c0 -92 3 -185 14 -277
c-3 -10 -11 -20 -23 -20c-23 0 -31 28 -32 47c-2 29 -2 59 -2 89c0 112 0 225 2 338c2 80 2 160 17 239c15 11 36 12 54 12c40 0 106 -8 141 -27c4 -2 6 -11 6 -15z" />
    <glyph glyph-name="g" unicode="g" horiz-adv-x="416" 
d="M360 7c0 -4 -1 -8 -3 -12c-7 -3 -14 -5 -21 -5c-28 0 -31 29 -55 29h-9c-152 0 -228 151 -228 286c0 116 50 222 109 319c24 39 57 101 110 101c6 0 12 -1 18 -2l11 -14c-3 -11 -9 -22 -21 -25c-99 -86 -177 -256 -177 -387c0 -60 15 -123 54 -170c35 -42 83 -70 138 -70
c4 6 9 11 16 13c-1 20 -1 41 -1 61c0 101 5 201 5 302c0 18 10 25 27 25c11 0 21 -5 27 -15c-4 -99 -13 -197 -13 -297c0 -32 0 -87 8 -117c2 -7 5 -14 5 -22z" />
    <glyph glyph-name="h" unicode="h" horiz-adv-x="435" 
d="M364 23c-2 -6 -8 -10 -14 -10c-21 0 -42 12 -42 35c0 14 2 27 3 41c2 28 3 57 4 85c3 90 3 181 3 271v14c-8 7 -27 7 -37 7c-21 0 -149 -10 -152 -24c-3 -15 -3 -33 -3 -48c0 -81 1 -162 4 -243c2 -49 3 -98 9 -146c-7 -3 -14 -5 -21 -5c-13 0 -23 8 -30 18
c-3 30 -1 60 -1 90c0 75 -2 149 -3 224c-2 127 -2 254 -6 381c3 8 9 11 17 11c13 0 27 -1 37 -10c-5 -44 -5 -88 -5 -133c0 -23 1 -46 1 -70c13 -10 47 -11 63 -11h30c32 0 66 1 98 9c-5 52 3 106 -8 157c-3 12 -13 29 -13 40c0 8 11 12 18 13c3 2 8 4 12 4
c13 0 29 -16 31 -29c1 -5 1 -11 1 -16c0 -44 -2 -89 -2 -133c0 -144 2 -288 2 -432c0 -30 1 -60 4 -90z" />
    <glyph glyph-name="i" unicode="i" horiz-adv-x="199" 
d="M128 705c0 -16 -1 -31 -2 -47c-5 -120 -7 -241 -7 -361c0 -63 1 -125 3 -188c1 -28 5 -57 5 -85c0 -12 -6 -26 -20 -26c-10 0 -20 5 -29 10l-6 13c6 140 8 281 8 422v78c0 41 0 81 -3 122c-1 20 -5 39 -5 59c0 15 16 23 29 23c11 0 27 -7 27 -20z" />
    <glyph glyph-name="j" unicode="j" horiz-adv-x="228" 
d="M174 698c0 -30 -2 -60 -3 -90c-1 -63 1 -125 -3 -188c-6 -100 -26 -369 -123 -419c-2 -1 -9 -1 -12 -1c-21 0 -36 19 -36 39c30 13 47 23 63 53c6 12 11 24 16 37c40 108 50 220 50 334c0 83 -4 165 -7 248c5 7 13 13 22 13c13 0 33 -12 33 -26z" />
    <glyph glyph-name="k" unicode="k" horiz-adv-x="378" 
d="M355 694c0 -30 -139 -175 -139 -239c0 -18 7 -37 12 -54c29 -103 57 -208 96 -308c4 -11 27 -57 27 -64c0 -13 -17 -30 -30 -30c-11 0 -25 17 -33 24c-4 46 -18 90 -31 133c-21 68 -45 134 -69 200c-7 20 -12 42 -22 60c-5 9 -10 17 -16 25c26 95 120 170 145 272
c6 7 14 11 23 11c18 0 37 -10 37 -30zM138 47c0 -8 -3 -15 -9 -20c-7 -1 -15 -4 -22 -4c-17 0 -26 20 -26 35c0 12 2 24 2 36c0 46 1 93 1 139v82c0 118 0 237 -5 356c0 6 -1 13 -1 19c0 10 3 20 11 26h8c15 0 30 -4 36 -20c-5 -26 -4 -52 -5 -78c-1 -32 -2 -65 -2 -97v-95
c0 -107 3 -215 7 -322c1 -16 0 -31 3 -47c1 -3 2 -7 2 -10z" />
    <glyph glyph-name="l" unicode="l" horiz-adv-x="291" 
d="M291 25c0 -12 -10 -17 -20 -20c-18 -5 -55 -2 -76 -4c-16 -1 -32 -3 -48 -5c-7 -1 -14 -3 -21 -3c-21 0 -37 22 -39 41l5 17c-7 78 -10 157 -10 236c0 61 6 413 39 438c16 -2 28 0 34 -18c-24 -160 -31 -321 -31 -483c0 -36 0 -123 12 -155c5 -14 11 -22 26 -26
c8 -2 26 -2 34 -2c21 0 42 0 58 17h3c14 0 34 -18 34 -33z" />
    <glyph glyph-name="m" unicode="m" horiz-adv-x="467" 
d="M401 24c0 -11 -5 -21 -15 -26c-12 3 -34 11 -34 26c0 54 3 110 3 165v195c0 79 -2 158 -5 237c-38 -46 -62 -102 -90 -154c0 -14 -5 -25 -18 -32c-32 24 -48 60 -65 95c-15 31 -35 60 -53 90c0 -103 -7 -205 -7 -308c0 -96 -2 -197 18 -292c-4 -10 -16 -19 -27 -19
c-12 0 -21 10 -24 21c-4 13 -3 79 -4 97c-2 66 -4 133 -4 199c0 45 3 367 11 381c6 9 13 17 25 17c28 0 101 -167 117 -197l5 4c31 54 63 108 100 159c4 6 9 11 12 17c5 9 9 26 22 26c12 0 26 -18 33 -27v-18c0 -10 -1 -21 -6 -30c-1 -28 -2 -55 -2 -83v-142
c0 -85 1 -170 3 -255c1 -49 5 -98 5 -146z" />
    <glyph glyph-name="n" unicode="n" horiz-adv-x="399" 
d="M326 694c0 -36 -2 -73 -3 -109c-2 -77 -3 -155 -3 -232c0 -115 1 -229 2 -344c-4 -6 -10 -10 -17 -10c-9 0 -17 5 -26 7c-3 9 -3 28 -3 44v20c0 70 1 139 1 209c0 17 0 34 -1 51c-7 13 -7 28 -11 41c-12 35 -112 161 -143 182c-2 -12 -2 -24 -2 -35v-24
c0 -78 -3 -156 -3 -234v-22c0 -46 1 -122 10 -151c2 -7 5 -14 5 -21c0 -13 -10 -17 -21 -17c-15 0 -28 8 -34 22c2 7 4 14 4 21c0 73 -4 145 -4 218v286c0 19 0 39 1 58c1 13 6 47 24 47s26 -22 26 -37c0 -11 -7 -19 -7 -30c0 -1 0 -3 1 -4c15 -25 37 -45 56 -67
c34 -39 68 -77 99 -119c2 18 3 37 3 55c0 52 -6 105 -6 157c0 9 1 51 4 57c4 7 10 12 18 12c17 0 30 -14 30 -31z" />
    <glyph glyph-name="o" unicode="o" horiz-adv-x="356" 
d="M296 343c0 -79 -18 -132 -42 -206c-9 -26 -17 -53 -28 -78c-6 -13 -13 -27 -17 -41c-1 -4 -1 -9 -1 -14c-11 -6 -24 -15 -37 -15c-29 0 -43 44 -51 66c-34 94 -55 189 -55 289c0 109 24 249 81 342c-5 3 -9 8 -9 14c0 15 12 35 29 35c30 0 61 -73 70 -97
c35 -94 60 -194 60 -295zM254 344c0 104 -22 211 -71 303h-6c-45 -85 -69 -182 -69 -279c0 -71 12 -141 29 -210c5 -20 10 -43 17 -63c4 -12 11 -28 23 -34c43 92 77 179 77 283z" />
    <glyph glyph-name="p" unicode="p" horiz-adv-x="309" 
d="M274 500c0 -83 -37 -155 -87 -219c-9 -12 -18 -24 -30 -34s-24 -18 -36 -28c0 -23 -2 -47 -2 -70c0 -47 3 -94 17 -139c-5 -7 -13 -10 -22 -10c-36 0 -31 44 -34 69c-2 15 -5 30 -5 45c0 124 11 247 11 371c0 48 0 97 -7 145c-3 18 -11 35 -11 54c0 30 24 41 50 41
c3 -4 15 -21 21 -17c47 -32 110 -96 129 -151c5 -14 6 -42 6 -57zM229 507c0 61 -51 122 -101 152c-1 -56 0 -112 0 -167v-90c0 -40 -1 -80 -3 -120c59 53 89 127 102 204c1 7 2 14 2 21z" />
    <glyph glyph-name="q" unicode="q" horiz-adv-x="380" 
d="M418 -105c0 -12 -16 -15 -25 -15c-19 0 -39 6 -57 11c-112 34 -226 137 -258 251c-18 65 -28 135 -28 203c0 11 0 21 1 32c5 101 37 206 83 296c14 27 33 53 63 62c37 -12 74 -68 92 -100c36 -64 48 -133 48 -205c0 -110 -29 -247 -74 -348c-8 -18 -27 -45 -27 -64
c0 -56 128 -93 172 -104c7 -5 10 -11 10 -19zM291 433c0 92 -23 175 -82 247c-2 0 -3 1 -5 1c-10 0 -16 -12 -20 -19c-60 -95 -91 -220 -91 -332c0 -96 25 -205 89 -280c71 60 109 291 109 383z" />
    <glyph glyph-name="r" unicode="r" horiz-adv-x="323" 
d="M311 29c0 -3 -1 -6 -2 -9c-7 -4 -15 -6 -23 -6c-6 0 -12 1 -17 3c-7 13 -11 27 -16 40c-11 29 -24 58 -35 87c-19 48 -35 98 -57 145c-17 -13 -33 -28 -51 -41c-1 -20 -1 -39 -1 -59c0 -62 0 -125 12 -187c-7 -1 -15 -2 -22 -2c-10 0 -19 3 -25 12c-2 20 -2 39 -2 59v353
c0 92 2 185 22 275c-5 3 -9 9 -9 15s2 12 4 17c4 2 8 3 13 3c30 0 73 -38 93 -59c40 -41 76 -100 76 -159c0 -70 -34 -135 -73 -191c30 -93 66 -185 103 -275c6 -5 10 -13 10 -21zM226 518c0 56 -28 128 -85 147c-17 -31 -18 -64 -20 -98c-6 -87 -6 -174 -8 -261
c7 2 13 7 19 12c52 48 94 129 94 200z" />
    <glyph glyph-name="s" unicode="s" horiz-adv-x="263" 
d="M223 702c0 -7 -1 -14 -3 -20c-73 -30 -135 -106 -135 -187c0 -119 137 -211 137 -318c0 -61 -43 -178 -117 -178c-23 0 -30 16 -30 37c0 7 2 18 12 18c5 0 10 -2 14 -5c51 7 78 86 78 131c0 74 -137 187 -137 320c0 89 73 182 147 226c2 1 4 1 6 1c14 0 28 -10 28 -25z
" />
    <glyph glyph-name="t" unicode="t" horiz-adv-x="314" 
d="M319 700c-1 -3 -9 -20 -11 -20c-28 0 -55 8 -83 8c-15 0 -30 -2 -44 -7c-4 -95 -6 -190 -6 -285c0 -82 1 -164 4 -246c1 -37 0 -77 6 -114c1 -6 4 -13 4 -19c0 -9 -30 -18 -37 -18c-11 0 -21 5 -21 18c0 39 2 77 2 116c0 78 -2 156 -2 234c0 24 1 49 1 73
c0 64 -3 129 -3 193c0 16 0 32 1 48c-8 1 -15 2 -23 2c-23 0 -45 -7 -68 -7c-17 0 -25 11 -34 23v2c0 17 15 22 31 22c59 0 118 1 176 1h56c17 0 49 -1 51 -24z" />
    <glyph glyph-name="u" unicode="u" horiz-adv-x="441" 
d="M387 503c0 -38 -2 -75 -5 -113c-7 -79 -31 -154 -54 -230c-4 -13 -7 -27 -12 -40c-11 -28 -26 -56 -44 -81c-13 -18 -42 -49 -66 -49c-12 0 -23 2 -34 6c-60 19 -70 78 -83 132c-18 76 -25 153 -25 231c0 74 5 147 8 221c1 30 2 59 4 89c1 13 5 42 16 51c4 3 11 5 16 5
c17 0 27 -18 27 -33c0 -13 -8 -24 -11 -37c-5 -26 -4 -55 -6 -82c-4 -61 -7 -123 -7 -184c0 -81 5 -161 21 -240c3 -14 5 -28 10 -41c8 -22 30 -65 57 -65c35 0 73 90 83 119c42 116 62 238 62 361c0 36 -1 73 -4 109c-11 18 -23 38 -23 60c0 18 4 33 25 33
c19 0 31 -11 35 -29c5 -19 4 -40 5 -60c3 -44 5 -89 5 -133z" />
    <glyph glyph-name="v" unicode="v" 
d="M384 697c-38 -166 -73 -332 -112 -498c-15 -63 -34 -126 -43 -191c-10 -5 -20 -7 -31 -7c-12 0 -23 2 -33 9c-48 233 -97 466 -141 700c9 12 21 15 35 15c6 0 12 -3 16 -8c15 -113 36 -224 58 -336c11 -59 23 -118 36 -177c8 -37 16 -75 27 -111h5c14 90 44 177 63 266
c25 114 52 228 61 345c6 9 15 16 26 16c15 0 28 -8 33 -23z" />
    <glyph glyph-name="w" unicode="w" horiz-adv-x="633" 
d="M601 690c-16 -143 -44 -284 -68 -425c-15 -86 -25 -172 -35 -258c-8 -5 -17 -6 -26 -6s-19 2 -26 8c-53 184 -84 373 -124 559c-48 -186 -119 -365 -150 -555c-4 -6 -12 -14 -20 -14c-41 0 -36 27 -38 58c-10 142 -27 283 -42 424l-15 141c-2 21 -6 42 -6 63
c0 14 1 41 21 41c30 0 30 -44 30 -65c0 -37 5 -73 9 -109c10 -102 24 -204 31 -306c3 -38 0 -79 9 -116c35 137 81 271 119 408c14 51 31 103 31 157c4 7 9 12 15 17h14c7 0 15 -1 21 -5c3 -5 5 -10 5 -16c0 -9 -4 -17 -4 -26c0 -12 4 -24 6 -36c4 -22 7 -44 10 -66
c15 -95 33 -189 53 -283c13 -60 27 -120 45 -178c7 59 20 118 30 177c25 141 48 283 48 426c4 10 14 20 26 20c14 0 26 -24 31 -35z" />
    <glyph glyph-name="x" unicode="x" horiz-adv-x="375" 
d="M357 9c-5 -5 -13 -8 -20 -8c-15 0 -28 16 -37 26c-19 113 -68 218 -104 326l-6 5c-25 -47 -43 -98 -60 -148s-57 -144 -57 -194c0 -6 -4 -12 -9 -15h-4c-25 0 -38 10 -38 38c0 30 122 326 143 385c-26 62 -51 123 -79 184c-11 23 -34 61 -41 83c0 1 -1 5 -1 6
c0 14 11 24 25 24c8 0 17 -4 23 -9c10 -37 26 -72 41 -108c17 -41 36 -81 53 -122c7 11 11 24 16 36l32 72c19 44 35 94 64 132c4 1 8 2 12 2c17 0 30 -14 30 -31c-23 -27 -50 -81 -65 -113c-24 -52 -42 -106 -63 -159c49 -118 91 -239 127 -361c14 -13 18 -33 18 -51z" />
    <glyph glyph-name="y" unicode="y" horiz-adv-x="329" 
d="M333 691c0 -14 -16 -35 -23 -47c-40 -71 -62 -134 -89 -210c-9 -25 -19 -50 -27 -75c-10 -32 -10 -73 -10 -107v-156c0 -30 5 -59 8 -89c-6 -4 -13 -6 -20 -6c-15 0 -34 0 -34 20c0 17 5 33 6 49c1 13 1 25 1 38c0 64 -3 129 -8 193c-16 19 -10 50 -10 73
c0 44 -52 197 -71 243c-5 12 -38 79 -38 84c0 10 7 19 16 23h5c15 0 31 -1 38 -17c11 -26 16 -57 24 -84c21 -70 45 -139 60 -211c34 45 98 228 118 290c6 6 17 17 26 17c14 0 28 -14 28 -28z" />
    <glyph glyph-name="z" unicode="z" horiz-adv-x="314" 
d="M297 700c0 -10 -4 -19 -6 -28c-69 -50 -196 -517 -204 -617c15 -17 38 -19 59 -19c12 0 24 1 36 1c24 0 44 17 68 17c16 0 28 -13 28 -29c0 -13 -10 -32 -25 -32c-7 0 -13 1 -20 2c-31 4 -61 5 -92 5c-12 0 -62 -1 -70 -7h-2c-17 0 -29 17 -37 30c3 93 48 229 77 319
c36 113 74 225 114 336c-22 4 -44 5 -66 5c-25 0 -37 -1 -61 -9c-2 -1 -4 -1 -6 -1c-16 0 -27 14 -27 29c0 20 9 24 27 24c38 0 75 -6 113 -6c12 0 23 1 35 3c6 7 14 11 23 11c17 0 36 -17 36 -34z" />
    <glyph glyph-name="braceleft" unicode="{" horiz-adv-x="263" 
d="M252 65c0 -7 -2 -11 -6 -17c-19 -29 -58 -67 -95 -67c-25 0 -50 25 -57 48c-3 11 -3 31 -3 43c0 43 7 85 7 128c0 23 -3 60 -14 80c-15 28 -58 3 -58 50c0 50 80 5 80 61c0 64 -71 141 -71 225c0 77 64 124 137 124c5 0 9 0 14 -1v-11c0 -65 -65 -12 -93 -66
c-9 -17 -13 -39 -13 -58c0 -86 77 -159 77 -219c0 -41 -36 -36 -36 -63c0 -18 14 -36 18 -54c2 -10 3 -21 3 -31c0 -44 -13 -86 -13 -130c0 -16 9 -76 31 -76c19 0 35 24 35 41c0 6 -1 11 -1 17c0 12 6 18 18 18c20 0 40 -22 40 -42z" />
    <glyph glyph-name="bar" unicode="|" horiz-adv-x="234" 
d="M159 725c-5 -65 -10 -129 -10 -194c0 -181 5 -354 5 -535c0 -53 0 -206 -27 -245c-4 0 -8 -1 -12 -1c-19 0 -40 6 -40 28c0 7 2 12 5 18c23 53 23 181 23 242c0 196 -11 384 -11 580c0 29 0 109 10 132h4c20 0 46 -3 53 -25z" />
    <glyph glyph-name="braceright" unicode="}" horiz-adv-x="263" 
d="M219 647c0 -72 -106 -152 -106 -193c0 -23 18 -44 33 -59c21 -4 64 -10 64 -39c0 -16 -37 -21 -49 -24c-14 -25 -33 -51 -33 -81c0 -48 85 -105 85 -176c0 -44 -34 -89 -80 -89c-30 0 -65 20 -77 48c-1 3 -5 13 -5 16c0 14 15 22 25 28c17 -11 -8 -34 35 -47
c4 -1 9 -2 13 -2c32 0 43 23 43 52c0 73 -88 115 -88 185c0 37 29 58 29 102c-23 21 -43 51 -43 84c0 11 3 22 8 32c7 13 17 23 27 33c26 28 78 86 78 125c0 68 -103 29 -103 61c0 7 3 15 6 21c12 7 26 9 40 9c46 0 98 -37 98 -86z" />
    <glyph glyph-name="asciitilde" unicode="~" 
d="M319 382c0 -13 -11 -25 -15 -37c-16 -12 -35 -22 -56 -22c-36 0 -62 31 -85 31c-19 0 -31 -28 -56 -28c-15 0 -25 14 -25 28c0 2 1 5 2 7c13 26 40 45 69 45c36 0 68 -25 104 -25c17 0 30 17 47 17c8 0 15 -8 15 -16z" />
    <glyph glyph-name="exclamdown" unicode="&#xa1;" horiz-adv-x="240" 
d="M153 694c0 -34 -23 -35 -48 -45c-17 5 -30 19 -38 34c5 16 20 27 29 40c5 2 11 3 17 3c19 0 40 -11 40 -32zM148 340c0 -111 -7 -222 -7 -333c-4 -5 -11 -7 -17 -7c-12 0 -24 8 -31 17c-3 24 -5 48 -5 72c0 52 6 103 10 155c3 41 5 83 5 124c0 57 -2 114 -15 169
c6 3 12 4 18 4c12 0 23 -5 32 -12c8 -63 10 -126 10 -189z" />
    <glyph glyph-name="cent" unicode="&#xa2;" 
d="M366 299l-1 -11c-41 -22 -85 -42 -130 -54c-5 -79 1 -159 -15 -237c-25 10 -32 204 -32 237c-65 14 -178 51 -178 133c0 81 109 136 175 158v5c0 26 -2 51 -2 77c0 18 1 114 24 114c33 0 33 -73 33 -95c0 -20 -2 -39 -2 -59c0 -12 0 -24 2 -36c31 -9 74 -16 91 -47
c-4 -10 -13 -20 -25 -20c-17 0 -32 12 -49 12c-6 0 -12 -2 -17 -4c-4 -29 -5 -58 -5 -87v-99c7 -1 14 -2 21 -2c37 0 73 13 110 15zM187 285v49c0 45 -2 91 -6 136c-40 -1 -119 -58 -119 -101c0 -3 0 -6 1 -9c17 -49 76 -74 124 -75z" />
    <glyph glyph-name="sterling" unicode="&#xa3;" 
d="M396 31c0 -33 -193 -32 -224 -32h-37h-73c-6 0 -12 2 -18 4c-17 5 -30 5 -30 26c0 27 38 11 55 18c49 20 50 142 50 186c0 13 0 25 -1 38c-16 -1 -31 -2 -47 -2c-17 0 -34 2 -50 7c-5 8 -9 11 -9 21c0 8 3 12 8 19c18 4 37 3 56 3c13 0 26 2 39 4c-3 82 -33 160 -33 242
c0 89 48 156 142 156c70 0 123 -60 123 -128c0 -31 -12 -64 -41 -78c-8 4 -11 13 -11 21c0 18 7 36 7 54c0 29 -17 74 -47 82c-9 2 -17 2 -26 2c-76 0 -100 -64 -100 -131c0 -46 9 -91 20 -136c7 -28 12 -55 15 -84c8 -1 20 -2 28 -2c30 0 66 5 96 5c18 0 68 2 68 -23
c0 -33 -90 -28 -117 -28c-20 0 -50 0 -70 -3c0 -69 -4 -159 -32 -224c29 -5 71 -5 100 -5h19c36 0 62 16 98 16c23 0 42 0 42 -28z" />
    <glyph glyph-name="fraction" unicode="&#x2044;" horiz-adv-x="218" 
d="M287 706c-72 -168 -153 -332 -228 -499c-31 -69 -69 -135 -94 -207h-2c-18 0 -32 14 -36 32c109 227 225 451 314 687c5 4 11 7 17 7c13 0 24 -9 29 -20z" />
    <glyph glyph-name="yen" unicode="&#xa5;" 
d="M400 303c0 -4 -1 -6 -3 -9c-41 -12 -124 -6 -183 -10v-80c0 -7 1 -15 1 -22c10 -2 22 -2 32 -2c28 0 59 3 87 3c21 0 43 4 63 -5c-7 -26 -22 -38 -71 -38c-4 0 -107 -4 -111 -4c-3 -41 1 -93 -1 -134c-6 -2 -12 -3 -18 -3c-14 0 -25 7 -33 18c2 10 2 21 2 31
c0 25 -2 61 -2 86c-36 0 -73 -2 -109 -2c-22 0 -44 7 -44 20c0 24 21 23 41 23c17 0 33 -2 50 -2c21 0 43 1 64 6v101c-27 0 -57 -1 -84 -1c-26 0 -81 -12 -81 25c0 8 12 17 19 17c16 0 33 -2 49 -2c32 0 65 3 97 6c-5 44 -40 133 -66 192c-28 63 -50 126 -78 188
c7 10 13 16 25 16c10 0 18 -4 26 -9c42 -96 75 -213 120 -305c25 60 60 143 89 201c20 39 37 75 64 109c6 3 12 4 18 4c13 0 19 -9 22 -20c-57 -116 -157 -275 -170 -373c14 -1 37 -2 51 -2c21 0 41 2 62 2c24 0 48 -3 70 -11c1 -5 2 -9 2 -14z" />
    <glyph glyph-name="florin" unicode="&#x192;" 
d="M390 701c0 -8 -4 -16 -10 -22c-93 -27 -151 -137 -176 -224c39 0 78 0 117 -1c3 -6 5 -12 5 -18c0 -13 -8 -24 -19 -30c-21 2 -43 3 -64 3c-16 0 -33 -1 -49 -3c-16 -25 -30 -85 -37 -115c-17 -75 -64 -345 -115 -385c-10 -7 -21 -12 -33 -12s-22 5 -30 14
c70 62 95 232 115 322c28 128 54 261 124 373c25 40 99 122 148 123c10 -4 24 -14 24 -25z" />
    <glyph glyph-name="section" unicode="&#xa7;" horiz-adv-x="379" 
d="M335 661c0 -31 -16 -57 -37 -78c2 8 2 15 2 23c0 32 -18 71 -55 71c-70 0 -91 -72 -91 -130c0 -133 170 -148 170 -238c-15 -34 -65 -74 -102 -79c42 -32 89 -49 89 -111c0 -57 -75 -119 -130 -119c-14 0 -53 17 -53 34c0 2 1 4 3 5c7 -4 15 -6 23 -6c41 0 101 53 101 95
c0 72 -146 78 -184 141c-10 17 -14 37 -14 57c0 48 23 110 64 138c-11 30 -17 61 -17 93c0 80 52 168 140 168c32 0 91 -26 91 -64zM265 316c-11 49 -89 69 -122 104c-25 -19 -38 -52 -38 -83c0 -40 23 -75 66 -75c33 0 82 21 94 54z" />
    <glyph glyph-name="currency" unicode="&#xa4;" horiz-adv-x="360" 
d="M408 575c-6 -27 -78 -91 -100 -113c11 -26 20 -53 20 -81c0 -31 -12 -60 -27 -86c14 -30 83 -115 83 -139c0 -8 -11 -13 -18 -13c-30 0 -75 88 -101 108c-21 -11 -52 -19 -76 -19c-27 0 -54 8 -78 20c-14 -9 -26 -21 -36 -33c-12 -15 -48 -72 -66 -72
c-14 0 -21 19 -21 31c0 42 53 81 77 113c-11 23 -25 60 -25 86c0 19 5 42 12 60c-7 43 -82 93 -82 135c0 22 26 20 41 20c28 -35 49 -76 77 -111c30 21 67 31 103 31c27 0 60 -8 83 -22c20 28 40 52 64 77c12 13 24 24 43 24c11 0 22 -6 27 -16zM283 381c0 52 -41 78 -89 78
c-11 0 -23 0 -34 -3c-39 -9 -69 -53 -69 -92c0 -54 42 -84 93 -84c55 0 99 47 99 101z" />
    <glyph glyph-name="quotesingle" unicode="'" horiz-adv-x="141" 
d="M99 664c0 -39 -5 -78 -12 -116c-3 -2 -7 -4 -11 -4s-8 1 -11 3c1 56 -26 107 -31 162v1c0 10 17 22 26 22c16 0 27 -4 36 -17c2 -17 3 -34 3 -51z" />
    <glyph glyph-name="quotedblleft" unicode="&#x201c;" horiz-adv-x="250" 
d="M222 580c-1 -16 -34 -25 -47 -25c-3 0 -7 0 -10 1c-17 17 -23 40 -23 64c0 36 15 77 34 108c3 2 6 2 9 2c5 0 15 -2 18 -6c-4 -19 -7 -38 -7 -57c0 -32 11 -59 26 -87zM113 568c-6 -13 -35 -21 -48 -21c-5 0 -11 1 -16 3c-13 20 -17 46 -17 69c0 30 12 90 36 110
c5 4 13 6 19 6c7 0 14 -2 18 -7c-14 -17 -19 -39 -19 -61c0 -35 13 -68 27 -99z" />
    <glyph glyph-name="guillemotleft" unicode="&#xab;" horiz-adv-x="342" 
d="M327 273c0 -12 -10 -24 -22 -24c-26 0 -164 78 -164 102c0 33 121 84 143 117h3c20 0 33 -15 33 -34c0 -3 0 -5 -1 -8c-33 -14 -93 -49 -118 -74c23 -20 85 -56 114 -59c6 -5 12 -12 12 -20zM232 243c0 -19 -17 -31 -35 -31c-26 16 -177 116 -177 138
c0 40 145 123 182 137c12 -2 24 -9 24 -23c0 -5 -2 -10 -4 -15c-44 -21 -111 -60 -143 -96c39 -45 97 -72 149 -98c2 -3 4 -8 4 -12z" />
    <glyph glyph-name="guilsinglleft" unicode="&#x2039;" horiz-adv-x="245" 
d="M227 254c-2 -14 -11 -36 -28 -36c-29 0 -187 105 -187 133c0 4 1 7 3 11c10 17 144 118 169 133h3c19 0 38 -5 38 -28c0 -14 -24 -21 -34 -26c-35 -16 -96 -61 -119 -91c28 -27 118 -82 155 -96z" />
    <glyph glyph-name="guilsinglright" unicode="&#x203a;" horiz-adv-x="245" 
d="M228 346c0 -6 -3 -12 -7 -17c-47 -18 -85 -53 -123 -85c-11 -9 -38 -33 -51 -33s-20 10 -24 21c14 30 107 97 138 120v2c-40 41 -92 67 -140 97c-2 6 -3 13 -3 19c0 9 5 21 16 21c29 0 125 -81 154 -102c14 -10 40 -24 40 -43z" />
    <glyph glyph-name="endash" unicode="&#x2013;" horiz-adv-x="608" 
d="M590 352c0 -10 -2 -20 -8 -29c-56 10 -114 11 -171 11c-45 0 -91 -1 -136 -3c-51 -2 -101 -11 -152 -11c-33 0 -83 1 -103 32c-1 5 -1 9 -1 14c0 10 3 15 14 15c14 0 26 -6 39 -9c19 -4 38 -4 57 -4c138 0 275 12 413 12c21 0 48 0 48 -28z" />
    <glyph glyph-name="dagger" unicode="&#x2020;" horiz-adv-x="431" 
d="M431 479c0 -8 -3 -16 -8 -22c-62 -2 -124 -3 -186 -4c-3 -74 -5 -147 -5 -221c0 -41 0 -183 19 -211c-7 -13 -19 -21 -34 -21c-12 0 -25 5 -35 11v10c0 144 5 287 6 431h-93c-28 0 -57 0 -86 5c-5 6 -8 14 -8 22c0 10 5 20 13 27c37 -14 132 -14 175 -14v38
c0 59 1 119 -1 179c6 11 18 15 30 15s24 -4 31 -14c-4 -72 -7 -145 -10 -217c60 1 120 3 179 9c9 -4 13 -13 13 -23z" />
    <glyph glyph-name="daggerdbl" unicode="&#x2021;" horiz-adv-x="431" 
d="M433 234c0 -11 -3 -22 -9 -31c-43 6 -87 8 -130 8c-19 0 -38 0 -57 -1c0 -35 0 -165 16 -189c-7 -13 -19 -21 -34 -21c-12 0 -24 5 -35 11v13c0 61 2 123 3 184c-54 -3 -107 -8 -161 -8c-6 0 -11 0 -16 2c-5 8 -8 18 -8 28s4 20 11 28c41 -3 81 -5 122 -5c18 0 35 1 53 1
c1 66 1 132 2 198h-93c-29 0 -58 0 -86 5c-5 6 -8 14 -8 22c0 10 5 20 13 27c37 -14 133 -14 175 -14v38c0 59 1 119 -1 179c6 11 18 15 30 15s24 -4 31 -14c-4 -72 -7 -145 -10 -217c60 1 120 3 179 9c9 -4 13 -14 13 -23c0 -8 -3 -16 -8 -22c-62 -2 -124 -3 -186 -4
c-2 -66 -4 -132 -4 -198c28 -2 55 -2 83 -2c36 0 71 1 107 2c6 -5 8 -13 8 -21z" />
    <glyph glyph-name="periodcentered" unicode="&#xb7;" horiz-adv-x="170" 
d="M128 341c0 -18 -12 -26 -29 -26c-26 0 -53 12 -53 42c0 17 13 36 32 36c30 0 50 -23 50 -52z" />
    <glyph glyph-name="paragraph" unicode="&#xb6;" horiz-adv-x="465" 
d="M425 700c0 -9 -1 -17 -5 -26c-12 3 -24 5 -37 5c0 -71 1 -143 1 -214c0 -115 -2 -229 -6 -344c-2 -40 -2 -80 -7 -119h-11c-14 0 -35 5 -35 23c0 12 3 26 4 38c2 26 4 51 6 76c5 80 7 160 7 240c0 101 -5 201 -6 302c-24 2 -49 3 -73 3c-25 0 -49 -1 -73 -3
c-5 -68 -7 -136 -7 -204c0 -150 6 -309 16 -459c-4 -9 -14 -11 -23 -11s-18 2 -25 7c-1 1 -2 20 -2 21c-4 63 -5 125 -7 188c-2 90 -4 181 -4 271c-5 -1 -10 -1 -15 -1c-47 0 -83 27 -103 68c-6 12 -10 25 -10 39c0 81 62 122 137 124c28 1 56 1 84 1c53 0 106 -1 159 -1
c17 0 35 -3 35 -24z" />
    <glyph glyph-name="bullet" unicode="&#x2022;" horiz-adv-x="331" 
d="M290 364c0 -52 -54 -110 -107 -110c-82 0 -141 43 -141 129c0 53 40 109 96 109c83 0 152 -36 152 -128z" />
    <glyph glyph-name="quotesinglbase" unicode="&#x201a;" horiz-adv-x="145" 
d="M107 59c8 -17 10 -36 10 -54c0 -25 -13 -106 -34 -122c-4 -3 -10 -5 -16 -5c-7 0 -14 3 -18 9c8 19 13 40 13 61c0 32 -12 62 -27 89c4 19 36 27 53 27c6 0 14 -1 19 -5z" />
    <glyph glyph-name="quotedblbase" unicode="&#x201e;" horiz-adv-x="250" 
d="M207 59c8 -17 10 -36 10 -54c0 -25 -13 -106 -34 -122c-4 -3 -10 -5 -16 -5c-7 0 -14 3 -18 9c8 19 13 40 13 61c0 32 -12 62 -27 89c4 19 36 27 53 27c6 0 14 -1 19 -5zM91 53c14 -16 20 -38 20 -59c0 -38 -16 -79 -35 -110c-3 -1 -7 -2 -10 -2c-6 0 -12 2 -17 6
c4 22 9 45 9 68c0 32 -13 46 -28 73c3 19 28 27 45 27c5 0 11 -1 16 -3z" />
    <glyph glyph-name="quotedblright" unicode="&#x201d;" horiz-adv-x="250" 
d="M208 725c7 -16 10 -34 10 -52c0 -32 -15 -94 -36 -118c-3 -4 -9 -5 -14 -5c-4 0 -10 1 -12 6c7 23 10 51 10 76c0 23 -3 62 -25 76c4 18 24 24 40 24c8 0 21 -1 27 -7zM94 730c14 -23 20 -49 20 -75c0 -36 -12 -72 -29 -104c-3 -2 -7 -2 -11 -2s-11 0 -14 4
c4 16 7 32 7 48c0 39 -16 73 -34 107c4 18 22 27 39 27c8 0 15 -1 22 -5z" />
    <glyph glyph-name="guillemotright" unicode="&#xbb;" horiz-adv-x="342" 
d="M333 356c0 -20 -27 -33 -41 -43c-38 -26 -114 -85 -152 -100c-12 3 -19 13 -19 25c0 6 2 11 5 16c50 31 107 55 146 101c-14 16 -33 27 -50 39l-103 71c-1 2 -1 4 -1 6c0 16 14 25 29 25h4c27 -18 165 -109 176 -124c4 -5 6 -9 6 -16zM206 356c0 -18 -146 -109 -170 -117
c-10 5 -21 14 -21 26c0 7 4 14 8 20c23 4 101 52 119 70c-30 25 -85 58 -121 72c-2 3 -2 7 -2 10c0 16 14 30 30 30c3 0 5 0 8 -1c21 -16 149 -94 149 -110z" />
    <glyph glyph-name="ellipsis" unicode="&#x2026;" horiz-adv-x="513" 
d="M463 37c0 -17 -11 -32 -23 -44c-23 7 -54 15 -54 45c0 15 23 43 39 43c20 0 38 -26 38 -44zM300 25c0 -10 -4 -20 -10 -27h-9c-24 0 -71 26 -71 54c0 17 12 30 29 30c35 0 61 -20 61 -57zM125 24c0 -12 -7 -27 -21 -27c-9 0 -18 5 -27 5c-11 8 -27 17 -27 33
c0 15 11 27 24 33c5 0 9 1 14 1c28 0 37 -20 37 -45z" />
    <glyph glyph-name="perthousand" unicode="&#x2030;" horiz-adv-x="891" 
d="M841 224c0 -45 -54 -78 -88 -98h-2c-51 0 -100 22 -100 80c0 68 51 101 115 101c39 0 75 -46 75 -83zM795 235c0 23 -36 35 -54 39c-25 -22 -37 -44 -37 -78c0 -12 9 -23 20 -27c31 5 71 31 71 66zM617 236c0 -50 -77 -113 -125 -113c-52 0 -66 56 -66 98
c0 28 12 110 49 110c48 0 90 -52 134 -68c6 -8 8 -17 8 -27zM555 236c-16 21 -37 39 -63 46c-13 -15 -17 -36 -17 -55c0 -20 6 -50 32 -49c24 12 48 28 48 58zM497 698c-65 -175 -149 -343 -216 -517c-21 -54 -49 -119 -54 -177c-5 -3 -11 -5 -17 -5c-16 0 -47 9 -47 30
c0 6 4 11 7 16c50 94 90 195 131 293c54 127 107 254 154 384h1c17 0 35 -6 41 -24zM254 533c0 -32 -46 -116 -78 -126c-7 -2 -15 -3 -22 -3c-49 0 -94 45 -94 94c0 52 40 93 92 93c27 0 102 -25 102 -58zM206 530c-8 15 -24 26 -41 26h-11c-30 0 -47 -39 -47 -65
c0 -14 5 -27 16 -36c8 -3 17 -4 25 -4c37 0 45 53 58 79z" />
    <glyph glyph-name="questiondown" unicode="&#xbf;" horiz-adv-x="375" 
d="M254 680c0 -18 -20 -29 -36 -29c-24 0 -40 23 -40 45c0 18 6 29 25 29c24 0 51 -19 51 -45zM368 56c0 -26 -14 -30 -35 -37c-34 -10 -69 -19 -105 -19c-64 0 -132 20 -179 65c-21 20 -37 46 -37 75c0 116 196 193 196 296c0 32 -27 49 -27 67c0 13 12 30 26 30
c37 0 56 -53 56 -84c0 -121 -198 -221 -198 -314c0 -37 50 -68 81 -78c28 -9 58 -11 87 -11c25 0 53 8 76 18c12 5 25 13 39 13c11 0 20 -10 20 -21z" />
    <glyph glyph-name="grave" unicode="`" horiz-adv-x="196" 
d="M59 911c2 1 4 1 7 1c4 0 8 -1 12 -3c14 -16 85 -91 87 -104v-3c0 -7 -6 -9 -11 -12c-50 22 -79 37 -121 73l-1 2c-1 4 -2 7 -2 11c0 16 11 32 29 35z" />
    <glyph glyph-name="acute" unicode="&#xb4;" horiz-adv-x="196" 
d="M185 874c0 -6 -2 -13 -6 -18c-18 -11 -105 -67 -118 -67c-9 0 -10 7 -13 14c31 45 51 71 94 106h6c19 0 37 -14 37 -35z" />
    <glyph glyph-name="circumflex" unicode="&#x2c6;" horiz-adv-x="320" 
d="M270 808c-3 -15 -17 -28 -28 -28c-2 0 -65 51 -76 56c-23 -14 -55 -41 -80 -53c-6 1 -21 11 -21 28c0 3 0 5 1 8c23 22 68 47 96 63v1c39 -16 78 -45 108 -75z" />
    <glyph glyph-name="tilde" unicode="&#x2dc;" horiz-adv-x="320" 
d="M257 844c0 -28 -32 -54 -59 -54c-29 0 -51 26 -70 26c-15 0 -25 -26 -46 -26c-12 0 -20 8 -20 20c0 29 30 54 58 54c30 0 53 -25 83 -25c16 0 25 18 41 18c7 0 13 -6 13 -13z" />
    <glyph glyph-name="macron" unicode="&#xaf;" horiz-adv-x="308" 
d="M278 816c0 -8 -3 -15 -8 -21c-39 -1 -78 -3 -117 -3h-41c-25 0 -50 1 -74 5c-5 6 -8 13 -8 21c0 10 5 23 13 30c30 -14 80 -15 113 -15c37 0 72 5 109 9c9 -4 13 -17 13 -26z" />
    <glyph glyph-name="breve" unicode="&#x2d8;" horiz-adv-x="320" 
d="M269 863c0 -3 0 -5 -1 -8c-24 -24 -59 -64 -96 -63v-1c-58 0 -75 40 -108 75c1 18 24 28 39 28c1 0 7 -12 8 -14c13 -21 31 -43 58 -43c37 0 49 30 69 54c14 -3 31 -11 31 -28z" />
    <glyph glyph-name="dotaccent" unicode="&#x2d9;" horiz-adv-x="320" 
d="M200 830c0 -26 -30 -47 -54 -47c-15 0 -24 19 -24 32c0 21 14 43 34 51c19 -4 44 -13 44 -36z" />
    <glyph glyph-name="dieresis" unicode="&#xa8;" horiz-adv-x="321" 
d="M279 830c0 -17 -12 -30 -23 -41c-23 7 -55 11 -55 42c0 16 23 44 39 44c20 0 39 -26 39 -45zM124 828c0 -26 -30 -35 -51 -36c-13 9 -31 19 -31 37c0 17 12 31 27 38c23 0 55 -12 55 -39z" />
    <glyph glyph-name="ring" unicode="&#x2da;" horiz-adv-x="320" 
d="M239 858c0 -38 -45 -59 -73 -75h-2c-44 0 -85 24 -85 72c0 51 45 82 93 82c36 0 67 -46 67 -79zM200 867c0 23 -25 32 -44 36c-20 -8 -34 -30 -34 -51c0 -13 9 -32 24 -32c24 0 54 21 54 47z" />
    <glyph glyph-name="cedilla" unicode="&#xb8;" horiz-adv-x="175" 
d="M142 -146c0 -32 -30 -78 -65 -78c-30 0 -46 30 -46 57c4 10 12 21 24 21s21 -11 21 -23c0 -2 0 -5 -1 -7c-2 0 -7 0 -7 -3s5 -7 7 -9c20 5 31 24 31 44c0 39 -52 50 -71 80v2c0 14 59 33 68 62h38c-6 -32 -33 -49 -59 -64c11 -8 23 -13 33 -22c17 -15 27 -37 27 -60z" />
    <glyph glyph-name="hungarumlaut" unicode="&#x2dd;" horiz-adv-x="297" 
d="M272 897c-30 -36 -59 -74 -83 -116c-3 -1 -6 -2 -9 -2c-9 0 -14 8 -17 17c14 50 40 93 66 135c3 1 6 1 9 1c14 0 35 -8 35 -28c0 -2 0 -5 -1 -7zM159 903c-30 -36 -60 -74 -84 -116c-2 -1 -5 -2 -8 -2c-9 0 -15 8 -18 17c14 50 40 93 66 135c3 1 6 1 9 1
c14 0 35 -8 35 -28v-7z" />
    <glyph glyph-name="ogonek" unicode="&#x2db;" horiz-adv-x="320" 
d="M212 -113c0 -27 -16 -57 -46 -57c-35 0 -65 46 -65 78c0 43 34 69 65 92h43c-25 -17 -72 -58 -72 -90c0 -20 11 -39 31 -44c2 2 7 6 7 9s-5 3 -7 3c-1 2 -1 5 -1 7c0 12 9 23 21 23s20 -11 24 -21z" />
    <glyph glyph-name="caron" unicode="&#x2c7;" horiz-adv-x="320" 
d="M269 861c0 -3 0 -5 -1 -8c-23 -22 -68 -47 -96 -63v-1c-39 16 -78 45 -108 75c1 18 16 28 27 28c2 0 66 -50 77 -55c23 14 54 40 79 52c13 -6 22 -11 22 -28z" />
    <glyph glyph-name="emdash" unicode="&#x2014;" horiz-adv-x="859" 
d="M841 353c0 -14 -7 -28 -21 -33c-33 8 -67 9 -101 10c-55 2 -110 3 -165 3c-94 0 -188 -1 -282 -7c-48 -3 -95 -6 -143 -6c-29 0 -107 0 -107 42c0 3 1 6 1 9c8 8 20 12 31 12c22 0 42 -10 64 -10c20 0 41 1 61 1c150 0 300 -3 450 -3c59 0 120 0 177 18c3 1 5 2 8 2
c19 0 27 -23 27 -38z" />
    <glyph glyph-name="AE" unicode="&#xc6;" horiz-adv-x="899" 
d="M877 54c0 -8 -6 -15 -10 -21c-88 -12 -175 -33 -265 -33c-25 0 -48 4 -60 29c4 11 5 22 15 29c-8 49 -13 100 -17 151c-27 1 -83 2 -135 2c-32 0 -63 0 -84 -1c-29 -1 -80 -1 -115 -1c-25 -4 -125 -160 -145 -195c-6 -10 -10 -15 -19 -15c-3 0 -6 0 -9 1
c-13 4 -30 14 -30 29c0 2 1 3 1 5c6 23 452 581 506 654c9 13 18 22 32 26c1 0 20 6 30 6c45 2 88 5 133 5c19 0 120 -6 120 -30c0 -11 -11 -21 -22 -21c-6 0 -12 2 -18 4c-30 9 -62 10 -93 10c-28 0 -103 0 -109 -36c-2 -10 -2 -21 -2 -32v-21c0 -46 2 -92 2 -138
c0 -18 0 -36 -1 -54c23 -11 45 -12 70 -12c33 0 67 3 100 3h12c21 0 51 -2 51 -22c0 -17 -18 -20 -31 -20c-33 0 -67 3 -100 3c-20 0 -88 0 -102 -10c4 -91 0 -186 21 -275c8 -32 23 -32 52 -32c41 0 81 6 121 16l53 14c12 0 48 -1 48 -18zM243 252c7 -3 39 -4 82 -4
c65 0 153 2 212 5v12c-3 55 -4 113 -4 171c0 67 1 133 1 197v6c-103 -117 -212 -250 -298 -371l-2 -13z" />
    <glyph glyph-name="ordfeminine" unicode="&#xaa;" horiz-adv-x="226" 
d="M180 640c0 -39 -9 -117 -28 -150c-13 1 -26 3 -37 11c2 5 6 13 6 18s-19 10 -23 11c-39 14 -65 45 -65 87c0 55 41 102 92 120c-18 30 -26 43 -54 64c-6 4 -13 10 -13 18c0 11 15 19 25 19c2 0 4 -1 6 -2c67 -30 91 -130 91 -196zM140 642v15c0 14 -1 28 -5 42
c-33 -15 -63 -37 -63 -77c0 -38 20 -57 56 -64c10 22 12 60 12 84z" />
    <glyph glyph-name="Lslash" unicode="&#x141;" horiz-adv-x="424" 
d="M427 54c0 -3 -1 -6 -1 -9c-31 -23 -238 -46 -285 -46c-14 0 -32 20 -35 33c-4 17 -6 70 -8 91c-5 74 -9 148 -11 222c-16 -14 -31 -28 -47 -41c-13 2 -22 6 -22 21c0 3 0 7 1 10c23 17 45 35 67 54v47c-1 86 1 200 25 282c7 4 16 7 24 7c9 0 18 -6 23 -13
c-18 -94 -25 -190 -26 -286c26 24 53 49 80 73c2 1 4 1 6 1c12 0 23 -10 23 -22c0 -2 0 -4 -1 -6c-38 -28 -74 -57 -109 -88v-23c0 -96 4 -193 24 -287c11 -8 24 -13 36 -20c11 -2 22 -3 33 -3c50 0 99 15 148 24c10 2 21 4 31 4c18 0 24 -8 24 -25z" />
    <glyph glyph-name="Oslash" unicode="&#xd8;" horiz-adv-x="829" 
d="M793 355c0 -210 -146 -365 -358 -365c-101 0 -204 32 -281 98c-30 -29 -60 -58 -89 -88c-16 1 -29 19 -29 34c0 2 1 8 2 10c19 23 58 58 81 79c-53 61 -80 137 -80 218c0 222 154 393 380 393c92 0 180 -30 249 -91l42 48c8 9 16 20 24 28c2 2 9 4 12 4
c16 0 27 -18 30 -31c-24 -28 -49 -56 -74 -83c61 -71 91 -161 91 -254zM635 608c-60 55 -137 88 -219 88c-145 0 -265 -104 -309 -239c-12 -38 -17 -76 -17 -116c0 -68 23 -132 66 -184c162 148 328 291 479 451zM750 353c0 81 -31 159 -82 221
c-153 -158 -318 -303 -478 -453c64 -58 150 -90 236 -90c178 0 324 143 324 322z" />
    <glyph glyph-name="OE" unicode="&#x152;" horiz-adv-x="1118" 
d="M1096 54c0 -7 -6 -15 -10 -21c-88 -12 -175 -33 -265 -33c-25 0 -48 4 -60 29c4 11 5 22 15 29c-7 45 -12 90 -15 135c-58 -132 -184 -203 -326 -203c-206 0 -396 131 -396 351c0 222 154 393 380 393c138 0 262 -68 328 -190v78c0 21 -2 47 3 67c5 23 19 21 38 29
c45 2 90 7 135 7c19 0 121 -6 121 -30c0 -12 -12 -21 -23 -21c-6 0 -12 2 -18 4c-30 8 -62 10 -93 10c-28 0 -103 0 -109 -36c-3 -17 -2 -36 -2 -53c0 -46 2 -92 2 -138c0 -18 0 -36 -1 -54c23 -11 46 -12 71 -12c33 0 67 3 100 3c16 0 63 3 63 -22c0 -17 -19 -20 -32 -20
c-33 0 -67 3 -100 3c-21 0 -87 0 -102 -10c4 -84 0 -195 21 -275c8 -32 24 -32 53 -32c41 0 81 7 121 16c5 1 53 14 53 14c12 0 48 -1 48 -18zM750 353c0 181 -150 343 -334 343c-145 0 -265 -104 -309 -239c-12 -38 -17 -76 -17 -116c0 -181 163 -310 336 -310
c178 0 324 143 324 322z" />
    <glyph glyph-name="ordmasculine" unicode="&#xba;" horiz-adv-x="311" 
d="M285 619c0 -94 -70 -137 -157 -137c-51 0 -99 62 -99 110c0 61 63 119 119 133h2c69 0 135 -27 135 -106zM243 609c0 47 -38 79 -83 79c-15 0 -18 -3 -30 -11c-32 -20 -54 -46 -54 -86c0 -44 25 -69 69 -69c49 0 98 34 98 87z" />
    <glyph glyph-name="ae" unicode="&#xe6;" horiz-adv-x="484" 
d="M236 719c24 4 42 6 42 6h42c16 0 133 0 138 -13c1 -4 2 -8 2 -12c0 -11 -10 -19 -18 -25c-31 2 -61 12 -92 12c-9 0 -23 0 -32 -4c-27 -11 -21 -225 -23 -263c30 -4 62 1 91 -10c-1 -16 -5 -29 -19 -38c-11 2 -22 3 -33 3c-12 0 -24 -2 -36 -6c-4 -20 -5 -41 -5 -61
c0 -36 0 -243 28 -254c4 -2 9 -2 14 -2c32 0 58 24 87 24c12 0 22 -7 29 -16v-3c0 -13 -5 -19 -16 -26c-30 -1 -59 -7 -88 -16c-21 -7 -44 -15 -67 -15c-25 0 -27 23 -27 44c0 15 2 30 2 45v90v45c-49 0 -100 -1 -147 -15c-25 -65 -41 -133 -56 -201c-6 -6 -14 -10 -23 -10
s-17 4 -24 9c67 240 128 485 231 712zM256 545c0 35 2 74 -6 109c-57 -128 -96 -263 -130 -399c45 0 90 3 135 9v23c0 86 1 172 1 258z" />
    <glyph glyph-name="dotlessi" unicode="&#x131;" horiz-adv-x="199" 
d="M128 705c0 -16 -1 -31 -2 -47c-5 -120 -7 -241 -7 -361c0 -63 1 -125 3 -188c1 -28 5 -57 5 -85c0 -12 -6 -26 -20 -26c-10 0 -20 5 -29 10l-6 13c6 140 8 281 8 422v78c0 41 0 81 -3 122c-1 20 -5 39 -5 59c0 15 16 23 29 23c11 0 27 -7 27 -20z" />
    <glyph glyph-name="lslash" unicode="&#x142;" horiz-adv-x="291" 
d="M291 25c0 -12 -10 -17 -20 -20c-18 -5 -55 -2 -76 -4c-16 -1 -32 -3 -48 -5c-7 -1 -14 -3 -21 -3c-21 0 -37 22 -39 41l5 17c-8 88 -11 176 -10 264c-14 -18 -29 -36 -44 -54c-20 0 -26 8 -26 28c25 25 49 51 71 78c1 47 8 337 38 358c16 -2 28 0 34 -18
c-14 -93 -23 -188 -27 -282l45 59c3 1 7 2 11 2c15 0 22 -12 22 -25c-28 -29 -55 -59 -80 -91c-2 -49 -2 -97 -2 -146c0 -37 0 -122 12 -155c5 -14 11 -22 26 -26c8 -2 26 -2 34 -2c21 0 42 0 58 17h3c14 0 34 -18 34 -33z" />
    <glyph glyph-name="oslash" unicode="&#xf8;" horiz-adv-x="356" 
d="M319 710c-18 -52 -37 -104 -56 -155c20 -69 33 -140 33 -212c0 -79 -18 -132 -42 -206c-9 -26 -17 -53 -28 -78c-8 -18 -18 -35 -18 -55c-11 -5 -24 -15 -37 -15c-37 0 -59 88 -68 117c-11 -35 -21 -70 -30 -105c-4 0 -7 -1 -11 -1c-14 0 -26 5 -31 20
c16 54 33 107 52 160c-12 54 -18 109 -18 164c0 109 24 249 81 342c-5 3 -9 8 -9 14c0 15 12 35 29 35c34 0 66 -87 76 -115c11 32 20 64 30 96c5 5 13 8 20 8c11 0 21 -5 27 -14zM221 557c-10 31 -23 61 -38 90h-6c-45 -85 -69 -182 -69 -279c0 -33 2 -67 7 -100
c35 96 72 192 106 289zM254 344c0 49 -5 98 -15 146c-37 -100 -75 -199 -109 -300c6 -27 15 -70 24 -95c5 -12 11 -27 23 -34c43 92 77 179 77 283z" />
    <glyph glyph-name="oe" unicode="&#x153;" horiz-adv-x="486" 
d="M462 700c0 -11 -10 -19 -18 -25c-31 2 -61 12 -92 12c-9 0 -23 0 -32 -4c-27 -11 -21 -225 -23 -263c30 -4 62 1 91 -10c-1 -16 -5 -29 -19 -38c-11 2 -22 3 -33 3c-12 0 -24 -2 -36 -6c-4 -20 -5 -40 -5 -61c0 -36 0 -243 28 -254c4 -2 9 -2 14 -2c32 0 58 24 87 24
c12 0 22 -7 29 -16v-3c0 -13 -6 -19 -16 -26c-30 -1 -59 -7 -88 -16c-21 -7 -42 -16 -65 -16c-14 6 -23 19 -26 33c3 17 5 34 5 51c0 23 -2 47 -4 70c-10 -32 -20 -64 -33 -94c-6 -13 -14 -27 -17 -41c-1 -5 -1 -9 -1 -14c-12 -5 -24 -15 -37 -15c-29 0 -43 44 -51 66
c-34 94 -55 189 -55 289c0 109 24 249 81 342c-5 3 -9 8 -9 14c0 15 12 35 29 35c42 0 80 -126 91 -161c2 44 4 87 7 131l6 -1c-1 2 -1 4 -1 6c0 5 5 15 11 15h41c17 0 134 0 139 -13c1 -4 2 -8 2 -12zM254 344c0 104 -22 211 -71 303h-6c-45 -85 -69 -182 -69 -279
c0 -71 12 -141 29 -210c5 -20 10 -43 17 -63c4 -12 11 -28 23 -34c43 92 77 179 77 283z" />
    <glyph glyph-name="germandbls" unicode="&#xdf;" horiz-adv-x="508" 
d="M468 702c0 -7 -1 -14 -3 -20c-73 -30 -135 -106 -135 -187c0 -119 137 -211 137 -318c0 -61 -43 -178 -117 -178c-23 0 -30 16 -30 37c0 7 2 18 12 18c5 0 10 -2 14 -5c51 7 78 86 78 131c0 74 -137 187 -137 320c0 89 73 182 147 226c2 1 4 1 6 1c14 0 28 -10 28 -25z
M223 702c0 -7 -1 -14 -3 -20c-73 -30 -135 -106 -135 -187c0 -119 137 -211 137 -318c0 -61 -43 -178 -117 -178c-23 0 -30 16 -30 37c0 7 2 18 12 18c5 0 10 -2 14 -5c51 7 78 86 78 131c0 74 -137 187 -137 320c0 89 73 182 147 226c2 1 4 1 6 1c14 0 28 -10 28 -25z" />
    <glyph glyph-name="onesuperior" unicode="&#xb9;" horiz-adv-x="209" 
d="M154 812c0 -18 -7 -35 -9 -53c-4 -35 -4 -71 -4 -107c0 -48 1 -95 3 -143c-4 -2 -8 -4 -12 -4c-15 0 -32 11 -40 23c9 45 10 91 10 137c0 17 -1 101 -6 111c-3 6 -8 11 -15 11c-9 0 -19 -5 -27 -8c-7 0 -17 2 -17 11c0 3 1 6 2 8c7 15 75 38 92 38c16 0 23 -9 23 -24z
" />
    <glyph glyph-name="logicalnot" unicode="&#xac;" 
d="M351 303c-6 -8 -17 -11 -27 -11c-9 0 -18 3 -24 10v21c0 21 1 42 1 63c0 6 1 7 1 10c-57 0 -126 -8 -183 -8c-17 0 -36 0 -52 4c-7 5 -10 14 -10 22c0 10 5 19 12 25c23 -4 47 -5 71 -5c54 0 109 5 164 5c12 0 25 0 37 -2c5 -6 8 -14 8 -22c0 -18 -1 -29 -1 -47
c0 -21 2 -43 3 -65z" />
    <glyph glyph-name="mu" unicode="&#xb5;" horiz-adv-x="465" 
d="M390 444c-4 -151 -17 -302 -12 -453c-5 -2 -11 -4 -17 -4c-14 0 -26 3 -35 14c1 16 2 33 3 49c-25 -29 -60 -53 -100 -53h-10v0c-39 5 -68 20 -93 50c0 -71 2 -142 10 -213c1 -9 1 -18 4 -27c4 -14 17 -42 31 -48c-4 -28 -28 -35 -52 -35c-4 0 -8 0 -12 1
c-24 28 -24 259 -24 306c0 114 1 227 1 341c0 25 0 51 -1 76c6 11 18 15 30 15s24 -4 31 -14c-4 -67 -9 -133 -13 -200c-1 -32 -4 -65 -4 -97c0 -29 22 -69 45 -88c18 -14 35 -21 58 -21c62 0 102 63 106 119c5 62 6 126 6 188c0 36 -1 72 -5 107c5 1 10 2 15 2
c14 0 30 -3 38 -15z" />
    <glyph glyph-name="trademark" unicode="&#x2122;" horiz-adv-x="523" 
d="M482 433c-5 -12 -7 -29 -21 -29c-18 0 -21 15 -24 29c-10 56 -17 139 -24 196c-14 -46 -60 -204 -76 -242c-5 -3 -9 -5 -15 -5c-17 0 -16 13 -19 27c-12 55 -31 143 -43 198c-6 -53 -16 -138 -16 -191c0 -13 -8 -24 -20 -24c-10 0 -15 5 -22 12c5 70 16 139 23 208
c1 12 5 80 7 84c5 11 10 16 22 16c9 0 18 -3 27 -5c7 -67 30 -158 47 -231c12 34 69 215 79 236c3 7 9 7 17 7c7 0 12 -2 18 -4c11 -86 9 -191 40 -282zM191 694c0 -10 -5 -13 -12 -20c-11 3 -27 3 -39 3c-5 0 -9 0 -14 -1c-3 -42 -4 -87 -4 -129c0 -50 2 -101 8 -151
c-9 -4 -14 -7 -24 -7c-9 0 -21 7 -21 17c0 54 2 108 2 162c0 34 -1 73 -3 107c-12 2 -28 1 -40 1c-4 0 -9 1 -13 1c-4 7 -9 10 -9 18s5 16 11 21c51 -7 104 -2 155 -4c1 -6 3 -12 3 -18z" />
    <glyph glyph-name="Eth" unicode="&#xd0;" horiz-adv-x="610" 
d="M573 364c0 -162 -165 -289 -304 -339c-35 -12 -112 -26 -149 -26c-18 0 -35 7 -35 28c0 19 2 39 3 58c1 24 1 47 1 71c0 61 -3 121 -5 182c-33 1 -68 -3 -99 10c-5 7 -9 15 -9 23c0 11 9 16 16 22c26 -6 50 -5 76 -6h14c-3 64 -5 127 -5 191c0 31 1 62 1 93
c0 29 16 64 50 64c15 0 38 -11 51 -19c8 1 17 1 25 1c105 0 202 -67 274 -138c54 -53 95 -139 95 -215zM524 372c0 96 -60 174 -132 231c-49 39 -113 78 -177 78c-14 0 -57 -6 -66 -17c-27 -32 -25 -175 -25 -221c0 -18 0 -36 1 -54c38 1 75 3 113 3c17 0 35 -2 35 -24
c0 -8 -5 -17 -11 -22c-45 -7 -91 -8 -137 -8c3 -91 7 -181 10 -272c7 -11 17 -18 30 -18c158 0 359 158 359 324z" />
    <glyph glyph-name="onehalf" unicode="&#xbd;" horiz-adv-x="563" 
d="M177 700c0 -18 -7 -35 -9 -53c-4 -35 -4 -71 -4 -107c0 -48 1 -95 3 -143c-4 -2 -8 -4 -12 -4c-16 0 -31 10 -40 23c9 45 10 91 10 137c0 16 -1 93 -6 103c-3 6 -8 11 -15 11c-9 0 -19 -4 -27 -8c-10 0 -16 11 -16 20c0 2 0 5 1 7c6 15 76 38 92 38s23 -9 23 -24z
M449 706c-79 -160 -165 -317 -248 -475c-40 -77 -89 -151 -122 -231c-18 0 -34 13 -38 30c73 133 148 265 220 399c50 94 99 190 142 288c5 4 11 6 17 6c12 0 23 -6 29 -17zM482 26c0 -8 -2 -17 -7 -24c-20 4 -40 5 -60 5c-35 0 -71 -7 -106 -7c-11 0 -21 1 -32 3
c-7 6 -10 15 -10 24c0 11 5 17 15 21c67 29 146 139 146 212c0 21 -9 35 -31 35c-52 0 -91 -71 -84 -118c-6 -4 -12 -6 -19 -6c-20 0 -25 17 -25 34c0 57 75 129 132 129c48 0 68 -39 68 -82c0 -61 -49 -125 -84 -172c-8 -11 -17 -21 -22 -33c9 -1 18 -2 27 -2
c27 0 55 5 82 5c8 -5 10 -15 10 -24z" />
    <glyph glyph-name="plusminus" unicode="&#xb1;" 
d="M329 416c0 -12 -10 -24 -22 -26c-6 -1 -12 0 -19 0c-21 0 -44 -3 -65 -9c-4 -14 -5 -29 -5 -43c0 -20 3 -39 7 -58c-5 -8 -14 -12 -23 -12c-7 0 -14 2 -20 5c-15 19 -10 54 -10 77c0 10 0 20 -4 29c-8 3 -16 4 -24 4c-14 0 -27 -2 -41 -2c-18 0 -23 4 -23 22
c0 6 1 12 3 18c13 11 45 7 61 7c10 0 21 0 30 4c0 13 -1 26 -1 39c0 19 2 38 4 57c5 8 16 11 25 11c10 0 20 -4 28 -11c0 -26 -11 -52 -11 -78c0 -6 1 -13 2 -19c8 -3 16 -4 24 -4c23 0 46 10 69 10c9 0 15 -13 15 -21zM336 204c0 -7 -3 -15 -8 -20c-23 -4 -47 -4 -70 -4
c-42 0 -83 2 -125 2c-20 0 -42 0 -61 -5c-5 6 -8 13 -8 21c0 10 5 20 13 26c23 -4 47 -5 70 -5c57 0 114 9 171 9c11 0 18 -15 18 -24z" />
    <glyph glyph-name="Thorn" unicode="&#xde;" horiz-adv-x="522" 
d="M486 366c0 -127 -134 -226 -243 -263c-34 -11 -75 -17 -111 -19c1 -24 2 -49 4 -74c-4 -6 -11 -10 -19 -10c-11 0 -22 4 -32 8c-1 29 -2 58 -2 88v24c6 198 11 397 9 595c7 7 14 8 23 8c6 0 21 1 24 -5c1 -2 3 -62 4 -72c10 -9 39 -7 52 -9c81 -8 159 -43 218 -99
c43 -41 73 -113 73 -172zM440 366c0 122 -124 227 -242 227c-42 0 -56 1 -59 -44c-4 -69 -7 -143 -7 -212c0 -63 6 -126 8 -189c6 -9 14 -13 24 -13c115 0 276 106 276 231z" />
    <glyph glyph-name="onequarter" unicode="&#xbc;" horiz-adv-x="502" 
d="M177 700c0 -18 -7 -35 -9 -53c-4 -35 -4 -71 -4 -107c0 -48 1 -95 3 -143c-4 -2 -8 -4 -12 -4c-16 0 -31 10 -40 23c9 45 10 91 10 137c0 16 -1 93 -6 103c-3 6 -8 11 -15 11c-9 0 -19 -4 -27 -8c-10 0 -16 11 -16 20c0 2 0 5 1 7c6 15 76 38 92 38s23 -9 23 -24z
M449 706c-79 -160 -165 -317 -248 -475c-40 -77 -89 -151 -122 -231c-18 0 -34 13 -38 30c73 133 148 265 220 399c50 94 99 190 142 288c5 4 11 6 17 6c12 0 23 -6 29 -17zM437 204c-10 -33 -14 -68 -14 -103c0 -29 3 -58 6 -87c-2 -5 -11 -14 -17 -14c-12 0 -27 4 -27 18
c0 24 1 49 1 73c0 12 0 24 -1 36c-7 5 -17 4 -25 4c-20 0 -41 -3 -61 -3c-8 0 -15 1 -23 3c-6 5 -11 11 -11 19c0 7 4 13 7 19c32 53 65 104 89 161c6 5 15 7 23 7c10 0 21 -16 21 -25c-37 -44 -63 -95 -91 -145c7 -2 15 -3 23 -3c16 0 31 5 46 8c9 8 7 20 7 31
c0 16 7 19 22 19c11 0 24 -6 25 -18z" />
    <glyph glyph-name="divide" unicode="&#xf7;" 
d="M237 498c-8 -24 -16 -56 -47 -56c-16 0 -45 23 -45 40c0 21 27 40 46 40c18 0 34 -12 46 -24zM387 357c0 -11 -3 -21 -8 -31c-40 7 -80 10 -121 10c-62 0 -123 -5 -185 -5c-11 0 -49 0 -55 10c-3 5 -5 15 -5 21c0 9 2 23 14 23c14 0 27 -3 41 -4c31 -3 62 -4 93 -4
c65 0 129 4 193 4c18 0 33 -3 33 -24zM236 235c0 -13 -7 -25 -17 -33c-9 -3 -18 -7 -28 -7c-24 0 -40 26 -40 48c0 33 25 22 46 27c18 -7 39 -12 39 -35z" />
    <glyph glyph-name="brokenbar" unicode="&#xa6;" horiz-adv-x="234" 
d="M150 651c-8 -55 -12 -110 -12 -165c0 -52 4 -95 4 -147c0 -10 -17 -14 -25 -14c-11 0 -20 2 -28 10c-4 4 -5 163 -5 186c0 28 0 135 9 155h2c20 0 48 -2 55 -25zM147 120c0 -68 12 -239 -12 -288c-7 -4 -15 -7 -23 -7c-14 0 -25 9 -28 23c11 55 10 117 10 191
c0 42 -2 83 -2 125c0 9 15 10 21 10c38 0 34 -25 34 -54z" />
    <glyph glyph-name="degree" unicode="&#xb0;" horiz-adv-x="179" 
d="M169 667c0 -38 -44 -65 -73 -82h-3c-43 0 -83 19 -83 67c0 57 43 84 96 84c33 0 63 -38 63 -69zM129 674c0 18 -30 28 -44 31c-21 -18 -30 -38 -30 -65c0 -10 8 -18 16 -21c25 4 58 27 58 55z" />
    <glyph glyph-name="thorn" unicode="&#xfe;" horiz-adv-x="309" 
d="M274 375c0 -105 -53 -206 -158 -241c1 -28 2 -55 4 -83c1 -9 2 -18 2 -27c0 -12 -6 -26 -20 -26c-10 0 -20 5 -29 10l-6 13c6 131 8 263 8 394v84c0 39 -1 77 -3 116c-2 29 -5 59 -5 88c0 15 16 22 29 22c11 0 27 -7 27 -20c0 -38 -3 -77 -4 -115c12 -6 21 -16 33 -23
c79 -50 122 -94 122 -192zM230 366c0 86 -35 125 -108 167c-4 -43 -6 -85 -6 -128c0 -41 -2 -82 -2 -123c0 -32 1 -63 6 -95c60 1 110 128 110 179z" />
    <glyph glyph-name="threequarters" unicode="&#xbe;" horiz-adv-x="502" 
d="M209 694c-9 -28 -69 -65 -86 -106c38 -19 79 -50 79 -97c0 -53 -39 -98 -93 -98c-30 0 -66 17 -81 44c4 10 13 28 25 29c15 -19 28 -32 54 -32c35 0 55 23 55 57c0 39 -56 62 -86 74c-1 2 -1 5 -1 7c0 44 62 75 78 112c-9 4 -19 4 -28 4c-21 0 -42 -3 -62 -8
c-10 4 -18 12 -18 23c0 10 6 21 17 21c22 0 45 2 67 2c23 0 79 0 80 -32zM449 706c-79 -160 -165 -317 -248 -475c-40 -77 -89 -151 -122 -231c-18 0 -34 13 -38 30c73 133 148 265 220 399c50 94 99 190 142 288c5 4 11 6 17 6c12 0 23 -6 29 -17zM437 204
c-10 -33 -14 -68 -14 -103c0 -29 3 -58 6 -87c-2 -5 -11 -14 -17 -14c-12 0 -27 4 -27 18c0 24 1 49 1 73c0 12 0 24 -1 36c-7 5 -17 4 -25 4c-20 0 -41 -3 -61 -3c-8 0 -15 1 -23 3c-6 5 -11 11 -11 19c0 7 4 13 7 19c32 53 65 104 89 161c6 5 15 7 23 7
c10 0 21 -16 21 -25c-37 -44 -63 -95 -91 -145c7 -2 15 -3 23 -3c16 0 31 5 46 8c9 8 7 20 7 31c0 16 7 19 22 19c11 0 24 -6 25 -18z" />
    <glyph glyph-name="twosuperior" unicode="&#xb2;" horiz-adv-x="287" 
d="M266 527c0 -8 -2 -17 -7 -24c-20 4 -40 5 -60 5c-35 0 -71 -7 -106 -7c-11 0 -21 1 -32 3c-7 6 -10 15 -10 24c0 11 5 17 15 21c67 29 146 139 146 212c0 21 -9 35 -31 35c-51 0 -91 -72 -84 -118c-6 -4 -12 -6 -19 -6c-20 0 -25 16 -25 33c0 57 75 130 132 130
c48 0 68 -39 68 -82c0 -62 -50 -124 -85 -172c-8 -11 -16 -22 -21 -34c9 -1 18 -2 27 -2c27 0 54 5 81 5c7 -5 11 -14 11 -23z" />
    <glyph glyph-name="registered" unicode="&#xae;" horiz-adv-x="352" 
d="M339 559c0 -78 -67 -163 -149 -163c-89 0 -162 80 -162 168c0 42 17 87 43 120c27 35 71 52 114 52c103 0 154 -82 154 -177zM305 561c0 71 -50 144 -126 144c-71 0 -115 -76 -115 -140c0 -68 53 -137 125 -137c68 0 116 70 116 133zM255 475c-3 -9 -9 -16 -19 -16
c-6 0 -12 3 -17 7c-6 22 -14 46 -25 67c-6 -5 -11 -10 -18 -13v-9c-1 -17 2 -34 4 -51c-3 -8 -10 -13 -18 -13c-6 0 -12 4 -17 7c2 40 0 80 0 120c0 34 2 83 13 115c4 1 9 1 13 1c34 0 63 -40 63 -72c0 -20 -9 -39 -17 -57c9 -29 24 -59 38 -86zM204 616c0 14 -8 30 -21 37
c-6 -26 -7 -52 -7 -79v-13c11 11 28 39 28 55z" />
    <glyph glyph-name="minus" unicode="&#x2212;" 
d="M347 333c-69 -2 -139 -5 -208 -5c-29 0 -58 0 -86 5c-9 6 -14 16 -14 27c0 13 7 24 19 29c30 -14 80 -15 113 -15c57 0 114 5 171 11c10 -5 19 -13 19 -25c0 -11 -6 -21 -14 -27z" />
    <glyph glyph-name="eth" unicode="&#xf0;" horiz-adv-x="366" 
d="M323 408c0 -121 -65 -231 -128 -331c-15 -23 -29 -49 -49 -69c-8 -8 -12 -11 -23 -11c-17 0 -35 12 -35 30c0 17 3 35 3 52c0 37 -3 73 -4 110c-1 50 -1 99 -1 149c-13 0 -61 -1 -71 3s-13 7 -13 18c0 8 3 16 10 21c9 7 61 8 74 8c3 109 11 217 26 325c6 6 14 9 23 9
c7 0 15 -2 22 -4c11 -43 166 -86 166 -310zM284 408c0 80 -55 208 -133 240c-16 -85 -20 -172 -22 -259c31 -1 62 -4 93 -8c-7 -34 -65 -40 -93 -42c0 -87 2 -174 9 -261h5c67 95 141 210 141 330z" />
    <glyph glyph-name="multiply" unicode="&#xd7;" 
d="M356 221c-3 -26 -15 -33 -39 -33c-51 60 -62 78 -119 132c-54 -57 -70 -76 -117 -132h-4h-1c-19 0 -32 19 -33 37c49 46 75 64 122 127c-50 56 -68 79 -122 131c0 25 21 34 42 34c38 -55 61 -83 115 -132c53 52 68 75 114 132h3h2c22 0 31 -13 37 -34
c-54 -51 -77 -68 -122 -127c47 -65 71 -86 122 -135z" />
    <glyph glyph-name="threesuperior" unicode="&#xb3;" horiz-adv-x="227" 
d="M214 804c-9 -27 -70 -65 -87 -106c38 -19 80 -50 80 -97c0 -53 -39 -98 -93 -98c-30 0 -66 17 -81 44c4 10 13 28 25 29c15 -19 28 -32 54 -32c35 0 55 23 55 57c0 39 -57 62 -87 74v2c0 53 60 75 78 117c-9 4 -19 4 -28 4c-21 0 -42 -3 -62 -8c-10 4 -18 12 -18 23
c0 10 6 21 17 21c22 0 45 2 67 2c23 0 79 0 80 -32z" />
    <glyph glyph-name="copyright" unicode="&#xa9;" horiz-adv-x="691" 
d="M646 351c0 -162 -116 -324 -288 -324c-165 0 -303 166 -303 325c0 173 102 355 294 355c200 0 297 -175 297 -356zM600 352c0 105 -40 229 -137 283c-37 20 -79 32 -121 32c-152 0 -239 -165 -239 -300c0 -44 8 -88 26 -128c41 -92 135 -168 238 -168c59 0 105 23 149 62
c63 56 84 138 84 219zM418 608c0 -2 -1 -3 -1 -5c-94 -55 -132 -149 -132 -246c0 -39 8 -84 24 -120c18 -41 53 -68 93 -85c3 -7 5 -14 5 -22c0 -17 -11 -27 -27 -28c-100 44 -144 149 -144 253c0 108 46 224 143 280h5c21 0 34 -6 34 -27z" />
    <glyph glyph-name="Aacute" unicode="&#xc1;" horiz-adv-x="645" 
d="M431 874c0 -6 -2 -13 -6 -18c-18 -11 -105 -67 -118 -67c-9 0 -10 7 -13 14c31 45 51 71 94 106h6c19 0 37 -14 37 -35zM642 13c0 -5 -9 -10 -13 -12c-19 3 -28 -6 -43 13c-20 25 -48 122 -64 159c-15 7 -33 7 -49 7c-48 0 -96 -7 -144 -13c-43 -5 -85 -11 -128 -17
c-29 -4 -57 -9 -86 -10c-41 -20 -47 -82 -58 -121c-4 -14 -8 -20 -24 -20c-15 0 -36 8 -36 26c0 24 266 568 301 652c6 15 14 48 35 48c8 0 15 -3 21 -8c6 -4 171 -436 193 -488c18 -3 36 -11 49 -23c1 -5 1 -11 1 -16c0 -18 -14 -18 -23 -30l48 -115c4 -9 20 -23 20 -32z
M497 224v1c0 17 -46 126 -56 150c-35 85 -70 170 -112 252c-73 -138 -145 -277 -199 -423l1 -13h10c120 0 237 31 356 33z" />
    <glyph glyph-name="Acircumflex" unicode="&#xc2;" horiz-adv-x="645" 
d="M642 13c0 -5 -9 -10 -13 -12c-19 3 -28 -6 -43 13c-20 25 -48 122 -64 159c-15 7 -33 7 -49 7c-48 0 -96 -7 -144 -13c-43 -5 -85 -11 -128 -17c-29 -4 -57 -9 -86 -10c-41 -20 -47 -82 -58 -121c-4 -14 -8 -20 -24 -20c-15 0 -36 8 -36 26c0 24 266 568 301 652
c6 15 14 48 35 48c8 0 15 -3 21 -8c6 -4 171 -436 193 -488c18 -3 36 -11 49 -23c1 -5 1 -11 1 -16c0 -18 -14 -18 -23 -30l48 -115c4 -9 20 -23 20 -32zM497 224v1c0 17 -46 126 -56 150c-35 85 -70 170 -112 252c-73 -138 -145 -277 -199 -423l1 -13h10
c120 0 237 31 356 33zM431 809c-6 -12 -18 -16 -30 -16c-5 0 -10 1 -14 3c-5 18 -31 51 -48 61c-22 -9 -42 -43 -53 -62c-4 -1 -8 -2 -12 -2c-10 0 -22 5 -22 17c0 18 61 90 80 90c35 0 87 -61 99 -91z" />
    <glyph glyph-name="Adieresis" unicode="&#xc4;" horiz-adv-x="645" 
d="M451 830c0 -17 -12 -30 -23 -41c-23 7 -55 11 -55 42c0 16 23 44 39 44c20 0 39 -26 39 -45zM296 828c0 -26 -30 -35 -51 -36c-13 9 -31 19 -31 37c0 17 12 31 27 38c23 0 55 -12 55 -39zM642 13c0 -5 -9 -10 -13 -12c-19 3 -28 -6 -43 13c-20 25 -48 122 -64 159
c-15 7 -33 7 -49 7c-48 0 -96 -7 -144 -13c-43 -5 -85 -11 -128 -17c-29 -4 -57 -9 -86 -10c-41 -20 -47 -82 -58 -121c-4 -14 -8 -20 -24 -20c-15 0 -36 8 -36 26c0 24 266 568 301 652c6 15 14 48 35 48c8 0 15 -3 21 -8c6 -4 171 -436 193 -488c18 -3 36 -11 49 -23
c1 -5 1 -11 1 -16c0 -18 -14 -18 -23 -30l48 -115c4 -9 20 -23 20 -32zM497 224v1c0 17 -46 126 -56 150c-35 85 -70 170 -112 252c-73 -138 -145 -277 -199 -423l1 -13h10c120 0 237 31 356 33z" />
    <glyph glyph-name="Agrave" unicode="&#xc0;" horiz-adv-x="645" 
d="M379 803c-3 -7 -4 -14 -13 -14c-13 0 -100 56 -118 67c-4 5 -6 12 -6 18c0 21 17 35 37 35h6c43 -35 63 -60 94 -106zM642 13c0 -5 -9 -10 -13 -12c-19 3 -28 -6 -43 13c-20 25 -48 122 -64 159c-15 7 -33 7 -49 7c-48 0 -96 -7 -144 -13c-43 -5 -85 -11 -128 -17
c-29 -4 -57 -9 -86 -10c-41 -20 -47 -82 -58 -121c-4 -14 -8 -20 -24 -20c-15 0 -36 8 -36 26c0 24 266 568 301 652c6 15 14 48 35 48c8 0 15 -3 21 -8c6 -4 171 -436 193 -488c18 -3 36 -11 49 -23c1 -5 1 -11 1 -16c0 -18 -14 -18 -23 -30l48 -115c4 -9 20 -23 20 -32z
M497 224v1c0 17 -46 126 -56 150c-35 85 -70 170 -112 252c-73 -138 -145 -277 -199 -423l1 -13h10c120 0 237 31 356 33z" />
    <glyph glyph-name="Aring" unicode="&#xc5;" horiz-adv-x="645" 
d="M413 872c0 -38 -44 -65 -73 -82h-3c-43 0 -83 19 -83 67c0 57 43 84 96 84c33 0 63 -38 63 -69zM373 879c0 18 -30 28 -44 31c-21 -18 -30 -38 -30 -65c0 -10 8 -18 16 -21c25 4 58 27 58 55zM642 13c0 -5 -9 -10 -13 -12c-19 3 -28 -6 -43 13c-20 25 -48 122 -64 159
c-15 7 -33 7 -49 7c-48 0 -96 -7 -144 -13c-43 -5 -85 -11 -128 -17c-29 -4 -57 -9 -86 -10c-41 -20 -47 -82 -58 -121c-4 -14 -8 -20 -24 -20c-15 0 -36 8 -36 26c0 24 266 568 301 652c6 15 14 48 35 48c8 0 15 -3 21 -8c6 -4 171 -436 193 -488c18 -3 36 -11 49 -23
c1 -5 1 -11 1 -16c0 -18 -14 -18 -23 -30l48 -115c4 -9 20 -23 20 -32zM497 224v1c0 17 -46 126 -56 150c-35 85 -70 170 -112 252c-73 -138 -145 -277 -199 -423l1 -13h10c120 0 237 31 356 33z" />
    <glyph glyph-name="Atilde" unicode="&#xc3;" horiz-adv-x="645" 
d="M432 844c0 -28 -32 -54 -59 -54c-29 0 -51 26 -70 26c-15 0 -25 -26 -46 -26c-12 0 -20 8 -20 20c0 29 30 54 58 54c30 0 53 -25 83 -25c16 0 25 18 41 18c7 0 13 -6 13 -13zM642 13c0 -5 -9 -10 -13 -12c-19 3 -28 -6 -43 13c-20 25 -48 122 -64 159c-15 7 -33 7 -49 7
c-48 0 -96 -7 -144 -13c-43 -5 -85 -11 -128 -17c-29 -4 -57 -9 -86 -10c-41 -20 -47 -82 -58 -121c-4 -14 -8 -20 -24 -20c-15 0 -36 8 -36 26c0 24 266 568 301 652c6 15 14 48 35 48c8 0 15 -3 21 -8c6 -4 171 -436 193 -488c18 -3 36 -11 49 -23c1 -5 1 -11 1 -16
c0 -18 -14 -18 -23 -30l48 -115c4 -9 20 -23 20 -32zM497 224v1c0 17 -46 126 -56 150c-35 85 -70 170 -112 252c-73 -138 -145 -277 -199 -423l1 -13h10c120 0 237 31 356 33z" />
    <glyph glyph-name="Ccedilla" unicode="&#xc7;" horiz-adv-x="624" 
d="M590 61c0 -33 -143 -56 -169 -59c-6 -31 -34 -51 -60 -66c33 -23 60 -35 60 -82c0 -32 -30 -78 -65 -78c-30 0 -46 30 -46 57c4 10 12 21 24 21s21 -11 21 -23c0 -2 0 -5 -1 -7c-2 0 -7 0 -7 -3s5 -7 7 -9c20 5 31 24 31 44c0 39 -52 51 -71 80v2c0 14 56 35 68 63
c-190 9 -339 158 -339 350c0 115 36 212 126 287c65 54 162 87 247 87c31 0 133 -11 133 -53c0 -10 -9 -13 -17 -13c-35 0 -67 23 -103 23s-73 -6 -107 -17c-141 -46 -228 -152 -228 -303c0 -189 123 -316 313 -316c35 0 69 9 101 21c10 4 48 20 55 20c14 0 27 -11 27 -26z
" />
    <glyph glyph-name="Eacute" unicode="&#xc9;" horiz-adv-x="450" 
d="M318 874c0 -6 -2 -13 -6 -18c-18 -11 -105 -67 -118 -67c-9 0 -10 7 -13 14c31 45 51 71 94 106h6c19 0 37 -14 37 -35zM429 54c0 -8 -6 -15 -10 -21c-88 -12 -175 -33 -265 -33c-25 0 -48 4 -60 29c4 11 5 22 15 29c-11 68 -16 138 -20 207c-7 119 -9 238 -9 357
c0 21 -1 46 3 67c5 23 20 21 38 29c45 2 91 7 136 7c19 0 120 -6 120 -30c0 -11 -11 -21 -22 -21c-6 0 -12 2 -18 4c-30 9 -62 10 -93 10c-28 0 -103 0 -109 -36c-3 -17 -2 -36 -2 -53c0 -46 2 -92 2 -138c0 -18 0 -36 -1 -54c23 -11 45 -12 70 -12c33 0 67 3 100 3
c17 0 63 3 63 -22c0 -17 -18 -20 -31 -20c-33 0 -67 3 -100 3c-20 0 -88 0 -102 -10c4 -91 0 -186 21 -275c8 -32 23 -32 52 -32c41 0 81 7 121 16l36 9c2 1 16 5 17 5c12 0 48 -1 48 -18z" />
    <glyph glyph-name="Ecircumflex" unicode="&#xca;" horiz-adv-x="450" 
d="M429 54c0 -8 -6 -15 -10 -21c-88 -12 -175 -33 -265 -33c-25 0 -48 4 -60 29c4 11 5 22 15 29c-11 68 -16 138 -20 207c-7 119 -9 238 -9 357c0 21 -1 46 3 67c5 23 20 21 38 29c45 2 91 7 136 7c19 0 120 -6 120 -30c0 -11 -11 -21 -22 -21c-6 0 -12 2 -18 4
c-30 9 -62 10 -93 10c-28 0 -103 0 -109 -36c-3 -17 -2 -36 -2 -53c0 -46 2 -92 2 -138c0 -18 0 -36 -1 -54c23 -11 45 -12 70 -12c33 0 67 3 100 3c17 0 63 3 63 -22c0 -17 -18 -20 -31 -20c-33 0 -67 3 -100 3c-20 0 -88 0 -102 -10c4 -91 0 -186 21 -275
c8 -32 23 -32 52 -32c41 0 81 7 121 16l36 9c2 1 16 5 17 5c12 0 48 -1 48 -18zM318 809c-6 -12 -18 -16 -30 -16c-5 0 -10 1 -14 3c-5 18 -31 51 -48 61c-22 -9 -42 -43 -53 -62c-4 -1 -8 -2 -12 -2c-10 0 -22 5 -22 17c0 18 61 90 80 90c35 0 87 -61 99 -91z" />
    <glyph glyph-name="Edieresis" unicode="&#xcb;" horiz-adv-x="450" 
d="M340 830c0 -17 -12 -30 -23 -41c-23 7 -55 11 -55 42c0 16 23 44 39 44c20 0 39 -26 39 -45zM185 828c0 -26 -30 -35 -51 -36c-13 9 -31 19 -31 37c0 17 12 31 27 38c23 0 55 -12 55 -39zM429 54c0 -8 -6 -15 -10 -21c-88 -12 -175 -33 -265 -33c-25 0 -48 4 -60 29
c4 11 5 22 15 29c-11 68 -16 138 -20 207c-7 119 -9 238 -9 357c0 21 -1 46 3 67c5 23 20 21 38 29c45 2 91 7 136 7c19 0 120 -6 120 -30c0 -11 -11 -21 -22 -21c-6 0 -12 2 -18 4c-30 9 -62 10 -93 10c-28 0 -103 0 -109 -36c-3 -17 -2 -36 -2 -53c0 -46 2 -92 2 -138
c0 -18 0 -36 -1 -54c23 -11 45 -12 70 -12c33 0 67 3 100 3c17 0 63 3 63 -22c0 -17 -18 -20 -31 -20c-33 0 -67 3 -100 3c-20 0 -88 0 -102 -10c4 -91 0 -186 21 -275c8 -32 23 -32 52 -32c41 0 81 7 121 16l36 9c2 1 16 5 17 5c12 0 48 -1 48 -18z" />
    <glyph glyph-name="Egrave" unicode="&#xc8;" horiz-adv-x="450" 
d="M289 803c-3 -7 -4 -14 -13 -14c-13 0 -100 56 -118 67c-4 5 -6 12 -6 18c0 21 17 35 37 35h6c43 -35 63 -60 94 -106zM428 54c0 -8 -6 -15 -10 -21c-88 -12 -175 -33 -265 -33c-25 0 -48 4 -60 29c4 11 5 22 15 29c-11 68 -16 138 -20 207c-7 119 -9 238 -9 357v22
c0 15 0 31 3 45c5 23 20 21 38 29c45 2 91 7 136 7c19 0 120 -6 120 -30c0 -11 -11 -21 -22 -21c-6 0 -12 2 -18 4c-30 9 -62 10 -93 10c-28 0 -103 0 -109 -36c-2 -10 -2 -21 -2 -32v-21c0 -46 2 -92 2 -138c0 -18 0 -36 -1 -54c23 -11 45 -12 70 -12c33 0 67 3 100 3h12
c21 0 51 -2 51 -22c0 -17 -18 -20 -31 -20c-33 0 -67 3 -100 3c-20 0 -88 0 -102 -10c4 -91 0 -186 21 -275c8 -32 23 -32 52 -32c41 0 81 7 121 16l36 9c5 1 12 5 17 5c12 0 48 -1 48 -18z" />
    <glyph glyph-name="Iacute" unicode="&#xcd;" horiz-adv-x="217" 
d="M213 874c0 -6 -2 -13 -6 -18c-18 -11 -105 -67 -118 -67c-9 0 -10 7 -13 14c31 45 51 71 94 106h6c19 0 37 -14 37 -35zM141 673c0 -159 -11 -318 -11 -477c0 -62 2 -124 6 -186c-4 -6 -11 -10 -19 -10c-10 0 -20 4 -29 8c-5 21 -7 42 -7 63c0 16 1 33 2 49
c7 198 11 397 9 595c10 6 21 10 33 10c4 0 12 -1 14 -5s2 -39 2 -47z" />
    <glyph glyph-name="Icircumflex" unicode="&#xce;" horiz-adv-x="217" 
d="M141 673c0 -159 -11 -318 -11 -477c0 -62 2 -124 6 -186c-4 -6 -11 -10 -19 -10c-10 0 -20 4 -29 8c-5 21 -7 42 -7 63c0 16 1 33 2 49c7 198 11 397 9 595c10 6 21 10 33 10c4 0 12 -1 14 -5s2 -39 2 -47zM210 809c-6 -12 -18 -16 -30 -16c-5 0 -10 1 -14 3
c-5 18 -31 51 -48 61c-22 -9 -42 -43 -53 -62c-4 -1 -8 -2 -12 -2c-10 0 -22 5 -22 17c0 18 61 90 80 90c35 0 87 -61 99 -91z" />
    <glyph glyph-name="Idieresis" unicode="&#xcf;" horiz-adv-x="217" 
d="M240 830c0 -17 -12 -30 -23 -41c-23 7 -55 11 -55 42c0 16 23 44 39 44c20 0 39 -26 39 -45zM85 828c0 -26 -30 -35 -51 -36c-13 9 -31 19 -31 37c0 17 12 31 27 38c23 0 55 -12 55 -39zM141 673c0 -159 -11 -318 -11 -477c0 -62 2 -124 6 -186c-4 -6 -11 -10 -19 -10
c-10 0 -20 4 -29 8c-5 21 -7 42 -7 63c0 16 1 33 2 49c7 198 11 397 9 595c10 6 21 10 33 10c4 0 12 -1 14 -5s2 -39 2 -47z" />
    <glyph glyph-name="Igrave" unicode="&#xcc;" horiz-adv-x="217" 
d="M176 803c-3 -7 -4 -14 -13 -14c-13 0 -100 56 -118 67c-4 5 -6 12 -6 18c0 21 17 35 37 35h6c43 -35 63 -60 94 -106zM141 673c0 -159 -11 -318 -11 -477c0 -62 2 -124 6 -186c-4 -6 -11 -10 -19 -10c-10 0 -20 4 -29 8c-5 21 -7 42 -7 63c0 16 1 33 2 49
c7 198 11 397 9 595c10 6 21 10 33 10c4 0 12 -1 14 -5s2 -39 2 -47z" />
    <glyph glyph-name="Ntilde" unicode="&#xd1;" horiz-adv-x="784" 
d="M478 844c0 -28 -32 -54 -59 -54c-29 0 -51 26 -70 26c-15 0 -25 -26 -46 -26c-12 0 -20 8 -20 20c0 29 30 54 58 54c30 0 53 -25 83 -25c16 0 25 18 41 18c7 0 13 -6 13 -13zM716 357c0 -14 -8 -30 -18 -39c-6 -66 -7 -132 -7 -197v-48c0 -16 8 -32 8 -48
c0 -22 -22 -25 -39 -26c-10 10 -16 21 -16 35c0 98 9 196 9 294c0 4 0 8 -1 12c-60 32 -121 61 -181 93c-52 27 -291 152 -332 152c-11 0 -14 -54 -15 -63c-1 -26 -2 -51 -2 -77c0 -79 5 -158 11 -237c3 -44 5 -88 15 -131c11 -12 9 -28 9 -43c-7 -9 -19 -10 -29 -10h-13
c-18 13 -23 50 -25 71c-2 27 -2 55 -3 82c-5 136 -11 272 -11 408c0 25 7 92 42 92c14 0 24 -12 25 -26c28 -26 179 -84 225 -107c50 -25 98 -55 147 -82c27 -15 111 -62 137 -62l2 316c6 5 15 9 23 9c13 0 23 -11 28 -22c-10 -30 -9 -80 -9 -112c0 -68 6 -136 4 -204
c15 -1 16 -19 16 -30z" />
    <glyph glyph-name="Oacute" unicode="&#xd3;" horiz-adv-x="829" 
d="M526 874c0 -6 -2 -13 -6 -18c-18 -11 -105 -67 -118 -67c-9 0 -10 7 -13 14c31 45 51 71 94 106h6c19 0 37 -14 37 -35zM793 355c0 -210 -146 -365 -358 -365c-206 0 -396 131 -396 351c0 222 154 393 380 393c216 0 374 -165 374 -379zM750 353c0 181 -150 343 -334 343
c-145 0 -265 -104 -309 -239c-12 -38 -17 -76 -17 -116c0 -181 163 -310 336 -310c178 0 324 143 324 322z" />
    <glyph glyph-name="Ocircumflex" unicode="&#xd4;" horiz-adv-x="829" 
d="M793 355c0 -210 -146 -365 -358 -365c-206 0 -396 131 -396 351c0 222 154 393 380 393c216 0 374 -165 374 -379zM750 353c0 181 -150 343 -334 343c-145 0 -265 -104 -309 -239c-12 -38 -17 -76 -17 -116c0 -181 163 -310 336 -310c178 0 324 143 324 322zM512 809
c-6 -12 -18 -16 -30 -16c-5 0 -10 1 -14 3c-5 18 -31 51 -48 61c-22 -9 -42 -43 -53 -62c-4 -1 -8 -2 -12 -2c-10 0 -22 5 -22 17c0 18 61 90 80 90c35 0 87 -61 99 -91z" />
    <glyph glyph-name="Odieresis" unicode="&#xd6;" horiz-adv-x="829" 
d="M525 830c0 -17 -12 -30 -23 -41c-23 7 -55 11 -55 42c0 16 23 44 39 44c20 0 39 -26 39 -45zM370 828c0 -26 -30 -35 -51 -36c-13 9 -31 19 -31 37c0 17 12 31 27 38c23 0 55 -12 55 -39zM793 355c0 -210 -146 -365 -358 -365c-206 0 -396 131 -396 351
c0 222 154 393 380 393c216 0 374 -165 374 -379zM750 353c0 181 -150 343 -334 343c-145 0 -265 -104 -309 -239c-12 -38 -17 -76 -17 -116c0 -181 163 -310 336 -310c178 0 324 143 324 322z" />
    <glyph glyph-name="Ograve" unicode="&#xd2;" horiz-adv-x="829" 
d="M463 803c-3 -7 -4 -14 -13 -14c-13 0 -100 56 -118 67c-4 5 -6 12 -6 18c0 21 17 35 37 35h6c43 -35 63 -60 94 -106zM793 355c0 -210 -146 -365 -358 -365c-206 0 -396 131 -396 351c0 222 154 393 380 393c216 0 374 -165 374 -379zM750 353c0 181 -150 343 -334 343
c-145 0 -265 -104 -309 -239c-12 -38 -17 -76 -17 -116c0 -181 163 -310 336 -310c178 0 324 143 324 322z" />
    <glyph glyph-name="Otilde" unicode="&#xd5;" horiz-adv-x="829" 
d="M523 844c0 -28 -32 -54 -59 -54c-29 0 -51 26 -70 26c-15 0 -25 -26 -46 -26c-12 0 -20 8 -20 20c0 29 30 54 58 54c30 0 53 -25 83 -25c16 0 25 18 41 18c7 0 13 -6 13 -13zM793 355c0 -210 -146 -365 -358 -365c-206 0 -396 131 -396 351c0 222 154 393 380 393
c216 0 374 -165 374 -379zM750 353c0 181 -150 343 -334 343c-145 0 -265 -104 -309 -239c-12 -38 -17 -76 -17 -116c0 -181 163 -310 336 -310c178 0 324 143 324 322z" />
    <glyph glyph-name="Scaron" unicode="&#x160;" horiz-adv-x="488" 
d="M447 182c0 -7 -2 -14 -4 -21c-31 -101 -134 -169 -238 -169c-44 0 -124 11 -154 46c-4 5 -10 14 -10 21c0 15 21 31 35 32c30 -36 74 -56 121 -56c17 0 37 6 54 11c75 21 141 67 141 152c0 127 -157 164 -245 216c-51 30 -98 82 -98 144c0 112 121 176 221 176
c44 0 110 -18 135 -58c1 -2 2 -6 2 -9c0 -17 -16 -28 -31 -31c-21 39 -64 53 -106 53c-69 0 -169 -44 -169 -124c0 -66 74 -117 127 -143c20 -10 40 -19 60 -28c96 -44 159 -99 159 -212zM185 883c6 12 18 16 30 16c5 0 10 -1 14 -3c5 -18 31 -51 48 -61c22 9 42 43 53 62
c4 1 8 2 12 2c10 0 22 -11 22 -17c0 -18 -58 -90 -92 -90c-35 0 -75 61 -87 91z" />
    <glyph glyph-name="Uacute" unicode="&#xda;" horiz-adv-x="729" 
d="M439 874c0 -6 -2 -13 -6 -18c-18 -11 -105 -67 -118 -67c-9 0 -10 7 -13 14c31 45 51 71 94 106h6c19 0 37 -14 37 -35zM673 541c0 -92 -14 -184 -46 -270c-43 -117 -160 -281 -298 -281c-79 0 -136 65 -174 127c-61 101 -87 275 -87 392c0 44 4 116 22 156
c11 25 24 39 52 44c8 -2 25 -10 25 -20c0 -9 -18 -25 -23 -33c-17 -27 -21 -121 -21 -155c0 -124 41 -464 210 -464c52 0 100 31 135 67c113 115 161 271 161 430c0 56 -23 110 -23 166c0 16 14 25 28 25c21 0 33 -16 33 -36c0 -49 6 -99 6 -148z" />
    <glyph glyph-name="Ucircumflex" unicode="&#xdb;" horiz-adv-x="729" 
d="M673 541c0 -92 -14 -184 -46 -270c-43 -117 -160 -281 -298 -281c-79 0 -136 65 -174 127c-61 101 -87 275 -87 392c0 44 4 116 22 156c11 25 24 39 52 44c8 -2 25 -10 25 -20c0 -9 -18 -25 -23 -33c-17 -27 -21 -121 -21 -155c0 -124 41 -464 210 -464
c52 0 100 31 135 67c113 115 161 271 161 430c0 56 -23 110 -23 166c0 16 14 25 28 25c21 0 33 -16 33 -36c0 -49 6 -99 6 -148zM459 809c-6 -12 -18 -16 -30 -16c-5 0 -10 1 -14 3c-5 18 -31 51 -48 61c-22 -9 -42 -43 -53 -62c-4 -1 -8 -2 -12 -2c-10 0 -22 5 -22 17
c0 18 61 90 80 90c35 0 87 -61 99 -91z" />
    <glyph glyph-name="Udieresis" unicode="&#xdc;" horiz-adv-x="729" 
d="M493 830c0 -17 -12 -30 -23 -41c-23 7 -55 11 -55 42c0 16 23 44 39 44c20 0 39 -26 39 -45zM338 828c0 -26 -30 -35 -51 -36c-13 9 -31 19 -31 37c0 17 12 31 27 38c23 0 55 -12 55 -39zM673 541c0 -92 -14 -184 -46 -270c-43 -117 -160 -281 -298 -281
c-79 0 -136 65 -174 127c-61 101 -87 275 -87 392c0 44 4 116 22 156c11 25 24 39 52 44c8 -2 25 -10 25 -20c0 -9 -18 -25 -23 -33c-17 -27 -21 -121 -21 -155c0 -124 41 -464 210 -464c52 0 100 31 135 67c113 115 161 271 161 430c0 56 -23 110 -23 166c0 16 14 25 28 25
c21 0 33 -16 33 -36c0 -49 6 -99 6 -148z" />
    <glyph glyph-name="Ugrave" unicode="&#xd9;" horiz-adv-x="729" 
d="M430 803c-3 -7 -4 -14 -13 -14c-13 0 -100 56 -118 67c-4 5 -6 12 -6 18c0 21 17 35 37 35h6c43 -35 63 -60 94 -106zM673 541c0 -92 -14 -184 -46 -270c-43 -117 -160 -281 -298 -281c-79 0 -136 65 -174 127c-61 101 -87 275 -87 392c0 44 4 116 22 156
c11 25 24 39 52 44c8 -2 25 -10 25 -20c0 -9 -18 -25 -23 -33c-17 -27 -21 -121 -21 -155c0 -124 41 -464 210 -464c52 0 100 31 135 67c113 115 161 271 161 430c0 56 -23 110 -23 166c0 16 14 25 28 25c21 0 33 -16 33 -36c0 -49 6 -99 6 -148z" />
    <glyph glyph-name="Yacute" unicode="&#xdd;" horiz-adv-x="608" 
d="M401 874c0 -6 -2 -13 -6 -18c-18 -11 -105 -67 -118 -67c-9 0 -10 7 -13 14c31 45 51 71 94 106h6c19 0 37 -14 37 -35zM600 697c0 -5 -2 -9 -5 -13c-3 -3 -7 -5 -11 -8c-71 -51 -265 -285 -265 -371v-112c0 -31 0 -134 10 -158c3 -7 7 -13 7 -21c0 -12 -19 -15 -28 -15
c-12 0 -24 4 -30 15c-1 105 -6 211 -12 316c-22 16 -34 40 -48 63c-45 72 -91 144 -139 214c-19 28 -41 55 -59 84c-2 3 -3 6 -3 9c0 15 20 22 32 22c10 0 17 -3 23 -11c5 -6 7 -15 10 -22c8 -17 18 -33 27 -49c30 -51 62 -100 95 -149c19 -28 38 -57 61 -83c1 0 3 -1 3 -1
c18 0 8 23 43 29c92 86 142 209 242 288c17 0 47 -5 47 -27z" />
    <glyph glyph-name="Ydieresis" unicode="&#x178;" horiz-adv-x="608" 
d="M413 830c0 -17 -13 -30 -24 -41c-23 7 -55 11 -55 42c0 16 24 44 40 44c20 0 39 -26 39 -45zM257 828c0 -26 -30 -35 -51 -36c-13 9 -30 19 -30 37c0 17 12 31 27 38c23 0 54 -12 54 -39zM600 697c0 -5 -2 -9 -5 -13c-3 -3 -7 -5 -11 -8c-71 -51 -265 -285 -265 -371
v-112c0 -31 0 -134 10 -158c3 -7 7 -13 7 -21c0 -12 -19 -15 -28 -15c-12 0 -24 4 -30 15c-1 105 -6 211 -12 316c-22 16 -34 40 -48 63c-45 72 -91 144 -139 214c-19 28 -41 55 -59 84c-2 3 -3 6 -3 9c0 15 20 22 32 22c10 0 17 -3 23 -11c5 -6 7 -15 10 -22
c8 -17 18 -33 27 -49c30 -51 62 -100 95 -149c19 -28 38 -57 61 -83c1 0 3 -1 3 -1c18 0 8 23 43 29c92 86 142 209 242 288c17 0 47 -5 47 -27z" />
    <glyph glyph-name="Zcaron" unicode="&#x17d;" horiz-adv-x="541" 
d="M519 21c0 -8 -3 -15 -9 -21c-153 -4 -305 -10 -458 -10c-10 7 -19 16 -21 28c14 27 30 53 45 80c109 193 208 391 325 579c-19 7 -66 9 -87 9c-35 0 -71 -3 -106 -3c-33 0 -66 -11 -99 -11c-11 0 -23 12 -30 20v5c-1 30 34 31 57 31c108 0 215 -5 323 -8
c11 -7 32 -21 32 -36c0 -22 -37 -3 -44 -34c-59 -83 -109 -172 -159 -261c-63 -114 -124 -228 -180 -346c26 -11 67 -11 95 -11c88 0 176 13 264 12c4 2 9 3 13 3c15 0 30 -15 39 -26zM373 871c0 -3 0 -5 -1 -8c-23 -22 -68 -47 -96 -63v-1c-39 16 -78 45 -108 75
c1 18 16 28 27 28c2 0 66 -50 77 -55c23 14 54 40 79 52c13 -6 22 -11 22 -28z" />
    <glyph glyph-name="aacute" unicode="&#xe1;" horiz-adv-x="357" 
d="M288 874c0 -6 -2 -13 -6 -18c-18 -11 -105 -67 -118 -67c-9 0 -10 7 -13 14c31 45 51 71 94 106h6c19 0 37 -14 37 -35zM335 27c-10 -14 -19 -19 -36 -19c-2 0 -5 0 -7 1c-7 17 -8 39 -11 57l-9 60c-7 44 -10 89 -20 133c-48 -4 -96 -3 -143 -14
c-17 -57 -44 -176 -40 -233c-4 -7 -11 -14 -20 -14c-15 0 -29 16 -29 31c0 2 0 5 1 7c14 60 24 121 37 181c33 153 69 306 106 458c-2 8 -5 16 -5 24c0 12 15 26 27 26c15 0 24 -23 28 -35c5 -14 7 -29 10 -44c21 -112 36 -226 61 -338c14 -5 27 -12 29 -29
c-3 -9 -10 -16 -19 -18c11 -78 16 -158 40 -234zM244 299c-18 99 -31 200 -55 298c-28 -101 -56 -203 -71 -307c42 1 84 2 126 9z" />
    <glyph glyph-name="acircumflex" unicode="&#xe2;" horiz-adv-x="357" 
d="M335 27c-10 -14 -19 -19 -36 -19c-2 0 -5 0 -7 1c-7 17 -8 39 -11 57l-9 60c-7 44 -10 89 -20 133c-48 -4 -96 -3 -143 -14c-17 -57 -44 -176 -40 -233c-4 -7 -11 -14 -20 -14c-15 0 -29 16 -29 31c0 2 0 5 1 7c14 60 24 121 37 181c33 153 69 306 106 458
c-2 8 -5 16 -5 24c0 12 15 26 27 26c15 0 24 -23 28 -35c5 -14 7 -29 10 -44c21 -112 36 -226 61 -338c14 -5 27 -12 29 -29c-3 -9 -10 -16 -19 -18c11 -78 16 -158 40 -234zM244 299c-18 99 -31 200 -55 298c-28 -101 -56 -203 -71 -307c42 1 84 2 126 9zM276 809
c-6 -12 -18 -16 -30 -16c-5 0 -10 1 -14 3c-5 18 -31 51 -48 61c-22 -9 -42 -43 -53 -62c-4 -1 -8 -2 -12 -2c-10 0 -22 5 -22 17c0 18 61 90 80 90c35 0 87 -61 99 -91z" />
    <glyph glyph-name="adieresis" unicode="&#xe4;" horiz-adv-x="357" 
d="M307 830c0 -17 -12 -30 -23 -41c-23 7 -55 11 -55 42c0 16 23 44 39 44c20 0 39 -26 39 -45zM152 828c0 -26 -30 -35 -51 -36c-13 9 -31 19 -31 37c0 17 12 31 27 38c23 0 55 -12 55 -39zM335 27c-10 -14 -19 -19 -36 -19c-2 0 -5 0 -7 1c-7 17 -8 39 -11 57l-9 60
c-7 44 -10 89 -20 133c-48 -4 -96 -3 -143 -14c-17 -57 -44 -176 -40 -233c-4 -7 -11 -14 -20 -14c-15 0 -29 16 -29 31c0 2 0 5 1 7c14 60 24 121 37 181c33 153 69 306 106 458c-2 8 -5 16 -5 24c0 12 15 26 27 26c15 0 24 -23 28 -35c5 -14 7 -29 10 -44
c21 -112 36 -226 61 -338c14 -5 27 -12 29 -29c-3 -9 -10 -16 -19 -18c11 -78 16 -158 40 -234zM244 299c-18 99 -31 200 -55 298c-28 -101 -56 -203 -71 -307c42 1 84 2 126 9z" />
    <glyph glyph-name="agrave" unicode="&#xe0;" horiz-adv-x="357" 
d="M228 803c-3 -7 -4 -14 -13 -14c-13 0 -100 56 -118 67c-4 5 -6 12 -6 18c0 21 17 35 37 35h6c43 -35 63 -60 94 -106zM335 27c-10 -14 -19 -19 -36 -19c-2 0 -5 0 -7 1c-7 17 -8 39 -11 57l-9 60c-7 44 -10 89 -20 133c-48 -4 -96 -3 -143 -14c-17 -57 -44 -176 -40 -233
c-4 -7 -11 -14 -20 -14c-15 0 -29 16 -29 31c0 2 0 5 1 7c14 60 24 121 37 181c33 153 69 306 106 458c-2 8 -5 16 -5 24c0 12 15 26 27 26c15 0 24 -23 28 -35c5 -14 7 -29 10 -44c21 -112 36 -226 61 -338c14 -5 27 -12 29 -29c-3 -9 -10 -16 -19 -18
c11 -78 16 -158 40 -234zM244 299c-18 99 -31 200 -55 298c-28 -101 -56 -203 -71 -307c42 1 84 2 126 9z" />
    <glyph glyph-name="aring" unicode="&#xe5;" horiz-adv-x="357" 
d="M274 872c0 -38 -44 -65 -73 -82h-3c-43 0 -83 19 -83 67c0 57 43 84 96 84c33 0 63 -38 63 -69zM234 879c0 18 -30 28 -44 31c-21 -18 -30 -38 -30 -65c0 -10 8 -18 16 -21c25 4 58 27 58 55zM335 27c-10 -14 -19 -19 -36 -19c-2 0 -5 0 -7 1c-7 17 -8 39 -11 57l-9 60
c-7 44 -10 89 -20 133c-48 -4 -96 -3 -143 -14c-17 -57 -44 -176 -40 -233c-4 -7 -11 -14 -20 -14c-15 0 -29 16 -29 31c0 2 0 5 1 7c14 60 24 121 37 181c33 153 69 306 106 458c-2 8 -5 16 -5 24c0 12 15 26 27 26c15 0 24 -23 28 -35c5 -14 7 -29 10 -44
c21 -112 36 -226 61 -338c14 -5 27 -12 29 -29c-3 -9 -10 -16 -19 -18c11 -78 16 -158 40 -234zM244 299c-18 99 -31 200 -55 298c-28 -101 -56 -203 -71 -307c42 1 84 2 126 9z" />
    <glyph glyph-name="atilde" unicode="&#xe3;" horiz-adv-x="357" 
d="M284 844c0 -28 -32 -54 -59 -54c-29 0 -51 26 -70 26c-15 0 -25 -26 -46 -26c-12 0 -20 8 -20 20c0 29 30 54 58 54c30 0 53 -25 83 -25c16 0 25 18 41 18c7 0 13 -6 13 -13zM335 27c-10 -14 -19 -19 -36 -19c-2 0 -5 0 -7 1c-7 17 -8 39 -11 57l-9 60
c-7 44 -10 89 -20 133c-48 -4 -96 -3 -143 -14c-17 -57 -44 -176 -40 -233c-4 -7 -11 -14 -20 -14c-15 0 -29 16 -29 31c0 2 0 5 1 7c14 60 24 121 37 181c33 153 69 306 106 458c-2 8 -5 16 -5 24c0 12 15 26 27 26c15 0 24 -23 28 -35c5 -14 7 -29 10 -44
c21 -112 36 -226 61 -338c14 -5 27 -12 29 -29c-3 -9 -10 -16 -19 -18c11 -78 16 -158 40 -234zM244 299c-18 99 -31 200 -55 298c-28 -101 -56 -203 -71 -307c42 1 84 2 126 9z" />
    <glyph glyph-name="ccedilla" unicode="&#xe7;" horiz-adv-x="284" 
d="M262 708c-104 -72 -173 -230 -173 -355c0 -108 50 -227 125 -304c5 -5 12 -9 17 -14c6 -6 7 -9 7 -17c0 -36 -37 -66 -66 -82c33 -23 60 -34 60 -82c0 -32 -30 -78 -65 -78c-30 0 -46 30 -46 57c4 10 12 21 24 21s21 -11 21 -23c0 -2 0 -5 -1 -7c-2 0 -7 0 -7 -3
s5 -7 7 -9c20 5 31 24 31 44c0 39 -52 51 -71 80v2c0 11 65 40 65 55c0 1 0 2 -1 3c-15 16 -29 31 -42 49c-66 89 -101 200 -101 311c0 148 62 281 174 377c3 0 6 1 9 1c15 0 27 -14 33 -26z" />
    <glyph glyph-name="eacute" unicode="&#xe9;" horiz-adv-x="310" 
d="M277 874c0 -6 -2 -13 -6 -18c-18 -11 -105 -67 -118 -67c-9 0 -10 7 -13 14c31 45 51 71 94 106h6c19 0 37 -14 37 -35zM286 700c0 -11 -10 -19 -18 -25c-31 2 -61 12 -92 12c-9 0 -23 0 -32 -4c-27 -11 -21 -225 -23 -263c30 -4 62 1 91 -10c-1 -16 -5 -29 -19 -38
c-11 2 -22 3 -33 3c-12 0 -24 -2 -36 -6c-4 -20 -5 -41 -5 -61c0 -36 0 -243 28 -254c4 -2 9 -2 14 -2c32 0 58 24 87 24c12 0 22 -7 29 -16v-3c0 -13 -5 -19 -16 -26c-30 -1 -59 -7 -88 -16c-21 -7 -42 -16 -65 -16c-14 6 -23 19 -26 33c3 17 5 34 5 51c0 30 -4 61 -5 91
c-3 72 -4 145 -4 217c0 105 3 209 10 314l6 -1c-1 2 -1 4 -1 6c0 5 5 15 11 15h42c16 0 133 0 138 -13c1 -4 2 -8 2 -12z" />
    <glyph glyph-name="ecircumflex" unicode="&#xea;" horiz-adv-x="310" 
d="M286 700c0 -11 -10 -19 -18 -25c-31 2 -61 12 -92 12c-9 0 -23 0 -32 -4c-27 -11 -21 -225 -23 -263c30 -4 62 1 91 -10c-1 -16 -5 -29 -19 -38c-11 2 -22 3 -33 3c-12 0 -24 -2 -36 -6c-4 -20 -5 -41 -5 -61c0 -36 0 -243 28 -254c4 -2 9 -2 14 -2c32 0 58 24 87 24
c12 0 22 -7 29 -16v-3c0 -13 -5 -19 -16 -26c-30 -1 -59 -7 -88 -16c-21 -7 -42 -16 -65 -16c-14 6 -23 19 -26 33c3 17 5 34 5 51c0 30 -4 61 -5 91c-3 72 -4 145 -4 217c0 105 3 209 10 314l6 -1c-1 2 -1 4 -1 6c0 5 5 15 11 15h42c16 0 133 0 138 -13c1 -4 2 -8 2 -12z
M276 809c-6 -12 -18 -16 -30 -16c-5 0 -10 1 -14 3c-5 18 -31 51 -48 61c-22 -9 -42 -43 -53 -62c-4 -1 -8 -2 -12 -2c-10 0 -22 5 -22 17c0 18 61 90 80 90c35 0 87 -61 99 -91z" />
    <glyph glyph-name="edieresis" unicode="&#xeb;" horiz-adv-x="310" 
d="M308 830c0 -17 -12 -30 -23 -41c-23 7 -55 11 -55 42c0 16 23 44 39 44c20 0 39 -26 39 -45zM153 828c0 -26 -30 -35 -51 -36c-13 9 -31 19 -31 37c0 17 12 31 27 38c23 0 55 -12 55 -39zM286 700c0 -11 -10 -19 -18 -25c-31 2 -61 12 -92 12c-9 0 -23 0 -32 -4
c-27 -11 -21 -225 -23 -263c30 -4 62 1 91 -10c-1 -16 -5 -29 -19 -38c-11 2 -22 3 -33 3c-12 0 -24 -2 -36 -6c-4 -20 -5 -41 -5 -61c0 -36 0 -243 28 -254c4 -2 9 -2 14 -2c32 0 58 24 87 24c12 0 22 -7 29 -16v-3c0 -13 -5 -19 -16 -26c-30 -1 -59 -7 -88 -16
c-21 -7 -42 -16 -65 -16c-14 6 -23 19 -26 33c3 17 5 34 5 51c0 30 -4 61 -5 91c-3 72 -4 145 -4 217c0 105 3 209 10 314l6 -1c-1 2 -1 4 -1 6c0 5 5 15 11 15h42c16 0 133 0 138 -13c1 -4 2 -8 2 -12z" />
    <glyph glyph-name="egrave" unicode="&#xe8;" horiz-adv-x="310" 
d="M249 803c-3 -7 -4 -14 -13 -14c-13 0 -100 56 -118 67c-4 5 -6 12 -6 18c0 21 17 35 37 35h6c43 -35 63 -60 94 -106zM286 700c0 -11 -10 -19 -18 -25c-31 2 -61 12 -92 12c-9 0 -23 0 -32 -4c-27 -11 -21 -225 -23 -263c30 -4 62 1 91 -10c-1 -16 -5 -29 -19 -38
c-11 2 -22 3 -33 3c-12 0 -24 -2 -36 -6c-4 -20 -5 -41 -5 -61c0 -36 0 -243 28 -254c4 -2 9 -2 14 -2c32 0 58 24 87 24c12 0 22 -7 29 -16v-3c0 -13 -5 -19 -16 -26c-30 -1 -59 -7 -88 -16c-21 -7 -42 -16 -65 -16c-14 6 -23 19 -26 33c3 17 5 34 5 51c0 30 -4 61 -5 91
c-3 72 -4 145 -4 217c0 105 3 209 10 314l6 -1c-1 2 -1 4 -1 6c0 5 5 15 11 15h42c16 0 133 0 138 -13c1 -4 2 -8 2 -12z" />
    <glyph glyph-name="iacute" unicode="&#xed;" horiz-adv-x="199" 
d="M190 874c0 -6 -2 -13 -6 -18c-18 -11 -105 -67 -118 -67c-9 0 -10 7 -13 14c31 45 51 71 94 106h6c19 0 37 -14 37 -35zM126 705c0 -16 -1 -31 -2 -47c-5 -120 -7 -241 -7 -361c0 -63 1 -125 3 -188c1 -28 5 -57 5 -85c0 -12 -6 -26 -20 -26c-10 0 -20 5 -29 10l-6 13
c6 140 8 281 8 422v78c0 41 0 81 -3 122c-1 20 -5 39 -5 59c0 15 16 23 29 23c11 0 27 -7 27 -20z" />
    <glyph glyph-name="icircumflex" unicode="&#xee;" horiz-adv-x="199" 
d="M126 705c0 -16 -1 -31 -2 -47c-5 -120 -7 -241 -7 -361c0 -63 1 -125 3 -188c1 -28 5 -57 5 -85c0 -12 -6 -26 -20 -26c-10 0 -20 5 -29 10l-6 13c6 140 8 281 8 422v78c0 41 0 81 -3 122c-1 20 -5 39 -5 59c0 15 16 23 29 23c11 0 27 -7 27 -20zM191 809
c-6 -12 -18 -16 -30 -16c-5 0 -10 1 -14 3c-5 18 -31 51 -48 61c-22 -9 -42 -43 -53 -62c-4 -1 -8 -2 -12 -2c-10 0 -22 5 -22 17c0 18 61 90 80 90c35 0 87 -61 99 -91z" />
    <glyph glyph-name="idieresis" unicode="&#xef;" horiz-adv-x="199" 
d="M210 830c0 -17 -12 -30 -23 -41c-23 7 -55 11 -55 42c0 16 23 44 39 44c20 0 39 -26 39 -45zM55 828c0 -26 -30 -35 -51 -36c-13 9 -31 19 -31 37c0 17 12 31 27 38c23 0 55 -12 55 -39zM126 705c0 -16 -1 -31 -2 -47c-5 -120 -7 -241 -7 -361c0 -63 1 -125 3 -188
c1 -28 5 -57 5 -85c0 -12 -6 -26 -20 -26c-10 0 -20 5 -29 10l-6 13c6 140 8 281 8 422v78c0 41 0 81 -3 122c-1 20 -5 39 -5 59c0 15 16 23 29 23c11 0 27 -7 27 -20z" />
    <glyph glyph-name="igrave" unicode="&#xec;" horiz-adv-x="199" 
d="M155 802c-3 -7 -4 -14 -13 -14c-13 0 -100 56 -118 67c-4 5 -6 12 -6 18c0 21 17 35 37 35h6c43 -35 63 -60 94 -106zM126 705c0 -16 -1 -31 -2 -47c-5 -120 -7 -241 -7 -361c0 -63 1 -125 3 -188c1 -28 5 -57 5 -85c0 -12 -6 -26 -20 -26c-10 0 -20 5 -29 10l-6 13
c6 140 8 281 8 422v78c0 41 0 81 -3 122c-1 20 -5 39 -5 59c0 15 16 23 29 23c11 0 27 -7 27 -20z" />
    <glyph glyph-name="ntilde" unicode="&#xf1;" horiz-adv-x="399" 
d="M299 844c0 -28 -32 -54 -59 -54c-29 0 -51 26 -70 26c-15 0 -25 -26 -46 -26c-12 0 -20 8 -20 20c0 29 30 54 58 54c30 0 53 -25 83 -25c16 0 25 18 41 18c7 0 13 -6 13 -13zM326 694c0 -36 -2 -73 -3 -109c-2 -77 -3 -155 -3 -232c0 -115 1 -229 2 -344
c-4 -6 -10 -10 -17 -10c-9 0 -17 5 -26 7c-3 9 -3 28 -3 44v20c0 70 1 139 1 209c0 17 0 34 -1 51c-7 13 -7 28 -11 41c-12 35 -112 161 -143 182c-2 -12 -2 -24 -2 -35v-24c0 -78 -3 -156 -3 -234v-22c0 -46 1 -122 10 -151c2 -7 5 -14 5 -21c0 -13 -10 -17 -21 -17
c-15 0 -28 8 -34 22c2 7 4 14 4 21c0 73 -4 145 -4 218v286c0 19 0 39 1 58c1 13 6 47 24 47s26 -22 26 -37c0 -11 -7 -19 -7 -30c0 -1 0 -3 1 -4c15 -25 37 -45 56 -67c34 -39 68 -77 99 -119c2 18 3 37 3 55c0 52 -6 105 -6 157c0 9 1 51 4 57c4 7 10 12 18 12
c17 0 30 -14 30 -31z" />
    <glyph glyph-name="oacute" unicode="&#xf3;" horiz-adv-x="356" 
d="M264 874c0 -6 -2 -13 -6 -18c-18 -11 -105 -67 -118 -67c-9 0 -10 7 -13 14c31 45 51 71 94 106h6c19 0 37 -14 37 -35zM296 343c0 -79 -18 -132 -42 -206c-9 -26 -17 -53 -28 -78c-6 -13 -13 -27 -17 -41c-1 -4 -1 -9 -1 -14c-11 -6 -24 -15 -37 -15
c-29 0 -43 44 -51 66c-34 94 -55 189 -55 289c0 109 24 249 81 342c-5 3 -9 8 -9 14c0 15 12 35 29 35c30 0 61 -73 70 -97c35 -94 60 -194 60 -295zM254 344c0 104 -22 211 -71 303h-6c-45 -85 -69 -182 -69 -279c0 -71 12 -141 29 -210c5 -20 10 -43 17 -63
c4 -12 11 -28 23 -34c43 92 77 179 77 283z" />
    <glyph glyph-name="ocircumflex" unicode="&#xf4;" horiz-adv-x="356" 
d="M296 343c0 -79 -18 -132 -42 -206c-9 -26 -17 -53 -28 -78c-6 -13 -13 -27 -17 -41c-1 -4 -1 -9 -1 -14c-11 -6 -24 -15 -37 -15c-29 0 -43 44 -51 66c-34 94 -55 189 -55 289c0 109 24 249 81 342c-5 3 -9 8 -9 14c0 15 12 35 29 35c30 0 61 -73 70 -97
c35 -94 60 -194 60 -295zM254 344c0 104 -22 211 -71 303h-6c-45 -85 -69 -182 -69 -279c0 -71 12 -141 29 -210c5 -20 10 -43 17 -63c4 -12 11 -28 23 -34c43 92 77 179 77 283zM262 809c-6 -12 -18 -16 -30 -16c-5 0 -10 1 -14 3c-5 18 -31 51 -48 61
c-22 -9 -42 -43 -53 -62c-4 -1 -8 -2 -12 -2c-10 0 -22 5 -22 17c0 18 61 90 80 90c35 0 87 -61 99 -91z" />
    <glyph glyph-name="odieresis" unicode="&#xf6;" horiz-adv-x="356" 
d="M296 830c0 -17 -12 -30 -23 -41c-23 7 -55 11 -55 42c0 16 23 44 39 44c20 0 39 -26 39 -45zM141 828c0 -26 -30 -35 -51 -36c-13 9 -31 19 -31 37c0 17 12 31 27 38c23 0 55 -12 55 -39zM296 343c0 -79 -18 -132 -42 -206c-9 -26 -17 -53 -28 -78
c-6 -13 -13 -27 -17 -41c-1 -4 -1 -9 -1 -14c-11 -6 -24 -15 -37 -15c-29 0 -43 44 -51 66c-34 94 -55 189 -55 289c0 109 24 249 81 342c-5 3 -9 8 -9 14c0 15 12 35 29 35c30 0 61 -73 70 -97c35 -94 60 -194 60 -295zM254 344c0 104 -22 211 -71 303h-6
c-45 -85 -69 -182 -69 -279c0 -71 12 -141 29 -210c5 -20 10 -43 17 -63c4 -12 11 -28 23 -34c43 92 77 179 77 283z" />
    <glyph glyph-name="ograve" unicode="&#xf2;" horiz-adv-x="356" 
d="M233 803c-3 -7 -4 -14 -13 -14c-13 0 -100 56 -118 67c-4 5 -6 12 -6 18c0 21 17 35 37 35h6c43 -35 63 -60 94 -106zM296 343c0 -79 -18 -132 -42 -206c-9 -26 -17 -53 -28 -78c-6 -13 -13 -27 -17 -41c-1 -4 -1 -9 -1 -14c-11 -6 -24 -15 -37 -15c-29 0 -43 44 -51 66
c-34 94 -55 189 -55 289c0 109 24 249 81 342c-5 3 -9 8 -9 14c0 15 12 35 29 35c30 0 61 -73 70 -97c35 -94 60 -194 60 -295zM254 344c0 104 -22 211 -71 303h-6c-45 -85 -69 -182 -69 -279c0 -71 12 -141 29 -210c5 -20 10 -43 17 -63c4 -12 11 -28 23 -34
c43 92 77 179 77 283z" />
    <glyph glyph-name="otilde" unicode="&#xf5;" horiz-adv-x="356" 
d="M267 844c0 -28 -32 -54 -59 -54c-29 0 -51 26 -70 26c-15 0 -25 -26 -46 -26c-12 0 -20 8 -20 20c0 29 30 54 58 54c30 0 53 -25 83 -25c16 0 25 18 41 18c7 0 13 -6 13 -13zM296 343c0 -79 -18 -132 -42 -206c-9 -26 -17 -53 -28 -78c-6 -13 -13 -27 -17 -41
c-1 -4 -1 -9 -1 -14c-11 -6 -24 -15 -37 -15c-29 0 -43 44 -51 66c-34 94 -55 189 -55 289c0 109 24 249 81 342c-5 3 -9 8 -9 14c0 15 12 35 29 35c30 0 61 -73 70 -97c35 -94 60 -194 60 -295zM254 344c0 104 -22 211 -71 303h-6c-45 -85 -69 -182 -69 -279
c0 -71 12 -141 29 -210c5 -20 10 -43 17 -63c4 -12 11 -28 23 -34c43 92 77 179 77 283z" />
    <glyph glyph-name="scaron" unicode="&#x161;" horiz-adv-x="263" 
d="M223 702c0 -7 -1 -14 -3 -20c-73 -30 -135 -106 -135 -187c0 -119 137 -211 137 -318c0 -61 -43 -178 -117 -178c-23 0 -30 16 -30 37c0 7 2 18 12 18c5 0 10 -2 14 -5c51 7 78 86 78 131c0 74 -137 187 -137 320c0 89 73 182 147 226c2 1 4 1 6 1c14 0 28 -10 28 -25z
M89 883c6 12 18 16 30 16c5 0 10 -1 14 -3c5 -18 31 -51 48 -61c22 9 42 43 53 62c4 1 8 2 12 2c10 0 22 -11 22 -17c0 -18 -58 -90 -92 -90c-35 0 -75 61 -87 91z" />
    <glyph glyph-name="uacute" unicode="&#xfa;" horiz-adv-x="441" 
d="M328 874c0 -6 -2 -13 -6 -18c-18 -11 -105 -67 -118 -67c-9 0 -10 7 -13 14c31 45 51 71 94 106h6c19 0 37 -14 37 -35zM387 503c0 -38 -2 -75 -5 -113c-7 -79 -31 -154 -54 -230c-4 -13 -7 -27 -12 -40c-11 -28 -26 -56 -44 -81c-13 -18 -42 -49 -66 -49
c-12 0 -23 2 -34 6c-60 19 -70 78 -83 132c-18 76 -25 153 -25 231c0 74 5 147 8 221c1 30 2 59 4 89c1 13 5 42 16 51c4 3 11 5 16 5c17 0 27 -18 27 -33c0 -13 -8 -24 -11 -37c-5 -26 -4 -55 -6 -82c-4 -61 -7 -123 -7 -184c0 -81 5 -161 21 -240c3 -14 5 -28 10 -41
c8 -22 30 -65 57 -65c35 0 73 90 83 119c42 116 62 238 62 361c0 36 -1 73 -4 109c-11 18 -23 38 -23 60c0 18 4 33 25 33c19 0 31 -11 35 -29c5 -19 4 -40 5 -60c3 -44 5 -89 5 -133z" />
    <glyph glyph-name="ucircumflex" unicode="&#xfb;" horiz-adv-x="441" 
d="M387 503c0 -38 -2 -75 -5 -113c-7 -79 -31 -154 -54 -230c-4 -13 -7 -27 -12 -40c-11 -28 -26 -56 -44 -81c-13 -18 -42 -49 -66 -49c-12 0 -23 2 -34 6c-60 19 -70 78 -83 132c-18 76 -25 153 -25 231c0 74 5 147 8 221c1 30 2 59 4 89c1 13 5 42 16 51c4 3 11 5 16 5
c17 0 27 -18 27 -33c0 -13 -8 -24 -11 -37c-5 -26 -4 -55 -6 -82c-4 -61 -7 -123 -7 -184c0 -81 5 -161 21 -240c3 -14 5 -28 10 -41c8 -22 30 -65 57 -65c35 0 73 90 83 119c42 116 62 238 62 361c0 36 -1 73 -4 109c-11 18 -23 38 -23 60c0 18 4 33 25 33
c19 0 31 -11 35 -29c5 -19 4 -40 5 -60c3 -44 5 -89 5 -133zM322 809c-6 -12 -18 -16 -30 -16c-5 0 -10 1 -14 3c-5 18 -31 51 -48 61c-22 -9 -42 -43 -53 -62c-4 -1 -8 -2 -12 -2c-10 0 -22 5 -22 17c0 18 61 90 80 90c35 0 87 -61 99 -91z" />
    <glyph glyph-name="udieresis" unicode="&#xfc;" horiz-adv-x="441" 
d="M346 830c0 -17 -12 -30 -23 -41c-23 7 -55 11 -55 42c0 16 23 44 39 44c20 0 39 -26 39 -45zM191 828c0 -26 -30 -35 -51 -36c-13 9 -31 19 -31 37c0 17 12 31 27 38c23 0 55 -12 55 -39zM387 503c0 -38 -2 -75 -5 -113c-7 -79 -31 -154 -54 -230c-4 -13 -7 -27 -12 -40
c-11 -28 -26 -56 -44 -81c-13 -18 -42 -49 -66 -49c-12 0 -23 2 -34 6c-60 19 -70 78 -83 132c-18 76 -25 153 -25 231c0 74 5 147 8 221c1 30 2 59 4 89c1 13 5 42 16 51c4 3 11 5 16 5c17 0 27 -18 27 -33c0 -13 -8 -24 -11 -37c-5 -26 -4 -55 -6 -82
c-4 -61 -7 -123 -7 -184c0 -81 5 -161 21 -240c3 -14 5 -28 10 -41c8 -22 30 -65 57 -65c35 0 73 90 83 119c42 116 62 238 62 361c0 36 -1 73 -4 109c-11 18 -23 38 -23 60c0 18 4 33 25 33c19 0 31 -11 35 -29c5 -19 4 -40 5 -60c3 -44 5 -89 5 -133z" />
    <glyph glyph-name="ugrave" unicode="&#xf9;" horiz-adv-x="441" 
d="M284 803c-3 -7 -4 -14 -13 -14c-13 0 -100 56 -118 67c-4 5 -6 12 -6 18c0 21 17 35 37 35h6c43 -35 63 -60 94 -106zM387 503c0 -38 -2 -75 -5 -113c-7 -79 -31 -154 -54 -230c-4 -13 -7 -27 -12 -40c-11 -28 -26 -56 -44 -81c-13 -18 -42 -49 -66 -49
c-12 0 -23 2 -34 6c-60 19 -70 78 -83 132c-18 76 -25 153 -25 231c0 74 5 147 8 221c1 30 2 59 4 89c1 13 5 42 16 51c4 3 11 5 16 5c17 0 27 -18 27 -33c0 -13 -8 -24 -11 -37c-5 -26 -4 -55 -6 -82c-4 -61 -7 -123 -7 -184c0 -81 5 -161 21 -240c3 -14 5 -28 10 -41
c8 -22 30 -65 57 -65c35 0 73 90 83 119c42 116 62 238 62 361c0 36 -1 73 -4 109c-11 18 -23 38 -23 60c0 18 4 33 25 33c19 0 31 -11 35 -29c5 -19 4 -40 5 -60c3 -44 5 -89 5 -133z" />
    <glyph glyph-name="yacute" unicode="&#xfd;" horiz-adv-x="329" 
d="M276 874c0 -6 -2 -13 -6 -18c-18 -11 -105 -67 -118 -67c-9 0 -10 7 -13 14c31 45 51 71 94 106h6c19 0 37 -14 37 -35zM333 691c0 -14 -16 -35 -23 -47c-40 -71 -62 -134 -89 -210c-9 -25 -19 -50 -27 -75c-10 -32 -10 -73 -10 -107v-156c0 -30 5 -59 8 -89
c-6 -4 -13 -6 -20 -6c-15 0 -34 0 -34 20c0 17 5 33 6 49c1 13 1 25 1 38c0 64 -3 129 -8 193c-16 19 -10 50 -10 73c0 44 -52 197 -71 243c-5 12 -38 79 -38 84c0 10 7 19 16 23h5c15 0 31 -1 38 -17c11 -26 16 -57 24 -84c21 -70 45 -139 60 -211c34 45 98 228 118 290
c6 6 17 17 26 17c14 0 28 -14 28 -28z" />
    <glyph glyph-name="ydieresis" unicode="&#xff;" horiz-adv-x="329" 
d="M300 830c0 -17 -12 -30 -23 -41c-23 7 -55 11 -55 42c0 16 23 44 39 44c20 0 39 -26 39 -45zM145 828c0 -26 -30 -35 -51 -36c-13 9 -31 19 -31 37c0 17 12 31 27 38c23 0 55 -12 55 -39zM333 691c0 -14 -16 -35 -23 -47c-40 -71 -62 -134 -89 -210
c-9 -25 -19 -50 -27 -75c-10 -32 -10 -73 -10 -107v-156c0 -30 5 -59 8 -89c-6 -4 -13 -6 -20 -6c-15 0 -34 0 -34 20c0 17 5 33 6 49c1 13 1 25 1 38c0 64 -3 129 -8 193c-16 19 -10 50 -10 73c0 44 -52 197 -71 243c-5 12 -38 79 -38 84c0 10 7 19 16 23h5
c15 0 31 -1 38 -17c11 -26 16 -57 24 -84c21 -70 45 -139 60 -211c34 45 98 228 118 290c6 6 17 17 26 17c14 0 28 -14 28 -28z" />
    <glyph glyph-name="zcaron" unicode="&#x17e;" horiz-adv-x="314" 
d="M297 700c0 -10 -4 -19 -6 -28c-69 -50 -196 -517 -204 -617c15 -17 38 -19 59 -19c12 0 24 1 36 1c24 0 44 17 68 17c16 0 28 -13 28 -29c0 -13 -10 -32 -25 -32c-7 0 -13 1 -20 2c-31 4 -61 5 -92 5c-12 0 -62 -1 -70 -7h-2c-17 0 -29 17 -37 30c3 93 48 229 77 319
c36 113 74 225 114 336c-22 4 -44 5 -66 5c-25 0 -37 -1 -61 -9c-2 -1 -4 -1 -6 -1c-16 0 -27 14 -27 29c0 20 9 24 27 24c38 0 75 -6 113 -6c12 0 23 1 35 3c6 7 14 11 23 11c17 0 36 -17 36 -34zM260 861c0 -3 0 -5 -1 -8c-23 -22 -68 -47 -96 -63v-1
c-39 16 -78 45 -108 75c1 18 16 28 27 28c2 0 66 -50 77 -55c23 14 54 40 79 52c13 -6 22 -11 22 -28z" />
    <glyph glyph-name="zero.oldstyle" unicode="&#xf730;" 
d="M380 255c0 -85 -66 -178 -130 -230c-22 -18 -48 -35 -77 -35c-24 0 -48 10 -68 24c-54 39 -63 129 -63 191c0 77 17 199 70 257c96 -34 215 -37 257 -148c7 -19 11 -39 11 -59zM336 240c0 75 -62 155 -141 155c-18 0 -35 -5 -51 -13c-38 -52 -53 -137 -53 -200
c0 -55 12 -143 84 -143h10c66 33 151 123 151 201z" />
    <glyph glyph-name="one.oldstyle" unicode="&#xf731;" horiz-adv-x="277" 
d="M195 422c0 -17 -9 -31 -13 -47s-4 -33 -5 -49c-4 -54 -8 -107 -8 -161s2 -109 4 -163c-4 -2 -8 -3 -12 -3c-19 0 -36 11 -46 26c9 45 12 91 12 137v104c0 19 -1 96 -7 110c-5 12 -15 19 -28 19c-15 0 -39 -11 -41 -11c-7 0 -17 1 -17 10c0 3 1 6 2 9c8 18 110 49 131 49
c19 0 28 -12 28 -30z" />
    <glyph glyph-name="two.oldstyle" unicode="&#xf732;" horiz-adv-x="351" 
d="M336 28c0 -27 -80 -28 -98 -28h-70c-37 0 -78 1 -114 11c-5 4 -8 10 -8 16c0 30 25 17 44 24c71 85 177 208 177 324c0 23 -11 35 -34 35c-70 0 -150 -102 -143 -169c-3 -2 -6 -3 -10 -3c-9 0 -21 7 -28 12c-3 7 -4 15 -4 23c0 76 103 179 179 179c55 0 82 -44 82 -95
c0 -108 -103 -224 -164 -309c19 -4 38 -6 57 -6c41 0 81 7 122 7c5 -5 12 -14 12 -21z" />
    <glyph glyph-name="three.oldstyle" unicode="&#xf733;" horiz-adv-x="316" 
d="M303 414c0 -30 -47 -63 -68 -81c-52 -43 -94 -96 -127 -155c17 -17 38 -30 59 -43c20 -12 41 -24 58 -40c36 -33 60 -81 60 -131c0 -73 -61 -150 -138 -150c-41 0 -98 23 -119 59c4 9 18 33 28 33c11 0 38 -50 88 -50c53 0 99 53 99 105c0 84 -83 130 -148 165
c-18 10 -31 16 -36 37c-1 4 -1 9 -1 13v7c52 80 114 154 187 216c-15 9 -33 11 -50 11c-36 0 -72 -8 -108 -8c-10 4 -19 13 -19 25c0 8 9 22 18 22c35 0 70 -3 106 -3c15 0 30 0 45 2c9 1 18 4 27 4c21 0 39 -17 39 -38z" />
    <glyph glyph-name="four.oldstyle" unicode="&#xf734;" horiz-adv-x="371" 
d="M310 120c0 -14 -10 -25 -21 -32c-4 -51 -9 -103 -9 -154c0 -33 3 -67 7 -100c-2 -5 -11 -18 -17 -18c-16 0 -35 6 -35 25c0 48 2 95 2 143c0 37 -2 73 -5 110l-12 11c-31 -1 -61 -3 -92 -3c-25 0 -50 2 -75 8c-8 6 -15 16 -15 27c0 10 5 18 10 26c57 91 116 181 159 280
c8 6 17 9 27 9c9 0 21 -4 21 -15c-39 -98 -100 -186 -152 -277c22 -6 44 -10 67 -10c19 0 38 2 57 6c16 13 13 33 13 51c0 23 11 24 31 24c14 0 32 -7 33 -23c-4 -8 -6 -16 -6 -25c0 -22 12 -41 12 -63z" />
    <glyph glyph-name="five.oldstyle" unicode="&#xf735;" horiz-adv-x="320" 
d="M318 415c-8 -13 -26 -12 -39 -12c-20 0 -41 2 -61 2c-36 0 -59 -1 -81 -33c-23 -32 -37 -90 -37 -129c0 -116 108 -221 162 -317c-12 -51 -60 -101 -112 -110h-1c-10 0 -16 9 -16 18c0 15 29 25 39 33c15 12 30 38 30 57c0 65 -151 190 -151 319c0 61 50 143 72 203
c7 4 15 6 23 6c24 0 49 -6 73 -6c20 0 39 3 58 7c18 -6 37 -18 41 -38z" />
    <glyph glyph-name="six.oldstyle" unicode="&#xf736;" horiz-adv-x="379" 
d="M350 216c0 -53 -15 -104 -46 -147c-29 -39 -75 -77 -126 -77c-30 0 -47 11 -67 31c-46 46 -61 110 -61 173c0 150 75 314 158 436c14 21 64 93 90 93c20 0 37 -21 43 -38c-106 -65 -184 -203 -213 -322c27 10 55 17 84 17c94 0 138 -81 138 -166zM306 213
c0 65 -33 126 -105 126c-79 0 -100 -92 -100 -155c0 -49 11 -145 77 -145c85 0 128 101 128 174z" />
    <glyph glyph-name="seven.oldstyle" unicode="&#xf737;" horiz-adv-x="289" 
d="M275 387c-71 -123 -168 -367 -168 -508c0 -12 0 -23 2 -35c1 -5 3 -10 3 -15c0 -16 -21 -21 -33 -21c-11 0 -33 4 -33 19c0 132 87 353 131 482c3 7 24 71 24 72c0 24 -42 26 -59 26c-26 0 -52 -4 -78 -4c-25 0 -49 8 -49 37c0 6 7 10 12 10c23 0 47 -2 70 -2
c33 0 67 5 100 5c53 0 79 -6 78 -66z" />
    <glyph glyph-name="eight.oldstyle" unicode="&#xf738;" horiz-adv-x="347" 
d="M310 139c0 -71 -48 -120 -108 -150c-85 6 -152 47 -152 140c0 82 45 176 86 246c-40 45 -73 105 -73 167c0 107 91 181 191 193c26 -34 37 -78 37 -120c0 -83 -37 -165 -79 -234c42 -69 98 -159 98 -242zM246 611c0 27 -6 55 -18 79c-59 -20 -119 -80 -119 -146
c0 -45 32 -92 62 -123c41 50 75 125 75 190zM260 129c0 66 -43 157 -83 209c-40 -53 -78 -138 -78 -205c0 -35 11 -67 43 -86c7 -4 19 -10 27 -10c56 0 91 37 91 92z" />
    <glyph glyph-name="nine.oldstyle" unicode="&#xf739;" horiz-adv-x="379" 
d="M337 268c0 -170 -25 -244 -122 -383c-19 -28 -48 -75 -86 -75c-16 0 -42 7 -47 25c79 51 140 124 176 210c4 9 12 27 12 37c0 8 -1 21 -12 21c-17 0 -63 -36 -101 -36c-86 0 -122 103 -122 175c0 87 55 221 158 221c78 0 134 -71 142 -144c2 -17 2 -34 2 -51zM285 298
c0 60 -29 114 -95 114c-10 0 -20 -5 -29 -9c-55 -28 -79 -108 -79 -165c0 -49 18 -117 78 -117c37 0 69 28 89 57c24 35 36 78 36 120z" />
    <glyph glyph-name="Delta" unicode="&#x2206;" horiz-adv-x="413" 
d="M410 0h-409v29c62 224 124 447 187 671h40c61 -224 122 -447 182 -671v-29zM359 40c-47 179 -94 358 -142 537c-6 22 -6 37 -10 53h-2c-2 -15 -7 -36 -11 -53c-47 -179 -94 -358 -142 -537h307z" />
    <glyph glyph-name="Omega" unicode="&#x2126;" horiz-adv-x="553" 
d="M497 0h-162v41c57 62 114 156 114 337c0 173 -64 293 -172 293c-118 0 -179 -131 -179 -292c0 -173 52 -269 116 -338v-41h-162v41h117c-47 50 -118 162 -118 340c0 183 88 331 226 331c134 0 219 -128 219 -330c0 -158 -58 -279 -116 -341h117v-41z" />
    <glyph glyph-name="uni03BC" unicode="&#x3bc;" horiz-adv-x="465" 
d="M390 444c-4 -151 -17 -302 -12 -453c-5 -2 -11 -4 -17 -4c-14 0 -26 3 -35 14c1 16 2 33 3 49c-25 -29 -60 -53 -100 -53h-10v0c-39 5 -68 20 -93 50c0 -71 2 -142 10 -213c1 -9 1 -18 4 -27c4 -14 17 -42 31 -48c-4 -28 -28 -35 -52 -35c-4 0 -8 0 -12 1
c-24 28 -24 259 -24 306c0 114 1 227 1 341c0 25 0 51 -1 76c6 11 18 15 30 15s24 -4 31 -14c-4 -67 -9 -133 -13 -200c-1 -32 -4 -65 -4 -97c0 -29 22 -69 45 -88c18 -14 35 -21 58 -21c62 0 102 63 106 119c5 62 6 126 6 188c0 36 -1 72 -5 107c5 1 10 2 15 2
c14 0 30 -3 38 -15z" />
    <glyph glyph-name="pi" unicode="&#x3c0;" horiz-adv-x="398" 
d="M385 41l11 -37c-10 -7 -28 -10 -43 -10c-70 0 -92 59 -92 113v352h-139v-333c0 -49 -5 -98 -11 -126h-48c9 36 12 85 12 126v333c-19 0 -56 -7 -74 -15c-5 13 -9 25 -14 38c13 7 42 18 102 18h305v-41h-86v-349c0 -43 12 -75 53 -75c10 0 14 2 24 6z" />
    <glyph glyph-name="Euro" unicode="&#x20ac;" 
d="M390 429c0 -9 -4 -17 -12 -21c-9 1 -19 2 -28 2c-60 0 -120 -5 -180 -6c-2 -16 -3 -31 -3 -47c65 0 130 1 195 -5c6 -6 9 -14 9 -22c0 -9 -4 -16 -12 -19c-46 3 -92 4 -138 4h-53c7 -83 39 -178 93 -242c19 -23 43 -40 66 -58c-3 -11 -14 -26 -26 -26
c-29 0 -77 49 -93 71c-55 73 -83 163 -88 253c-32 -1 -64 -3 -96 -5c-6 6 -10 15 -10 24c0 7 3 15 9 20c7 7 83 6 96 6c0 15 1 30 2 44h-15c-8 0 -57 1 -63 4c-8 4 -13 14 -13 22c0 11 7 19 15 25c27 -4 55 -5 82 -5c12 67 36 133 76 189c23 33 62 74 99 91c3 1 14 6 17 6
c11 0 20 -18 20 -28c0 -7 -3 -11 -8 -15c-16 -14 -34 -24 -49 -39c-57 -54 -90 -127 -105 -203c52 1 105 4 158 4c15 0 31 0 46 -2c6 -5 9 -14 9 -22z" />
    <glyph glyph-name="litre" unicode="&#x2113;" horiz-adv-x="435" 
d="M358 54c-25 -30 -62 -66 -115 -66c-27 0 -50 9 -65 25c-23 23 -35 60 -35 111v137l-57 -69c-10 10 -21 18 -31 28c30 36 59 72 88 108v244c0 106 39 156 101 156c58 0 83 -51 83 -96c0 -94 -47 -182 -108 -271c-6 -10 -18 -28 -26 -37v-207c0 -65 28 -86 57 -86
c33 0 59 23 83 51c8 -9 17 -18 25 -28zM279 630c0 23 -7 55 -36 55c-26 0 -50 -19 -50 -117v-172c5 6 9 13 14 21c43 70 72 142 72 213z" />
    <glyph glyph-name="estimated" unicode="&#x212e;" horiz-adv-x="614" 
d="M576 272h-419v-187c40 -40 90 -61 149 -61c88 0 152 44 199 124c12 -7 23 -14 36 -21c-59 -87 -125 -139 -235 -139c-164 0 -265 126 -265 284s100 284 264 284c170 0 265 -125 271 -284zM456 308v149c-42 42 -94 63 -151 63c-59 0 -108 -20 -148 -61v-151h299z" />
    <glyph glyph-name="partialdiff" unicode="&#x2202;" horiz-adv-x="421" 
d="M390 530c0 -41 -6 -122 -25 -210c-26 -135 -90 -328 -229 -328c-71 0 -113 62 -113 155c0 163 81 355 221 355c46 0 70 -26 90 -61h2c3 24 7 52 7 86c0 128 -39 157 -100 157c-16 0 -35 -6 -58 -18c-4 12 -8 25 -13 37c19 13 60 22 76 22c98 0 142 -61 142 -195zM327 383
c-13 53 -45 78 -88 78c-99 0 -169 -172 -169 -315c0 -82 35 -113 71 -113c82 0 144 117 186 350z" />
    <glyph glyph-name="product" unicode="&#x220f;" horiz-adv-x="517" 
d="M450 -230h-47v889h-287v-889h-47v930h381v-930z" />
    <glyph glyph-name="summation" unicode="&#x2211;" horiz-adv-x="465" 
d="M438 -230h-413v17c84 151 169 301 253 452c-77 146 -153 292 -230 438v23h366v-41h-309c73 -140 148 -279 221 -419l-240 -429h352v-41z" />
    <glyph glyph-name="uni2219" unicode="&#x2219;" horiz-adv-x="170" 
d="M128 341c0 -18 -12 -26 -29 -26c-26 0 -53 12 -53 42c0 17 13 36 32 36c30 0 50 -23 50 -52z" />
    <glyph glyph-name="radical" unicode="&#x221a;" horiz-adv-x="305" 
d="M299 728h45c-47 -247 -92 -493 -139 -740h-40l-99 360l-45 -18c-6 12 -11 25 -17 38c31 12 62 25 93 38l86 -324c38 215 77 431 116 646z" />
    <glyph glyph-name="infinity" unicode="&#x221e;" horiz-adv-x="546" 
d="M495 292c0 -75 -53 -124 -105 -124c-65 0 -102 47 -117 83h-2c-16 -35 -56 -83 -106 -83c-69 0 -115 51 -115 121c0 73 45 124 111 124c74 0 108 -66 111 -81h2c18 33 51 81 110 81c60 0 111 -46 111 -121zM448 293c0 46 -27 79 -66 79c-35 0 -60 -26 -89 -82
c26 -55 57 -81 87 -81c41 0 68 33 68 84zM253 292c-17 37 -51 80 -87 80c-50 0 -69 -38 -69 -83c0 -51 30 -80 69 -80c42 0 69 44 87 83z" />
    <glyph glyph-name="integral" unicode="&#x222b;" horiz-adv-x="378" 
d="M307 700c-6 4 -20 7 -31 7c-37 0 -63 -31 -63 -90v-693c0 -75 -37 -129 -111 -129c-14 0 -32 4 -42 9c4 13 7 25 11 38c10 -3 13 -6 30 -6c44 0 65 31 65 89v694c0 77 43 129 114 129c16 0 33 -5 38 -8c-4 -13 -7 -27 -11 -40z" />
    <glyph glyph-name="approxequal" unicode="&#x2248;" 
d="M346 333c0 -11 -5 -13 -10 -23c-17 -17 -49 -31 -79 -31c-47 0 -74 29 -103 29c-55 0 -61 -31 -80 -31c-20 0 -21 12 -21 24c0 2 0 4 1 6c18 22 47 45 85 45c49 0 72 -28 120 -28c28 0 48 22 66 22c12 0 21 -7 21 -13zM346 440c0 -11 -5 -13 -10 -23
c-17 -17 -49 -31 -79 -31c-47 0 -74 29 -103 29c-55 0 -61 -31 -80 -31c-20 0 -21 12 -21 24c0 2 0 4 1 6c18 22 47 45 85 45c49 0 72 -28 120 -28c28 0 48 22 66 22c12 0 21 -7 21 -13z" />
    <glyph glyph-name="notequal" unicode="&#x2260;" 
d="M288 558c-16 -40 -31 -78 -46 -119c18 1 37 1 56 1c12 0 25 0 37 -2c5 -6 8 -14 8 -22s-3 -17 -10 -21c-8 1 -15 2 -23 2c-28 0 -57 -2 -85 -3l-18 -50c45 -1 90 -3 134 -8c5 -6 7 -15 7 -22c0 -8 -2 -16 -10 -19c-47 4 -94 6 -142 6h-4l-13 -41
c-13 -37 -18 -67 -29 -105h-3c-16 0 -31 9 -37 22c13 41 27 82 41 123c-31 -1 -61 -3 -92 -5c-5 7 -8 15 -8 24c0 7 2 15 7 20c5 6 51 6 59 6h49l17 46c-24 -1 -47 -2 -70 -2c-17 0 -36 0 -52 4c-7 5 -10 14 -10 22c0 10 5 19 12 25c23 -4 47 -5 71 -5c21 0 43 0 65 1
c15 42 30 85 46 127c4 4 12 7 18 7c11 0 20 -4 25 -12z" />
    <glyph glyph-name="lessequal" unicode="&#x2264;" 
d="M347 95c0 -11 -6 -21 -14 -27c-69 -2 -95 -5 -164 -5c-29 0 -58 0 -86 5c-9 6 -14 16 -14 27c0 13 7 24 19 29c30 -14 80 -15 113 -15c57 0 70 5 127 11c10 -5 19 -13 19 -25zM341 216c-3 -13 -19 -35 -33 -35c-46 0 -237 133 -237 171c0 4 0 7 2 10
c19 29 155 132 197 158h4c23 0 48 -8 48 -27c0 -11 -44 -25 -52 -30c-56 -35 -94 -63 -130 -114c31 -44 146 -114 201 -133z" />
    <glyph glyph-name="greaterequal" unicode="&#x2265;" 
d="M351 98c0 -11 -6 -21 -14 -27c-69 -2 -105 -5 -174 -5c-29 0 -58 0 -86 5c-9 6 -14 16 -14 27c0 13 7 24 19 29c30 -14 80 -15 113 -15c57 0 80 5 137 11c10 -5 19 -13 19 -25zM341 358c0 -6 -3 -13 -6 -18c-114 -43 -158 -110 -231 -156c-3 0 -5 -1 -7 -1
c-13 0 -22 8 -25 20c9 33 143 128 184 157c-15 47 -69 67 -113 94c-12 7 -51 24 -60 32c-3 3 -5 9 -5 12c0 14 11 25 24 28c44 -7 128 -72 174 -106c18 -13 38 -24 54 -41c5 -6 11 -12 11 -21z" />
    <glyph glyph-name="lozenge" unicode="&#x25ca;" horiz-adv-x="387" 
d="M334 350c-43 -117 -84 -233 -127 -350h-28c-42 116 -85 233 -127 349c42 117 85 234 127 351h28c43 -117 84 -233 127 -350zM292 350c-33 93 -67 185 -99 278c-33 -93 -67 -185 -99 -278c32 -92 65 -185 98 -278c33 93 66 186 100 278z" />
    <glyph glyph-name="uni00A0" unicode="&#xa0;" horiz-adv-x="190" 
 />
    <glyph glyph-name="uni00AD" unicode="&#xad;" horiz-adv-x="308" 
d="M278 358c0 -8 -3 -15 -8 -21c-39 -1 -78 -3 -117 -3h-41c-25 0 -50 1 -74 5c-5 6 -8 13 -8 21c0 10 5 23 13 30c30 -14 80 -15 113 -15c37 0 72 5 109 9c9 -4 13 -17 13 -26z" />
    <glyph glyph-name="uni02C9" unicode="&#x2c9;" horiz-adv-x="308" 
d="M278 816c0 -8 -3 -15 -8 -21c-39 -1 -78 -3 -117 -3h-41c-25 0 -50 1 -74 5c-5 6 -8 13 -8 21c0 10 5 23 13 30c30 -14 80 -15 113 -15c37 0 72 5 109 9c9 -4 13 -17 13 -26z" />
    <glyph glyph-name="uni2215" unicode="&#x2215;" horiz-adv-x="218" 
d="M287 706c-72 -168 -153 -332 -228 -499c-31 -69 -69 -135 -94 -207h-2c-18 0 -32 14 -36 32c109 227 225 451 314 687c5 4 11 7 17 7c13 0 24 -9 29 -20z" />
    <glyph glyph-name="uni03A9" unicode="&#x3a9;" horiz-adv-x="553" 
d="M497 0h-162v41c57 62 114 156 114 337c0 173 -64 293 -172 293c-118 0 -179 -131 -179 -292c0 -173 52 -269 116 -338v-41h-162v41h117c-47 50 -118 162 -118 340c0 183 88 331 226 331c134 0 219 -128 219 -330c0 -158 -58 -279 -116 -341h117v-41z" />
    </font>
</defs>
</svg>
