<?xml version="1.0" encoding="utf-8"?>
<!-- Generator: Adobe Illustrator 17.0.0, SVG Export Plug-In . SVG Version: 6.00 Build 0)  -->
<!DOCTYPE svg PUBLIC "-//W3C//DTD SVG 1.1//EN" "http://www.w3.org/Graphics/SVG/1.1/DTD/svg11.dtd">
<svg version="1.1" id="Laag_1" xmlns="http://www.w3.org/2000/svg" xmlns:xlink="http://www.w3.org/1999/xlink" x="0px" y="0px"
	 width="146.232px" height="138.908px" viewBox="0 0 146.232 138.908" enable-background="new 0 0 146.232 138.908"
	 xml:space="preserve">
<g>
	<g>
		<g>
			<path fill="#028477" d="M43.765,45.303c-2.586-3.902-4.593-5.672-8.142-12.663c-3.171,7.303,5.343,8.108,3.873,11.012
				c-6.552-2.576-5.996-10.258-9.497-15.588c-3.383,6.111,5.062,10.031,3.479,12.736c-6.316-4.779-5.501-11.9-10.224-18.193
				c-3.502,8.305,5.323,10.405,4.351,15.025c-5.16-4.512-12.084-15.912-14.642-19.871c-2.797,12.501,9.418,12.524,11.031,18.779
				c-5.245,1.484-13.649-4.983-19.127,4.34c11.879-2.422,15.503-4.028,21.417-1.486c-3.71,2.334-8.875-0.713-13.212,6.915
				c9.599-2.76,12.415-7.82,18.609-2.516c-4.173,2.207-8.631-1.949-11.841,5.554c11.345-4.789,12.7-3.527,17.813-2.491
				c-4.03,1.368-6.604-0.338-8.62,4.869c9.108-3.361,8.886-3.933,15.345-2.416l55.136,24.636c16.675,8.629-13.525-6.838,8.883,4.483
				c-1.213,1.635-0.879,2.996-0.44,4.787c4.477-0.497,5.281,0.44,6.528,4.241c7.17-0.308,19.568,5.218,26.252,3.326
				c-4.345-5.652-15.417-10.726-19.654-15.772c-3.356,1.764-4.796,1.048-6.825-2.17c-3.513,1.91-6.691,1.873-10.32,0.329
				c-7.43-3.16-48.503-23.399-56.832-26.141L43.765,45.303z M120.647,81.299c-1.91-0.06-4.557-2.499-5.46,0.731
				c-0.383-2.132-1.645-4.928-4.488-3.831c-0.871-0.969,2.126-2.17,3.192-1.93c2.196,0.591,2.055,1.895,2.795,2.931
				c1.271,0.008,2.526-0.008,3.199-1.93c1.904,3.387,11.024,6.144,13.17,9.456c-1.14,2.738-10.244-7.983-11.61-2.829
				C120.157,83.346,119.889,82.479,120.647,81.299z"/>
		</g>
	</g>
	<g>
		<g>
			<path fill="#028477" d="M41.124,72.239c-4.392-1.621-7.056-1.863-14.051-5.407c1.756,7.766,9.101,3.385,9.63,6.597
				c-6.808,1.793-10.898-4.734-16.871-6.967c0.881,6.929,10.01,5.103,10.331,8.221c-7.92-0.125-11.468-6.352-18.997-8.639
				c2.081,8.769,10.442,5.251,12.387,9.552c-6.829-0.592-19.15-5.7-23.553-7.383c5.129,11.739,14.998,4.541,19.994,8.635
				C16.639,81.145,6.037,80.891,7.125,91.65c8.154-8.972,10.129-12.408,16.402-13.852c-1.615,4.075-7.582,4.668-6.575,13.385
				c6.114-7.898,5.398-13.644,13.529-13.024c-2.063,4.246-8.116,3.527-6.273,11.477c6.324-10.566,8.163-10.349,12.901-12.533
				c-2.443,3.484-5.528,3.628-4.078,9.021c5.363-8.092,4.846-8.422,10.953-11.015l59.04-12.695
				c18.552-2.888-14.953,2.473,9.816-1.631c-0.013,2.036,1.061,2.937,2.473,4.122c3.318-3.046,4.521-2.764,7.773-0.434
				c5.603-4.484,18.871-7.35,23.146-12.825c-6.844-1.994-18.775,0.454-25.175-1.115c-1.666,3.406-3.25,3.679-6.788,2.281
				c-1.706,3.616-4.292,5.463-8.133,6.362c-7.862,1.839-52.958,9.775-61.298,12.482L41.124,72.239z M124.421,55.863
				c-1.576,1.08-5.153,0.675-3.974,3.815c-1.569-1.494-4.239-3.005-5.884-0.44c-1.275-0.267,0.433-3.007,1.435-3.443
				c2.121-0.821,2.778,0.315,3.987,0.714c1.03-0.744,2.033-1.499,1.442-3.447c3.538,1.608,12.524-1.556,16.213-0.15
				c0.697,2.883-12.981-0.389-11.038,4.576C125.235,57.804,124.507,57.264,124.421,55.863z"/>
		</g>
	</g>
	<g>
		<g>
			<path fill="#028477" d="M68.376,99.8c-3.72,2.842-5.351,4.963-12.089,8.972c7.499,2.675,7.732-5.874,10.728-4.602
				c-2.131,6.71-9.833,6.67-14.917,10.52c6.324,2.966,9.669-5.723,12.474-4.324c-4.345,6.622-11.504,6.285-17.467,11.42
				c8.521,2.937,10.025-6.008,14.7-5.348c-4.156,5.451-15.067,13.123-18.846,15.94c12.66,1.953,11.865-10.236,17.998-12.264
				c1.832,5.134-4.058,13.952,5.611,18.793c-3.213-11.69-5.057-15.198-2.918-21.27c2.578,3.546-0.116,8.903,7.785,12.719
				c-3.397-9.392-8.634-11.864-3.757-18.399c2.482,4.015-1.366,8.743,6.335,11.442c-5.538-10.999-4.37-12.435-3.679-17.606
				c1.635,3.929,0.105,6.612,5.436,8.274c-3.964-8.862-4.519-8.602-3.439-15.148l20.888-56.662
				c7.493-17.215-5.917,13.953,3.878-9.163c1.713,1.101,3.048,0.677,4.805,0.118c-0.796-4.433,0.086-5.298,3.795-6.798
				c-0.788-7.133,3.895-19.874,1.56-26.415c-5.348,4.713-9.669,16.101-14.42,20.666c1.985,3.231,1.367,4.715-1.708,6.955
				c2.141,3.377,2.316,6.55,1.019,10.275c-2.656,7.625-20.097,49.962-22.275,58.455L68.376,99.8z M99.142,20.679
				c0.068,1.909-2.189,4.714,1.095,5.399c-2.102,0.525-4.807,1.971-3.522,4.735c-0.908,0.934-2.308-1.976-2.14-3.055
				c0.442-2.231,1.753-2.178,2.737-2.985c-0.077-1.268-0.178-2.52-2.14-3.063c3.252-2.127,5.391-11.411,8.553-13.774
				c2.808,0.954-7.279,10.756-2.045,11.773C101.217,21.031,100.371,21.357,99.142,20.679z"/>
		</g>
	</g>
</g>
</svg>
