<?xml version="1.0" encoding="utf-8"?>
<!-- Generator: Adobe Illustrator 17.0.0, SVG Export Plug-In . SVG Version: 6.00 Build 0)  -->
<!DOCTYPE svg PUBLIC "-//W3C//DTD SVG 1.1//EN" "http://www.w3.org/Graphics/SVG/1.1/DTD/svg11.dtd">
<svg version="1.1" id="Laag_1" xmlns="http://www.w3.org/2000/svg" xmlns:xlink="http://www.w3.org/1999/xlink" x="0px" y="0px"
	 width="21.219px" height="21.297px" viewBox="0 0 21.219 21.297" enable-background="new 0 0 21.219 21.297" xml:space="preserve">
<path fill="#FFFFFF" d="M16.922,0.018L4.3,0C1.925,0,0.002,1.856,0.002,4.144V7.46H0v9.399c0,2.289,1.603,4.437,4.298,4.437h6.629
	v-0.012c0-2.683,0-5.656,0-8.339c0-0.141,0-0.141-0.152-0.141c-0.868,0-1.738,0-2.608-0.002c-0.146,0-0.148,0-0.148-0.144
	c0-0.995,0-1.989,0-2.984c0-0.043,0.005-0.086,0.011-0.143h2.897V9.374c0-0.727-0.002-1.453,0.002-2.178
	c0.002-0.462,0.043-0.92,0.155-1.369c0.203-0.818,0.599-1.529,1.28-2.075c0.763-0.61,1.663-0.87,2.636-0.9
	c0.914-0.027,1.827,0.011,2.738,0.105c0.15,0.014,0.152,0.014,0.152,0.16v2.613c0,0.168,0,0.169-0.171,0.169
	c-0.504,0-1.009-0.007-1.512,0.002c-0.251,0.005-0.506,0.016-0.752,0.057c-0.472,0.082-0.815,0.333-0.938,0.8
	c-0.045,0.171-0.075,0.349-0.077,0.526C14.432,8,14.435,8.715,14.435,9.43c0,0.032,0.005,0.062,0.009,0.103h3.31
	c0,0.052,0.005,0.087,0,0.123c-0.062,0.467-0.125,0.934-0.187,1.401c-0.071,0.531-0.146,1.061-0.216,1.594
	c-0.02,0.152-0.016,0.153-0.173,0.153c-0.866,0-1.733,0-2.597-0.002c-0.109-0.002-0.148,0.021-0.148,0.137
	c0.004,2.685,0.002,5.664,0.002,8.35l0.002,0.007l2.485-0.005c2.547,0,4.298-2.071,4.298-4.36v-3.316V4.217
	C21.219,1.928,19.296,0.018,16.922,0.018"/>
</svg>
