<?xml version="1.0" encoding="utf-8"?>
<!-- Generator: Adobe Illustrator 17.0.0, SVG Export Plug-In . SVG Version: 6.00 Build 0)  -->
<!DOCTYPE svg PUBLIC "-//W3C//DTD SVG 1.1//EN" "http://www.w3.org/Graphics/SVG/1.1/DTD/svg11.dtd">
<svg version="1.1" id="Laag_1" xmlns="http://www.w3.org/2000/svg" xmlns:xlink="http://www.w3.org/1999/xlink" x="0px" y="0px"
	 width="321.358px" height="164.391px" viewBox="0 0 321.358 164.391" enable-background="new 0 0 321.358 164.391"
	 xml:space="preserve">
<g>
	<g>
		<path fill="#FFFFFF" d="M77.779,161.225c-0.159,0.972-0.278,1.703-0.417,2.556c-2.556,0-5.051,0-7.698,0
			c0-15.166,0-30.199,0-45.392c2.615,0,5.115,0,7.99,0c0,4.781,0,9.607,0,15.037c3.607-3.23,7.342-3.71,11.244-2.907
			c4.656,0.958,7.543,4.043,7.922,8.653c0.435,5.292,0.738,10.736-0.019,15.952c-1.236,8.524-10.641,11.95-17.794,6.941
			C78.666,161.825,78.319,161.594,77.779,161.225z M89.4,147.242c-0.211-1.787-0.3-3.629-0.667-5.414
			c-0.586-2.85-2.347-4.212-5.146-4.242c-2.935-0.032-4.989,1.338-5.295,4.317c-0.354,3.436-0.356,6.959-0.029,10.398
			c0.292,3.069,2.245,4.481,5.137,4.517c3.022,0.038,4.786-1.408,5.389-4.588C89.095,150.609,89.197,148.948,89.4,147.242z"/>
		<path fill="#FFFFFF" d="M124.632,130.614c2.925,0,5.434,0,8.274,0c0,5.609,0,11.095,0,16.581c0,5.43,0,10.859,0,16.504
			c-2.576,0-5.066,0-7.772,0c-0.143-0.659-0.317-1.461-0.543-2.505c-3.151,2.336-6.415,3.481-10.179,2.877
			c-4.672-0.75-8.188-3.748-8.768-8.472c-0.531-4.323-0.408-8.73-0.486-13.102c-0.068-3.849-0.014-7.701-0.014-11.781
			c2.777,0,5.418,0,8.285,0c0,6.765-0.038,13.409,0.016,20.052c0.027,3.435,1.609,5.479,4.382,5.961
			c3.887,0.675,6.679-1.566,6.756-5.663c0.108-5.781,0.041-11.565,0.048-17.347C124.633,132.767,124.632,131.817,124.632,130.614z"
			/>
		<path fill="#FFFFFF" d="M37.219,163.745c0-6.87,0.045-13.524-0.018-20.178c-0.034-3.59-1.916-5.735-4.985-5.971
			c-3.695-0.285-6.089,1.887-6.154,5.842c-0.095,5.785-0.037,11.572-0.043,17.358c-0.001,0.945,0,1.89,0,2.971
			c-2.838,0-5.414,0-8.268,0c0-5.601,0-11.098,0-16.596c0-5.43,0-10.861,0-16.488c2.639,0,5.132,0,7.75,0
			c0.146,0.754,0.29,1.498,0.33,1.706c3.121-0.722,6.151-1.919,9.218-2.023c5.241-0.177,9.375,3.367,9.968,8.577
			c0.552,4.852,0.388,9.79,0.477,14.691c0.06,3.314,0.011,6.629,0.011,10.112C42.717,163.745,40.139,163.745,37.219,163.745z"/>
		<path fill="#FFFFFF" d="M257.165,149.776c-7.734,0-14.465,0-21.372,0c-0.125,2.878,0.729,5.195,3.184,6.451
			c4.118,2.107,7.958,1.206,11.661-1.893c1.598,1.523,3.203,3.052,4.803,4.576c-4.288,5.047-11.523,6.731-18.659,4.447
			c-5.292-1.694-8.899-6.564-8.977-13.194c-0.045-3.858,0.311-7.916,1.508-11.547c1.897-5.753,6.621-8.439,12.865-8.404
			c6.231,0.035,10.915,2.834,12.873,8.486C256.217,142.066,256.436,145.764,257.165,149.776z M248.214,143.96
			c0.026-4.287-2.239-6.859-5.936-6.95c-3.938-0.097-6.341,2.437-6.451,6.95C239.89,143.96,243.952,143.96,248.214,143.96z"/>
		<path fill="#FFFFFF" d="M200.557,163.775c-2.888,0-5.384,0-8.022,0c0-11.062,0-21.984,0-33.099c2.477,0,4.895,0,7.526,0
			c0.141,0.705,0.303,1.515,0.332,1.658c3.245-0.686,6.465-1.865,9.71-1.936c4.959-0.109,9.337,3.803,9.556,8.737
			c0.361,8.119,0.098,16.265,0.098,24.59c-2.469,0-5.027,0-7.876,0c0-6.012,0.016-11.947-0.012-17.883
			c-0.006-1.308-0.018-2.645-0.284-3.916c-0.623-2.979-2.644-4.457-5.665-4.344c-2.903,0.108-4.996,1.873-5.159,4.903
			c-0.24,4.458-0.162,8.935-0.2,13.403C200.539,158.423,200.557,160.958,200.557,163.775z"/>
		<path fill="#FFFFFF" d="M320.156,134.165c-1.664,1.651-3.211,3.185-4.203,4.168c-3.527-0.499-6.485-1.099-9.469-1.274
			c-1.965-0.115-3.699,0.806-3.739,3.159c-0.037,2.192,1.603,2.654,3.381,2.864c2.521,0.297,5.069,0.477,7.551,0.979
			c3.928,0.795,6.7,3.033,7.456,7.151c0.756,4.117-0.372,7.606-3.772,10.261c-5.097,3.98-19.214,4.061-24.016-1.83
			c1.702-1.664,3.409-3.334,5.292-5.175c2.712,2.294,6.14,3.056,9.831,2.685c1.024-0.103,2.237-0.227,2.97-0.824
			c0.839-0.684,1.831-2.012,1.677-2.866c-0.181-1.005-1.389-2.337-2.384-2.583c-2.618-0.645-5.372-0.711-8.053-1.131
			c-3.504-0.548-6.413-2.082-7.442-5.746c-1.122-3.997-0.439-7.658,2.776-10.569C303.157,128.775,314.847,129.053,320.156,134.165z"
			/>
		<path fill="#FFFFFF" d="M139.347,159.399c1.701-1.595,3.417-3.203,5.321-4.988c2.786,2.287,6.193,3.119,9.891,2.748
			c0.944-0.095,2.137-0.118,2.735-0.683c0.904-0.854,1.933-2.182,1.878-3.256c-0.044-0.866-1.495-2.126-2.527-2.383
			c-2.445-0.607-5.023-0.647-7.527-1.05c-4.826-0.776-7.328-2.994-8.081-7.004c-0.819-4.363,1.066-8.42,4.968-10.695
			c5.585-3.257,15.448-2.383,20.25,1.985c-1.375,1.414-2.684,2.909-4.175,4.192c-0.383,0.33-1.348,0.049-2.032-0.046
			c-2.65-0.369-5.285-0.985-7.943-1.095c-1.783-0.074-3.251,1.056-3.277,3.061c-0.025,1.951,1.388,2.647,3.13,2.855
			c2.606,0.311,5.236,0.51,7.805,1.012c3.585,0.701,6.346,2.612,7.302,6.339c1.059,4.128,0.219,7.762-3.1,10.717
			C158.917,165.602,143.877,165.555,139.347,159.399z"/>
		<path fill="#FFFFFF" d="M261.436,159.46c1.713-1.568,3.439-3.149,5.393-4.938c2.625,2.167,6.03,2.999,9.722,2.637
			c0.945-0.093,2.135-0.104,2.743-0.663c0.92-0.846,1.976-2.16,1.937-3.238c-0.031-0.865-1.481-2.155-2.512-2.413
			c-2.443-0.612-5.024-0.648-7.528-1.05c-4.838-0.777-7.435-3.055-8.12-6.967c-0.8-4.565,1.116-8.596,5.158-10.853
			c5.54-3.093,15.133-2.202,20.104,2.072c-1.756,1.415-3.497,2.819-5.286,4.262c-2.025-0.382-4.624-0.922-7.243-1.336
			c-0.752-0.119-1.797-0.159-2.295,0.257c-1.035,0.865-2.345,1.998-2.475,3.141c-0.087,0.765,1.536,2.233,2.621,2.517
			c2.433,0.637,5.025,0.638,7.523,1.068c4.857,0.836,7.566,3.441,8.137,7.632c0.682,5.003-1.195,8.638-5.468,10.891
			C278.563,165.266,265.784,165.206,261.436,159.46z"/>
		<path fill="#FFFFFF" d="M174.838,130.612c2.696,0,5.206,0,7.887,0c0,11.04,0,21.955,0,33.086c-2.499,0-5.081,0-7.887,0
			C174.838,152.83,174.838,141.849,174.838,130.612z"/>
		<path fill="#FFFFFF" d="M8.035,163.843c-2.681,0-5.122,0-7.801,0c-0.068-0.803-0.186-1.556-0.187-2.308
			c-0.013-9.461,0.039-18.922-0.047-28.383c-0.018-1.991,0.439-2.928,2.618-2.704c1.72,0.177,3.472,0.036,5.417,0.036
			C8.035,141.677,8.035,152.646,8.035,163.843z"/>
		<path fill="#FFFFFF" d="M182.832,118.184c0,2.189,0,4.092,0,6.207c-2.668,0-5.248,0-8.058,0c0-1.968,0-3.999,0-6.207
			C177.411,118.184,179.993,118.184,182.832,118.184z"/>
		<path fill="#FFFFFF" d="M0.054,118.181c2.726,0,5.3,0,8.06,0c0,2.079,0,4.042,0,6.215c-2.677,0-5.313,0-8.06,0
			C0.054,122.275,0.054,120.312,0.054,118.181z"/>
	</g>
	<g>
		<path fill="#FFFFFF" d="M0,0.004c1.667,0,2.9,0,4.134,0c81.82,0,163.64-0.012,245.46,0.008
			c24.99,0.006,44.204,14.577,50.927,38.561c4.478,15.974,8.896,31.965,13.331,47.952c0.299,1.078,0.509,2.18,0.852,3.671
			c-1.446,0.088-2.649,0.225-3.852,0.226c-82.164,0.01-164.327,0.034-246.491-0.007c-24.707-0.012-43.713-14.649-50.228-38.407
			C9.715,35.898,5.258,19.799,0.83,3.692C0.537,2.628,0.342,1.536,0,0.004z M210.639,33.099c-1.638-1.095-2.652-1.819-3.709-2.472
			c-9.432-5.822-21.34-0.065-22.169,10.978c-0.461,6.142-0.451,12.375-0.002,18.519c0.792,10.834,12.434,16.716,21.89,11.325
			c1.243-0.709,2.428-1.519,3.796-2.38c0.174,1.417,0.309,2.507,0.436,3.541c2.965,0,5.75,0,8.8,0c0-2.437,0-4.596,0-6.754
			c0-17.17,0.013-34.34-0.027-51.509c-0.003-1.318,0.706-3.259-1.747-3.324c-2.342-0.061-4.687-0.013-7.267-0.013
			C210.639,18.537,210.639,25.483,210.639,33.099z M240.533,40.09c2.664-3.24,6.189-3.317,9.783-3.17
			c6.801,0.277,8.613,2.652,7.04,10.279c-4.825,0-9.878-0.448-14.82,0.101c-8.191,0.911-12.811,8.455-10.543,16.373
			c2.693,9.404,16.844,13.258,24.805,6.765c0.218-0.178,0.539-0.23,0.886-0.37c0.24,0.995,0.444,1.841,0.629,2.61
			c2.885,0,5.586,0,8.249,0c0-11.296,0.302-22.386-0.137-33.447c-0.198-4.987-3.799-8.622-8.653-9.5
			c-4.974-0.9-10.198-1.014-15.256-0.66c-3.51,0.245-6.589,2.347-8.68,5.843C236.075,36.644,238.22,38.302,240.533,40.09z
			 M85.701,28.983c0,10.677-0.287,21.086,0.11,31.469c0.231,6.042,4.964,10.822,10.773,12.422
			c5.677,1.564,10.499-0.242,15.032-4.071c0.128,1.506,0.223,2.61,0.332,3.899c2.877,0,5.68,0,8.658,0c0-14.622,0-29.09,0-43.655
			c-2.982,0-5.756,0-8.818,0c0,1.391,0,2.516,0,3.642c0,6.87,0.009,13.74-0.003,20.609c-0.013,7.341-3.034,11.215-8.663,11.142
			c-5.532-0.072-8.473-3.865-8.495-10.978c-0.011-3.778-0.002-7.557-0.002-11.335c0-4.316,0-8.632,0-13.144
			C91.521,28.983,88.826,28.983,85.701,28.983z M136.601,28.902c0,14.789,0,29.246,0,43.688c3.015,0,5.781,0,8.807,0
			c0-8.756-0.066-17.21,0.022-25.663c0.063-6.012,3.24-9.513,8.428-9.6c5.243-0.088,8.628,3.604,8.711,9.75
			c0.093,6.865,0.025,13.732,0.027,20.598c0,1.668,0,3.335,0,4.917c3.282,0,6.059,0,8.974,0c0-10.247,0.255-20.201-0.081-30.135
			c-0.267-7.898-6.523-14.179-14.165-13.95c-3.968,0.119-7.882,2.048-11.828,3.161c-0.062-0.346-0.27-1.518-0.493-2.766
			C142.178,28.902,139.575,28.902,136.601,28.902z M74.643,11.215c-4.837-0.323-9.521-0.887-13.834,1.415
			c-6.585,3.513-5.229,10.202-5.587,16.278c-3.487,0-6.532,0-9.991,0c0.694,2.314,0.724,5.307,1.982,5.97
			c2.193,1.156,5.142,0.876,8.156,1.244c0,12.12,0,24.294,0,36.518c3.164,0,5.943,0,9.133,0c0-12.415,0-24.58,0-37.06
			c3.566,0,6.718,0,9.844,0c0-2.418,0-4.502,0-6.931c-3.456,0-6.606,0-9.982,0c0-1.707-0.016-3.064,0.003-4.421
			c0.055-3.962,0.606-4.531,4.591-4.632c1.795-0.046,3.592-0.008,5.386-0.008c0.154-0.937,0.283-1.378,0.288-1.819
			C74.656,15.827,74.643,13.886,74.643,11.215z"/>
		<path fill="#FFFFFF" d="M210.812,50.893c-0.27,2.383-0.384,4.678-0.814,6.912c-0.83,4.307-3.646,6.587-7.895,6.642
			c-4.335,0.056-7.54-2.021-8.046-6.341c-0.552-4.72-0.552-9.595-0.043-14.321c0.467-4.329,3.663-6.487,7.961-6.48
			c4.236,0.007,7.162,2.292,8.002,6.53C210.442,46.176,210.551,48.588,210.812,50.893z"/>
		<path fill="#FFFFFF" d="M257.945,54.378c-0.298,3.617,0.926,7.309-2.758,9.544c-3.142,1.906-11.263,1.489-13.454-0.864
			c-1.02-1.095-1.887-3.201-1.527-4.484c0.408-1.451,2.213-2.563,3.534-3.676c0.469-0.395,1.298-0.492,1.966-0.499
			C249.59,54.355,253.477,54.378,257.945,54.378z"/>
	</g>
</g>
</svg>
