<?xml version="1.0" encoding="utf-8"?>
<!-- Generator: Adobe Illustrator 17.0.0, SVG Export Plug-In . SVG Version: 6.00 Build 0)  -->
<!DOCTYPE svg PUBLIC "-//W3C//DTD SVG 1.1//EN" "http://www.w3.org/Graphics/SVG/1.1/DTD/svg11.dtd">
<svg version="1.1" id="Laag_1" xmlns="http://www.w3.org/2000/svg" xmlns:xlink="http://www.w3.org/1999/xlink" x="0px" y="0px"
	 width="21.164px" height="21.274px" viewBox="0 0 21.164 21.274" enable-background="new 0 0 21.164 21.274" xml:space="preserve">
<path id="instagram-icon_5_" fill="#FFFFFF" d="M14.982,7.598h6.182v9.491c0,2.312-1.874,4.186-4.186,4.186H4.186
	C1.874,21.274,0,19.4,0,17.088V7.598h6.154c-0.63,0.885-1.002,1.967-1.002,3.136c0,2.991,2.424,5.415,5.415,5.415
	c2.991,0,5.415-2.424,5.415-5.415C15.983,9.565,15.611,8.483,14.982,7.598z M21.164,4.186v2.749h-6.738
	c-0.982-0.997-2.348-1.616-3.858-1.616c-1.51,0-2.876,0.619-3.858,1.616H0V4.186C0,2.775,0.699,1.528,1.768,0.77v4.507h0.858V0.301
	c0.195-0.078,0.397-0.142,0.604-0.191v5.166h0.858V0.002C4.121,0.002,4.153,0,4.186,0h0.496v5.277H5.54V0h11.438
	C19.29,0,21.164,1.874,21.164,4.186z M19.251,2.422c0-0.371-0.301-0.671-0.671-0.671h-2.263c-0.371,0-0.671,0.301-0.671,0.671v2.313
	c0,0.371,0.301,0.671,0.671,0.671h2.263c0.371,0,0.671-0.301,0.671-0.671V2.422L19.251,2.422z M6.396,10.734
	c0-1.249,0.552-2.371,1.425-3.136C8.127,7.33,8.472,7.105,8.847,6.935c0.525-0.239,1.107-0.373,1.721-0.373
	c0.613,0,1.196,0.134,1.721,0.373c0.375,0.171,0.72,0.395,1.026,0.663c0.872,0.765,1.425,1.887,1.425,3.136
	c0,2.3-1.871,4.172-4.172,4.172C8.268,14.906,6.396,13.034,6.396,10.734z M7.498,10.734c0,1.703,1.38,3.083,3.083,3.083
	s3.083-1.38,3.083-3.083c0-1.703-1.38-3.083-3.083-3.083C8.879,7.65,7.498,9.031,7.498,10.734z"/>
</svg>
