<?xml version="1.0" encoding="utf-8"?>
<!-- Generator: Adobe Illustrator 17.0.0, SVG Export Plug-In . SVG Version: 6.00 Build 0)  -->
<!DOCTYPE svg PUBLIC "-//W3C//DTD SVG 1.1//EN" "http://www.w3.org/Graphics/SVG/1.1/DTD/svg11.dtd">
<svg version="1.1" id="Laag_1" xmlns="http://www.w3.org/2000/svg" xmlns:xlink="http://www.w3.org/1999/xlink" x="0px" y="0px"
	 width="50px" height="50px" viewBox="0 0 50 50" enable-background="new 0 0 50 50" xml:space="preserve">
<path fill="#4D4D4D" d="M39.873,0.042L10.131,0C4.536,0,0.004,4.357,0.004,9.73v7.784H0v22.068C0,44.956,3.777,50,10.127,50h15.621
	v-0.029c0-6.299,0-13.28,0-19.579c0-0.331,0-0.331-0.357-0.331c-2.046,0-4.095,0-6.145-0.004c-0.344,0-0.349,0-0.349-0.339
	c0-2.335,0-4.671,0-7.006c0-0.1,0.013-0.201,0.025-0.335h6.825v-0.368c0-1.708-0.004-3.411,0.004-5.114
	c0.004-1.084,0.101-2.159,0.365-3.214c0.479-1.921,1.411-3.591,3.016-4.871c1.798-1.431,3.919-2.042,6.212-2.113
	c2.155-0.063,4.305,0.025,6.452,0.247c0.353,0.033,0.357,0.033,0.357,0.377v6.135c0,0.393,0,0.398-0.403,0.398
	c-1.189,0-2.377-0.017-3.562,0.004c-0.592,0.013-1.193,0.038-1.773,0.134c-1.113,0.193-1.92,0.783-2.209,1.879
	c-0.105,0.402-0.176,0.82-0.181,1.235c-0.021,1.678-0.013,3.356-0.013,5.035c0,0.075,0.013,0.146,0.021,0.243h7.8
	c0,0.121,0.013,0.205,0,0.289c-0.147,1.096-0.294,2.193-0.441,3.289c-0.168,1.247-0.344,2.49-0.508,3.741
	c-0.046,0.356-0.038,0.36-0.407,0.36c-2.041,0-4.083,0-6.12-0.004c-0.256-0.004-0.349,0.05-0.349,0.322
	c0.008,6.303,0.004,13.297,0.004,19.604L34.018,50l5.855-0.011C45.875,49.989,50,45.127,50,39.753v-7.784V9.901
	C50,4.527,45.468,0.042,39.873,0.042"/>
</svg>
