<?xml version="1.0" encoding="utf-8"?>
<!-- Generator: Adobe Illustrator 17.0.0, SVG Export Plug-In . SVG Version: 6.00 Build 0)  -->
<!DOCTYPE svg PUBLIC "-//W3C//DTD SVG 1.1//EN" "http://www.w3.org/Graphics/SVG/1.1/DTD/svg11.dtd">
<svg version="1.1" id="Laag_1" xmlns="http://www.w3.org/2000/svg" xmlns:xlink="http://www.w3.org/1999/xlink" x="0px" y="0px"
	 width="150px" height="150px" viewBox="0 0 150 150" enable-background="new 0 0 150 150" xml:space="preserve">
<g>
	<path fill="#4F4E4F" d="M19.748,13.783l0.38-0.027c0.216-0.015,0.426,0.141,0.629,0.469l0.364-0.197L21.502,14
		c0.145-0.01,0.494,0.307,1.046,0.952c0.485-0.291,1.69-0.662,3.613-1.114c0.224,0.098,0.482,0.137,0.769,0.116l0.38-0.027
		c0.001-0.456,0.238-0.702,0.704-0.735c0.291-0.021,0.845,0.396,1.666,1.25c1.01-0.072,1.517-0.051,1.525,0.062
		c0.524-0.266,0.911-0.407,1.164-0.426l0.817,0.797l1.877-0.305c1.841-0.132,3.61,0.313,5.308,1.332
		c1.271,0.023,2.133,0.19,2.59,0.5c1.072-0.19,1.896-0.307,2.473-0.348c0.018,0.255,0.676,0.608,1.974,1.057
		c1.01-0.072,2.805-0.258,5.391-0.556c0.486,0.194,1.329,0.361,2.538,0.503c0.611-0.044,1.255-0.147,1.933-0.309
		c1.6,0.114,2.562,0.159,2.886,0.136c-0.016-0.228,0.367-0.426,1.152-0.596c0.224,0.098,0.482,0.137,0.769,0.116
		c0.021-0.23,0.14-0.352,0.356-0.368l0.376-0.027c0.145-0.01,0.423,0.37,0.842,1.138l1.933-0.309c3.901,0.406,5.979,0.6,6.232,0.582
		c0.008,0.113,0.139,0.161,0.389,0.143l1.717-0.294l1.173,0.43l1.124-0.252c0.287-0.021,1.161,0.317,2.623,1.011
		c0.843,0.168,1.429,0.24,1.753,0.217l1.136-0.081l0.617,0.298c0.287-0.021,0.536-0.096,0.744-0.224
		c0.671,0.266,2.092,0.392,4.263,0.38c0.777-0.284,1.291-0.435,1.544-0.453c0.104-0.007,0.291,0.037,0.549,0.132
		c0.894-0.177,1.665-0.29,2.313-0.336L93.5,18.44l1.3-0.778c0.747,0.289,1.393,0.471,1.942,0.546l0.936-0.58l0.592-0.042
		c0.602,0.299,1.065,0.437,1.389,0.414c0.108-0.008,0.993-0.3,2.653-0.874l0.565,0.302c1.335-0.551,2.418-0.857,3.249-0.917
		c0.129,0.333,0.521,0.476,1.169,0.43l0.216-0.015c0.071-0.005,0.36-0.31,0.856-0.917l0.216-0.015
		c0.399-0.028,0.612,0.185,0.645,0.639l0.54-0.039c0.363-0.482,0.67-0.733,0.924-0.751c0.843,0.168,1.429,0.24,1.753,0.217
		l0.756-0.054c1.302-0.549,2.057-0.832,2.273-0.847l0.012,0.17l0.952-0.41l0.981,0.101c0.399-0.028,0.885-0.292,1.464-0.789
		l0.216-0.015c0.075-0.005,0.408,0.371,1.006,1.126c0.446-0.83,0.742-1.251,0.887-1.262l2.362,0.345l0.74-0.224
		c1.058,0.609,2.582,1.127,4.568,1.556c-0.032-0.454,0.074-0.69,0.328-0.708c0.552,0.645,1.154,0.945,1.802,0.898
		c0.543,0.988,0.903,1.476,1.082,1.463l0.54-0.039l0.772-0.569c2.719,0.518,3.264,1.621,3.375,3.182l0.869,0.794
		c0.146-0.466,0.313-0.707,0.492-0.72c0.216-0.015,0.501,0.193,0.861,0.623l0.012,0.17c0.018,0.255-0.04,0.488-0.167,0.697
		c0.032,0.454,0.832,0.796,2.407,1.026c0.067,0.937,0.709,1.804,1.924,2.601c1.454,2.635,2.218,4.463,2.291,5.486
		c-0.598,0.754-1.064-1.267-1.034-0.838l0.289,1.006c-1.969,0.855-3.162,2.138-3.582,3.85c-0.833,1.027-1.236,1.682-1.215,1.97
		l-0.216,0.015l-0.568-0.302l-0.753,0.054c-0.849,0.798-1.243,1.629-1.182,2.481l-0.364,0.197l-0.216,0.015
		c-0.399,0.028,0.25-0.36,0.201-1.041c-0.071,0.005-0.375,0.31-0.912,0.921l-0.932-0.105c-0.48,0.831-0.779,1.254-0.884,1.261
		c-0.225-0.102-0.482-0.137-0.772-0.116c-0.272,0.704-1.022,1.1-2.248,1.188l-0.948,0.41c-0.216,0.015-0.925-0.052-2.133-0.19
		c0.008,0.112-0.411,0.543-1.264,1.288l-1.398-0.585c-0.575,0.608-1.254,0.945-2.048,1.002c-0.355-0.405-1.083-0.696-2.182-0.871
		c-0.008-0.117-0.864-0.452-2.567-1.015l-0.964,0.24l-0.981-0.101l-1.124,0.252c-0.505-0.991-1.246-1.451-2.215-1.382
		c-0.442,0.941-0.734,1.422-0.879,1.432l-0.389-0.143l0.099-0.863l-0.037-0.511c-0.016-0.229-0.203-0.328-0.561-0.302
		c-0.245,0.13-0.439,0.203-0.584,0.213c-0.041-0.57-1.15-0.892-3.327-0.96c-1.074-1.352-2.263-2.524-3.562-3.511l-1.353,0.097
		c-0.108,0.008-0.619-0.074-1.537-0.232l-1.569,0.112l-0.789-0.457l-0.76,0.054c-0.537,0.038-1.245,0.03-2.117-0.02
		c-0.454,0.257-0.967,0.411-1.544,0.453c-0.32,0.023-0.831,0-1.525-0.062l-1.121,0.251l-1.009-0.441l-0.973,0.069
		c-0.571,0.607-1.504,0.963-2.801,1.056c-0.016-0.229-1.188-0.375-3.506-0.434c-0.759,0.538-1.138,0.849-1.131,0.937
		c0.016,0.223-0.099,0.349-0.352,0.367c-0.605-0.872-1.018-1.297-1.234-1.281c0.01,0.141-0.365,0.451-1.124,0.936l-1.136,0.081
		c-0.341-0.206-0.602-0.299-0.781-0.287l-1.717,0.294c-1.184-0.376-2.43-0.57-3.735-0.589c-0.057-0.799-0.842-1.138-2.354-1.03
		l-0.216,0.015l-1.34,0.267c-0.497-0.879-1.428-1.267-2.795-1.17c-1.263,0.09-2.197,0.44-2.804,1.056l0.24,0.325l0.012,0.17
		c0.012,0.17-0.173,0.355-0.556,0.553c-0.183,0.013-0.465-0.427-0.857-1.308l-0.592,0.042c0.03,0.423-0.392,0.854-1.267,1.289
		c-0.373-0.717-0.73-1.093-1.054-1.123c-0.291,0.021-1.057,0.931-2.306,2.732l-1.908,0.65l-0.537,0.038
		c-0.809-0.627-1.604-0.912-2.398-0.856c-0.221,0.47-0.529,0.722-0.924,0.751c-1.433-0.812-2.221-1.211-2.367-1.2
		c-0.935,0.067-1.445,0.328-1.516,0.793c0.252,0.012,0.386,0.114,0.401,0.314c0.016,0.223-0.102,0.35-0.352,0.367
		c-0.012-0.17-0.282-0.381-0.809-0.627l-0.216,0.015l-0.364,0.197l0.277,0.836l0.024,0.341c0.012,0.17-0.225,0.412-0.708,0.735
		c-0.179,0.013-0.392-0.143-0.633-0.468c0.131-0.21,0.185-0.444,0.167-0.697c-0.441-0.087-0.966-0.102-1.577-0.058
		c-0.068,0.571-0.245,0.873-0.535,0.894l-0.376,0.027c-0.851-0.742-1.453-1.094-1.814-1.068c-0.238,0.702-0.538,1.065-0.899,1.091
		c-0.411-0.201-0.799-0.285-1.157-0.26c-0.642,0.129-0.958,0.322-0.94,0.581c0.183-0.013,0.527,0.246,1.037,0.782l0.024,0.341
		c0.012,0.17-0.225,0.412-0.711,0.735c-0.682,0.049-1.224-0.202-1.626-0.74l-0.012-0.17c-0.006-0.088,0.298-0.393,0.912-0.921
		c-0.108,0.008-0.164-0.047-0.172-0.159c-1.035,0.245-1.669-1.288-1.657-1.117l0.301,1.177l-0.364,0.197l-1.192,0.085
		c0.049,0.681-0.402,1.451-1.355,2.322l-0.216,0.015c-0.142,0.01-0.854-0.057-2.13-0.19c0.028,0.393-0.275,0.704-0.912,0.921
		l-0.769-0.116c-0.563,0.241-1.165,0.679-1.804,1.327l-0.596,0.043l-0.985-0.101l0.301,1.177l-0.568,0.383l-0.76,0.054l-0.617-0.298
		l-1.889,0.135c-0.484-0.166-0.832-0.484-1.049-0.952l-0.061-0.851c-0.515-0.134-0.777-0.287-0.789-0.457l-0.012-0.17l0.075-1.203
		L19.177,43l-0.764,0.739c-0.216,0.015-0.641-0.586-1.267-1.792c-0.253,0.018-0.384-0.032-0.392-0.143
		c-0.977,0.524-1.531,0.847-1.668,0.975l-0.596,0.043c-0.432,0.031-0.992-0.732-1.683-2.276c-0.432,0.031-0.725-0.291-0.882-0.964
		c-0.611,0.044-0.945-0.275-0.993-0.956l-0.216,0.015c-0.287,0.021-0.533,0.091-0.74,0.224c-0.507,0.036-0.872-0.51-1.098-1.633
		c-0.104,0.007-0.195,2.295-0.639,1.642c-0.008-0.115,0.032-0.289,0.124-0.524c-0.93-2.901-1.615-2.586-2.297-2.537
		c-0.328,0.023-0.61-0.412-0.857-1.308l-0.012-0.17c-0.004-0.057,0.229-0.359,0.699-0.906c-0.696-1.091-1.054-1.807-1.079-2.148
		l0.075-1.203c-0.276-0.351-0.423-0.626-0.437-0.825c0.892-0.207,1.33-0.409,1.316-0.608l-0.024-0.341
		c-0.476-1.05-0.901-1.705-1.282-1.962l-0.037-0.511l1.947-2.364c-0.035-0.483,0.498-1.148,1.595-1.997
		c-0.016-0.228,0.285-0.363,0.896-0.406l-0.049-0.681c-0.361,0.026-0.548-0.074-0.565-0.302c-0.014-0.198,0.551-0.41,1.692-0.634
		c-0.016-0.228,0.545-0.495,1.68-0.805c-0.069-0.964,1.038-1.672,3.324-2.12c1.226-0.088,2.21-0.729,2.956-1.923
		c0.208-0.128,0.457-0.204,0.748-0.225l0.012,0.17C18.769,14.538,19.132,14.283,19.748,13.783z M121.015,13.735l0.037,0.511
		l0.824,0.112l0.192-0.356l-0.673-0.294L121.015,13.735z M146.258,28.876l0.24,0.325c0.016,0.228-0.121,0.351-0.408,0.371
		c-0.287,0.021-0.44-0.082-0.457-0.31L146.258,28.876z M48.197,38.738l0.216-0.015c0.252,0.012,0.386,0.114,0.401,0.314l0.012,0.17
		c0.016,0.223-0.102,0.35-0.352,0.367l-0.216,0.015c-0.253,0.018-0.388-0.09-0.404-0.313l-0.012-0.17
		C47.862,38.874,47.981,38.754,48.197,38.738z M51.895,38.816l0.16-0.011c0.255,0.011,0.386,0.114,0.401,0.314l0.012,0.17
		c0.016,0.223-0.099,0.349-0.352,0.367l-0.16,0.011c-0.253,0.018-0.388-0.09-0.404-0.313l-0.012-0.17
		C51.56,38.953,51.679,38.832,51.895,38.816z M144.645,32.873l0.432-0.031c0.289,0.009,0.442,0.11,0.457,0.31
		c0.016,0.223-0.121,0.351-0.408,0.371c-0.291,0.021-0.441-0.087-0.457-0.31L144.645,32.873z M109.301,39.678l0.216-0.015
		c0.252,0.012,0.386,0.114,0.401,0.314c0.016,0.223-0.102,0.35-0.352,0.367l-0.216,0.015c-0.253,0.018-0.388-0.09-0.404-0.313
		C108.967,39.814,109.085,39.693,109.301,39.678z M113.302,43.216c0.905,0.027,1.368,0.34,1.412,0.958l0.038,0.527
		c0.049,0.69-0.363,1.085-1.262,1.149c-0.887,0.063-1.363-0.268-1.412-0.958l-0.038-0.527
		C112.221,43.64,112.634,43.264,113.302,43.216z"/>
</g>
<g>
	<path fill="#4F4E4F" d="M146.278,74.594l-0.075,1.203c0.276,0.351,0.423,0.626,0.437,0.825c-0.892,0.207-1.33,0.409-1.316,0.608
		l0.024,0.341c0.476,1.05,0.901,1.705,1.282,1.962l0.037,0.511l-1.947,2.364c0.035,0.483-0.498,1.148-1.595,1.997
		c0.016,0.228-0.285,0.363-0.896,0.406l0.049,0.681c0.361-0.026,0.548,0.074,0.565,0.302c0.014,0.198-0.551,0.41-1.692,0.634
		c0.016,0.228-0.545,0.495-1.68,0.805c0.069,0.964-1.038,1.672-3.324,2.12c-1.226,0.088-2.21,0.729-2.956,1.923
		c-0.208,0.128-0.457,0.204-0.748,0.225l-0.012-0.17c-0.104,0.007-0.468,0.262-1.084,0.762l-0.38,0.027
		c-0.216,0.015-0.426-0.141-0.629-0.469l-0.364,0.197l-0.38,0.027c-0.145,0.01-0.494-0.307-1.046-0.952
		c-0.485,0.291-1.69,0.662-3.613,1.114c-0.224-0.098-0.482-0.137-0.769-0.116l-0.38,0.027c-0.001,0.456-0.238,0.702-0.704,0.735
		c-0.291,0.021-0.845-0.396-1.666-1.25c-1.01,0.072-1.517,0.051-1.525-0.062c-0.524,0.266-0.911,0.407-1.164,0.426l-0.817-0.797
		l-1.877,0.305c-1.841,0.132-3.61-0.313-5.308-1.332c-1.271-0.023-2.133-0.19-2.59-0.5c-1.072,0.19-1.896,0.307-2.473,0.348
		c-0.018-0.255-0.676-0.608-1.974-1.057c-1.01,0.072-2.805,0.258-5.391,0.556c-0.486-0.194-1.329-0.361-2.538-0.503
		c-0.611,0.044-1.255,0.147-1.933,0.309c-1.6-0.114-2.562-0.159-2.886-0.136c0.016,0.228-0.367,0.426-1.152,0.596
		c-0.224-0.098-0.482-0.137-0.769-0.116c-0.021,0.23-0.14,0.352-0.356,0.368l-0.376,0.027c-0.145,0.01-0.423-0.37-0.842-1.138
		l-1.933,0.309c-3.901-0.406-5.979-0.6-6.232-0.582c-0.008-0.113-0.139-0.161-0.389-0.143l-1.717,0.294l-1.173-0.43l-1.124,0.252
		c-0.287,0.021-1.161-0.317-2.623-1.011c-0.843-0.168-1.429-0.24-1.753-0.217l-1.136,0.081l-0.617-0.298
		c-0.287,0.021-0.536,0.096-0.744,0.224c-0.671-0.266-2.092-0.392-4.263-0.38c-0.777,0.284-1.291,0.435-1.544,0.453
		c-0.104,0.007-0.291-0.037-0.549-0.132c-0.894,0.177-1.665,0.29-2.313,0.336l-1.741-0.047l-1.3,0.778
		c-0.747-0.289-1.393-0.471-1.942-0.546l-0.936,0.58l-0.592,0.042c-0.602-0.299-1.065-0.437-1.389-0.414
		c-0.108,0.008-0.994,0.3-2.653,0.874l-0.565-0.302c-1.335,0.551-2.418,0.857-3.249,0.917c-0.129-0.333-0.521-0.476-1.169-0.43
		l-0.216,0.015c-0.071,0.005-0.36,0.31-0.856,0.917l-0.216,0.015c-0.399,0.028-0.612-0.185-0.645-0.639l-0.54,0.039
		c-0.363,0.482-0.67,0.733-0.924,0.751c-0.843-0.168-1.429-0.24-1.753-0.217l-0.756,0.054c-1.302,0.549-2.057,0.832-2.273,0.847
		l-0.012-0.17l-0.952,0.41l-0.981-0.101c-0.399,0.028-0.885,0.292-1.464,0.789l-0.216,0.015c-0.075,0.005-0.408-0.371-1.006-1.126
		c-0.446,0.83-0.742,1.251-0.887,1.262l-2.362-0.345l-0.74,0.224c-1.058-0.609-2.582-1.127-4.568-1.556
		c0.032,0.454-0.074,0.69-0.328,0.708c-0.552-0.645-1.154-0.945-1.802-0.898c-0.542-0.988-0.903-1.476-1.082-1.463l-0.54,0.039
		l-0.772,0.569c-2.719-0.518-3.264-1.621-3.375-3.182l-0.869-0.794c-0.146,0.466-0.313,0.707-0.492,0.72
		c-0.216,0.015-0.501-0.193-0.861-0.623l-0.012-0.17c-0.018-0.255,0.04-0.488,0.167-0.697c-0.032-0.454-0.832-0.796-2.407-1.026
		c-0.067-0.937-0.709-1.804-1.924-2.601c-1.454-2.635-2.218-4.463-2.291-5.486c0.598-0.754,1.064,1.267,1.034,0.838l-0.289-1.006
		 M30.08,92.14l-0.037-0.511l-0.824-0.112l-0.192,0.356l0.673,0.294L30.08,92.14z M4.837,77l-0.24-0.325
		c-0.016-0.228,0.121-0.351,0.408-0.371s0.44,0.082,0.457,0.31L4.837,77z"/>
</g>
<g>
	<path fill="#4F4E4F" d="M5.873,76.082l0.075-1.203c-0.276-0.351-0.423-0.626-0.437-0.825c0.892-0.207,1.33-0.409,1.316-0.608
		l-0.024-0.341c-0.476-1.05-0.901-1.705-1.282-1.962l-0.037-0.511l1.947-2.364c-0.035-0.483,0.498-1.148,1.595-1.997
		c-0.016-0.228,0.285-0.363,0.896-0.406l-0.049-0.681c-0.361,0.026-0.548-0.074-0.565-0.302c-0.014-0.198,0.551-0.41,1.692-0.634
		c-0.016-0.228,0.545-0.495,1.68-0.805c-0.069-0.964,1.038-0.8,3.324-1.248c1.226-0.088,2.21-0.729,2.956-1.923
		c0.208-0.128,0.457-0.204,0.748-0.225l0.012,0.17c0.104-0.007,0.468-0.262,1.084-0.762l0.38-0.027
		c0.216-0.015,0.426,0.141,0.629,0.469l0.364-0.197l0.38-0.027c0.145-0.01,0.494,0.307,1.046,0.952
		c0.485-0.291,1.69-0.662,3.613-1.114c0.224,0.098,0.482,0.137,0.769,0.116l0.38-0.027c0.001-0.456,0.238-0.702,0.704-0.735
		c0.291-0.021,0.845,0.396,1.666,1.25c1.01-0.072,1.517-0.051,1.525,0.062c0.524-0.266,0.911-0.407,1.164-0.426l0.817,0.797
		l1.877-0.305c1.841-0.132,3.61,0.313,5.308,1.332c1.271,0.023,2.133,0.19,2.59,0.5c1.072-0.19,1.896-0.307,2.473-0.348
		c0.018,0.255,0.676,0.608,1.974,1.057c1.01-0.072,2.805-0.258,5.391-0.556c0.486,0.194,1.329,0.361,2.538,0.503
		c0.611-0.044,1.255-0.147,1.933-0.309c1.6,0.114,2.562,0.159,2.886,0.136c-0.016-0.228,0.367-0.426,1.152-0.596
		c0.224,0.098,0.482,0.137,0.769,0.116c0.021-0.23,0.14-0.352,0.356-0.368l0.376-0.027c0.145-0.01,0.423,0.37,0.842,1.138
		l1.933-0.309c3.901,0.406,5.979,0.6,6.232,0.582c0.008,0.113,0.139,0.161,0.389,0.143l1.717-0.294l1.173,0.43l1.124-0.252
		c0.287-0.021,1.161-0.555,2.623,0.138c0.843,0.168,1.429,0.24,1.753,0.217l1.136-0.081l0.617,0.298
		c0.287-0.021,0.536-0.096,0.744-0.224c0.671,0.266,2.092,0.392,4.263,0.38c0.777-0.284,1.291-0.435,1.544-0.453
		c0.104-0.007,0.291,0.037,0.549,0.132c0.894-0.177,1.665-0.29,2.313-0.336l1.741,0.047l1.3,0.095
		c0.747,0.289,1.393,0.471,1.942,0.546l0.936-0.58l0.592-0.042c0.602,0.299,1.065,0.437,1.389,0.414
		c0.108-0.008,0.994-0.3,2.653-0.874l0.565,0.302c1.335-0.551,2.418-0.857,3.249-0.917c0.129,0.333,0.521,0.476,1.169,0.43
		l0.216-0.015c0.071-0.005,0.36-0.31,0.856-0.917l0.216-0.015c0.399-0.028,0.612,0.185,0.645,0.639l0.54-0.039
		c0.363-0.482,0.67-0.733,0.924-0.751c0.843,0.168,1.429,0.24,1.753,0.217l0.756-0.054c1.302-0.549,2.057-0.832,2.273-0.847
		l0.012,0.17l0.952-0.41l0.981,0.101c0.399-0.028,0.885-0.292,1.464-0.789l0.216-0.015c0.075-0.005,0.408,0.371,1.006,1.126
		c0.446-0.83,0.742-1.251,0.887-1.262l2.362,0.345l0.74-0.224c1.058,0.609,2.582,1.127,4.568,1.556
		c-0.032-0.454,0.074-0.69,0.328-0.708c0.552,0.645,1.154,0.945,1.802,0.898c0.542,0.988,0.903,1.476,1.082,1.463l0.54-0.039
		l0.772-0.569c2.719,0.518,3.264,0.749,3.375,2.31l0.869,0.794c0.146-0.466,0.313-0.707,0.492-0.72
		c0.216-0.015,0.501,0.193,0.861,0.623l0.012,0.17c0.018,0.255-0.04,0.488-0.167,0.697c0.032,0.454,0.832,0.796,2.407,1.026
		c0.067,0.937,0.709,1.804,1.924,2.601c1.454,2.635,2.218,4.463,2.291,5.486c-0.598,0.754-1.064-1.267-1.034-0.838l0.289,1.006
		 M122.071,59.407l0.037,0.511l0.824,0.112l0.192-0.356l-0.673-0.294L122.071,59.407z M147.314,73.676l0.24,0.325
		c0.016,0.228-0.121,0.351-0.408,0.371c-0.287,0.021-0.44-0.082-0.457-0.31L147.314,73.676z"/>
</g>
<g>
	<path fill="#4F4E4F" d="M131.346,135.925l-0.38,0.027c-0.216,0.015-0.426-0.141-0.629-0.469l-0.364,0.197l-0.38,0.027
		c-0.145,0.01-0.494-0.307-1.046-0.952c-0.485,0.291-1.69,0.662-3.613,1.114c-0.224-0.098-0.482-0.137-0.769-0.116l-0.38,0.027
		c-0.001,0.456-0.238,0.702-0.704,0.735c-0.291,0.021-0.845-0.396-1.666-1.25c-1.01,0.072-1.517,0.051-1.525-0.062
		c-0.524,0.266-0.911,0.407-1.164,0.426l-0.817-0.797l-1.877,0.305c-1.841,0.132-3.61-0.313-5.308-1.332
		c-1.271-0.023-2.133-0.19-2.59-0.5c-1.072,0.19-1.896,0.307-2.473,0.348c-0.018-0.255-0.676-0.608-1.974-1.057
		c-1.01,0.072-2.805,0.258-5.391,0.556c-0.486-0.194-1.329-0.361-2.538-0.503c-0.611,0.044-1.255,0.147-1.933,0.309
		c-1.6-0.114-2.562-0.159-2.886-0.136c0.016,0.228-0.367,0.426-1.152,0.596c-0.224-0.098-0.482-0.137-0.769-0.116
		c-0.021,0.23-0.14,0.352-0.356,0.368l-0.376,0.027c-0.145,0.01-0.423-0.37-0.842-1.138l-1.933,0.309
		c-3.901-0.406-5.979-0.6-6.232-0.582c-0.008-0.113-0.139-0.161-0.389-0.143l-1.717,0.294l-1.173-0.43l-1.124,0.252
		c-0.287,0.02-1.161-0.317-2.623-1.011c-0.843-0.168-1.429-0.24-1.753-0.217l-1.136,0.081l-0.617-0.298
		c-0.287,0.021-0.536,0.096-0.744,0.224c-0.671-0.266-2.092-0.392-4.263-0.38c-0.777,0.284-1.291,0.435-1.544,0.453
		c-0.104,0.007-0.291-0.037-0.549-0.132c-0.894,0.177-1.665,0.29-2.313,0.336l-1.741-0.047l-1.3,0.778
		c-0.747-0.289-1.393-0.471-1.942-0.546l-0.936,0.58l-0.592,0.042c-0.602-0.299-1.065-0.437-1.389-0.414
		c-0.108,0.008-0.994,0.3-2.653,0.874l-0.565-0.302c-1.335,0.551-2.418,0.857-3.249,0.917c-0.129-0.333-0.521-0.476-1.169-0.43
		l-0.216,0.015c-0.071,0.005-0.36,0.31-0.856,0.917l-0.216,0.015c-0.399,0.028-0.612-0.185-0.645-0.639l-0.54,0.039
		c-0.363,0.482-0.67,0.733-0.924,0.751c-0.843-0.168-1.429-0.24-1.753-0.217l-0.756,0.054c-1.302,0.549-2.057,0.832-2.273,0.847
		l-0.012-0.17l-0.952,0.41l-0.981-0.101c-0.399,0.028-0.885,0.292-1.464,0.789l-0.216,0.015c-0.075,0.005-0.408-0.371-1.006-1.126
		c-0.446,0.83-0.742,1.251-0.887,1.262l-2.362-0.345l-0.74,0.224c-1.058-0.609-2.582-1.127-4.568-1.556
		c0.032,0.454-0.074,0.69-0.328,0.708c-0.552-0.645-1.154-0.945-1.802-0.898c-0.542-0.988-0.903-1.476-1.082-1.463l-0.54,0.039
		l-0.772,0.569c-2.719-0.518-3.264-1.621-3.375-3.182l-0.869-0.794c-0.146,0.466,0.56,0.707,0.381,0.72
		c-0.216,0.015-0.501-0.193-0.861-0.623l-0.012-0.17c-0.018-0.255,0.04-0.488,0.167-0.697c-0.032-0.454-0.832-0.796-2.407-1.026
		c-0.067-0.937-0.709-1.804-1.924-2.601c-1.454-2.635-2.218-4.463-2.291-5.486c0.598-0.754,1.064,1.267,1.034,0.838l-0.289-1.006
		c1.969-0.855,3.162-2.138,3.582-3.85c0.833-1.027,1.236-1.682,1.215-1.97l0.216-0.015l0.568,0.302l0.753-0.054
		c0.849-0.798,0.371-1.629,0.31-2.481l0.364-0.197l0.216-0.015c0.399-0.028-0.25,0.36-0.201,1.041
		c0.071-0.005,0.375-0.31,0.912-0.921l0.933,0.105c0.48-0.831,0.779-1.254,0.884-1.261c0.225,0.102,0.482,0.137,0.772,0.116
		c0.272-0.704,1.022-1.1,2.248-1.188l0.948-0.41c0.216-0.015,0.925,0.052,2.133,0.19c-0.008-0.112,0.411-0.543,1.264-1.288
		l1.398,0.585c0.575-0.608,1.254-0.945,2.048-1.002c0.355,0.405,1.083,0.696,2.182,0.871c0.008,0.117,0.864,0.452,2.567,1.015
		l0.964-0.24l0.981,0.101l1.124-0.252c0.505,0.991,1.246,1.451,2.215,1.382c0.442-0.941,0.734-1.422,0.879-1.432l0.389,0.143
		l-0.099,0.863l0.037,0.511c0.016,0.229,0.203,0.328,0.561,0.302c0.245-0.13,0.439-0.203,0.584-0.213
		c0.041,0.57,1.15,0.892,3.327,0.96c1.074,1.352,2.263,2.524,3.562,3.511l1.353-0.097c0.108-0.008,0.619,0.074,1.537,0.232
		l1.569-0.112l0.789,0.457l0.76-0.054c0.537-0.038,1.245-0.03,2.117,0.02c0.454-0.257,0.967-0.411,1.544-0.453
		c0.32-0.023,0.831,0,1.525,0.062l1.121-0.251l1.009,0.441l0.973-0.069c0.571-0.607,1.504-0.963,2.801-1.056
		c0.016,0.229,1.188,0.375,3.506,0.434c0.759-0.538,1.138-0.849,1.131-0.937c-0.016-0.223,0.099-0.349,0.352-0.367
		c0.605,0.872,1.018,1.297,1.234,1.281c-0.01-0.141,0.365-0.451,1.124-0.936l1.136-0.081c0.341,0.206,0.602,0.299,0.781,0.287
		l1.717-0.294c1.184,0.376,2.43,0.57,3.735,0.589c0.057,0.799,0.842,1.138,2.354,1.03l0.216-0.015l1.34-0.267
		c0.497,0.879,1.428,1.267,2.795,1.17c1.263-0.09,2.197-0.44,2.804-1.056l-0.24-0.325l-0.012-0.17
		c-0.012-0.17,0.173-0.355,0.556-0.553c0.183-0.013,0.465,0.427,0.857,1.308l0.592-0.042c-0.03-0.423,0.392-0.854,1.267-1.289
		c0.373,0.717,0.73,1.093,1.054,1.123c0.291-0.021,1.057-0.931,2.306-2.732l1.908-0.65l0.537-0.038
		c0.809,0.627,1.604,0.912,2.398,0.856c0.221-0.47,0.529-0.722,0.924-0.751c1.433,0.812,2.221,1.211,2.367,1.2
		c0.935-0.067,1.445-0.328,1.516-0.793c-0.252-0.012-0.386-0.114-0.401-0.314c-0.016-0.223,0.102-0.35,0.352-0.367
		c0.012,0.17,0.282,0.381,0.809,0.627l0.216-0.015l0.364-0.197l-0.277-0.836l-0.024-0.341c-0.012-0.17,0.225-0.412,0.708-0.735
		c0.179-0.013,0.392,0.143,0.633,0.468c-0.131,0.21-0.185,0.444-0.167,0.697c0.441,0.087,0.966,0.102,1.577,0.058
		c0.068-0.571,0.245-0.873,0.535-0.894l0.376-0.027c0.851,0.742,1.453,1.094,1.814,1.068c0.238-0.702,0.538-1.065,0.899-1.091
		c0.411,0.201,0.799,0.285,1.157,0.26c0.642-0.129,0.958-0.322,0.94-0.581c-0.183,0.013-0.527-0.246-1.037-0.782l-0.024-0.341
		c-0.012-0.17,0.225-0.412,0.711-0.735c0.682-0.049,1.224,0.202,1.626,0.74l0.012,0.17c0.006,0.088-0.298,0.393-0.912,0.921
		c0.108-0.008,0.164,0.047,0.172,0.159c1.035-0.245,1.669,1.288,1.657,1.117l-0.301-1.177l0.364-0.197l1.192-0.085
		c-0.049-0.681,0.402-1.451,1.355-2.322l0.216-0.015c0.142-0.01,0.854,0.057,2.13,0.19c-0.028-0.393,0.275-0.704,0.912-0.921
		l0.769,0.116c0.563-0.241,1.165-0.679,1.804-1.327l0.596-0.043l0.985,0.101l-0.301-1.177l0.568-0.383l0.76-0.054l0.617,0.298
		l1.889-0.135c0.484,0.166,0.832,0.484,1.049,0.952l0.061,0.851c0.515,0.134,0.777,0.287,0.789,0.457l0.012,0.17l-0.075,1.203
		l0.16-0.011l0.764-0.739c0.216-0.015,0.641,0.586,1.267,1.792c0.253-0.018,0.384,0.032,0.392,0.143
		c0.977-0.524,1.531-0.847,1.668-0.975l0.596-0.043c0.432-0.031,0.992,0.732,1.683,2.276c0.432-0.031,0.725,0.291,0.882,0.964
		c0.611-0.044,0.945,0.275,0.993,0.956l0.216-0.015c0.287-0.021,0.533-0.091,0.741-0.224c0.507-0.036,0.872,0.51,1.098,1.633
		c0.104-0.007,0.195-2.295,0.639-1.642c0.008,0.115-0.032,0.289-0.124,0.524c0.93,2.901,1.615,2.586,2.297,2.537
		c0.328-0.023,0.61,0.412,0.857,1.308l0.012,0.17c0.004,0.057-0.229,0.359-0.699,0.906c0.696,1.091,1.054,1.807,1.079,2.148
		l-0.075,1.203c0.276,0.351,0.423,0.626,0.437,0.825c-0.892,0.207-1.33,0.409-1.316,0.608l0.024,0.341
		c0.476,1.05,0.901,1.705,1.282,1.962l0.037,0.511l-1.947,2.364c0.035,0.483-0.498,1.148-1.595,1.997
		c0.016,0.228-0.285,0.363-0.896,0.406l0.049,0.681c0.361-0.026,0.548,0.074,0.565,0.302c0.014,0.198-0.551,0.41-1.692,0.634
		c0.016,0.228-0.545,0.495-1.68,0.805c0.069,0.964-1.038,1.672-3.324,2.12c-1.226,0.088-2.21,0.729-2.956,1.923
		c-0.208,0.128-0.457,0.204-0.748,0.225l-0.012-0.17C132.326,135.17,131.962,135.425,131.346,135.925z M30.08,135.973l-0.037-0.511
		l-0.824-0.112l-0.192,0.356L29.7,136L30.08,135.973z M5.709,120.832l-0.24-0.325c-0.016-0.228,0.121-0.351,0.408-0.371
		c0.287-0.021,0.44,0.082,0.457,0.31L5.709,120.832z M102.898,110.97l-0.216,0.015c-0.252-0.012-0.386-0.114-0.401-0.314
		l-0.012-0.17c-0.016-0.223,0.102-0.35,0.352-0.367l0.216-0.015c0.253-0.018,0.388,0.09,0.404,0.313l0.012,0.17
		C103.233,110.834,103.114,110.954,102.898,110.97z M99.2,110.892l-0.16,0.011c-0.255-0.011-0.386-0.114-0.401-0.314l-0.012-0.17
		c-0.016-0.223,0.099-0.349,0.352-0.367l0.16-0.011c0.253-0.018,0.388,0.09,0.404,0.313l0.012,0.17
		C99.534,110.756,99.416,110.876,99.2,110.892z M7.956,117.338l-0.667,0.048c-0.446-0.014-0.682-0.17-0.704-0.478
		c-0.025-0.344,0.187-0.541,0.629-0.573c0.448-0.032,0.68,0.133,0.704,0.478L7.956,117.338z M41.793,110.031l-0.216,0.015
		c-0.252-0.012-0.386-0.114-0.401-0.314c-0.016-0.223,0.102-0.35,0.352-0.367l0.216-0.015c0.253-0.018,0.388,0.09,0.404,0.313
		C42.128,109.895,42.009,110.015,41.793,110.031z M33.696,107.428c-0.513-0.015-0.775-0.193-0.8-0.543l-0.021-0.298
		c-0.028-0.391,0.205-0.615,0.715-0.651c0.503-0.036,0.772,0.152,0.8,0.543l0.021,0.298
		C34.308,107.188,34.074,107.401,33.696,107.428z M46.196,113.428c-0.513-0.015-0.775-0.193-0.8-0.543l-0.021-0.298
		c-0.028-0.391,0.205-0.615,0.715-0.651c0.503-0.036,0.772,0.152,0.8,0.543l0.021,0.298
		C46.808,113.188,46.574,113.401,46.196,113.428z M43.584,106.41c-0.298-0.009-0.451-0.112-0.465-0.316l-0.012-0.174
		c-0.016-0.227,0.12-0.358,0.416-0.379c0.292-0.021,0.449,0.088,0.465,0.316L44,106.032C43.941,106.27,43.804,106.395,43.584,106.41
		z M143.373,132.255l-0.667,0.048c-0.446-0.014-0.682-0.17-0.704-0.478c-0.025-0.344,0.187-0.541,0.629-0.573
		c0.448-0.032,0.68,0.133,0.704,0.478L143.373,132.255z M128.456,136.588l-0.667,0.048c-0.446-0.014-0.682-0.17-0.704-0.478
		c-0.025-0.344,0.187-0.541,0.629-0.573c0.448-0.032,0.68,0.133,0.704,0.478L128.456,136.588z"/>
</g>
<path fill="#4F4E4F" d="M26.088,58.094c0.478,0.014,0.723,0.18,0.746,0.506l0.02,0.278c0.026,0.365-0.192,0.573-0.666,0.607
	c-0.469,0.033-0.72-0.141-0.746-0.506l-0.02-0.278C25.517,58.319,25.735,58.12,26.088,58.094z"/>
<path fill="#4F4E4F" d="M37.668,58.729c0.91,0.006,1.37,0.243,1.404,0.723l0.029,0.409c0.038,0.536-0.382,0.85-1.287,0.915
	c-0.893,0.064-1.366-0.186-1.404-0.723l-0.029-0.409C36.574,59.077,36.995,58.777,37.668,58.729z"/>
</svg>
