<?xml version="1.0" encoding="utf-8"?>
<!-- Generator: Adobe Illustrator 17.0.0, SVG Export Plug-In . SVG Version: 6.00 Build 0)  -->
<!DOCTYPE svg PUBLIC "-//W3C//DTD SVG 1.1//EN" "http://www.w3.org/Graphics/SVG/1.1/DTD/svg11.dtd">
<svg version="1.1" id="Laag_1" xmlns="http://www.w3.org/2000/svg" xmlns:xlink="http://www.w3.org/1999/xlink" x="0px" y="0px"
	 width="120px" height="120px" viewBox="0 0 120 120" enable-background="new 0 0 120 120" xml:space="preserve">
<g id="New">
	<g>
		<g>
			<path fill="#1D70B7" d="M95.796,118.535v-20.61h1.43v-4.174h-1.43V45.417h1.43v-4.183h-1.478L93.024,0.183L93.012,0H29.329
				l-2.737,41.234h-1.478v4.183h1.43v48.334h-1.43v4.174h1.43v20.61H21V120h80.34v-1.465H95.796z M90.072,100.035v18.5h-6.136v-18.5
				H90.072L90.072,100.035z M38.294,100.035v18.5h-6.137v-18.5H38.294L38.294,100.035z M91.641,1.465l0.594,8.947h-62.13L30.7,1.465
				L91.641,1.465z M67.828,22.216v-3.075l-6.721-3.617l-6.816,3.614v3.078H29.322l0.686-10.34h62.324l0.686,10.34H67.828z
				 M55.756,20.019l5.346-2.834l5.262,2.832v15.375H55.756V20.019z M83.604,25.929l-4.082,1.852v7.61H67.828V23.68h25.287
				l0.777,11.71h-6.11v-7.614L83.604,25.929z M86.319,28.73v6.661h-5.333v-6.666l2.626-1.191L86.319,28.73z M38.624,25.929
				l-4.082,1.852v7.61h-6.095l0.777-11.71h25.066v11.71H42.803v-7.614L38.624,25.929z M41.338,28.73v6.661h-5.332v-6.666
				l2.625-1.191L41.338,28.73z M28.059,41.234l0.291-4.379h65.64l0.29,4.379L28.059,41.234z M82.471,98.571v19.965H39.758V98.571
				h-9.066v19.965h-2.683V96.461h-1.43v-1.24h69.184v1.24h-1.43v22.075h-2.794V98.571L82.471,98.571L82.471,98.571z M95.762,43.952
				h-1.43v49.804H28.009V43.952h-1.43v-1.248h69.058l0.125-0.004V43.952z"/>
		</g>
		<g>
			<path fill="#1D70B7" d="M44.835,50.289H34.607v13.269h10.228V50.289z M36.071,62.094v-10.34h7.299v10.34H36.071z"/>
		</g>
		<g>
			<path fill="#1D70B7" d="M59.205,50.289H48.977v13.269h10.228L59.205,50.289z M50.442,62.094v-10.34h7.299v10.34H50.442z"/>
		</g>
		<g>
			<path fill="#1D70B7" d="M73.693,50.289H63.464v13.269h10.229V50.289z M64.929,62.094v-10.34h7.3v10.34H64.929z"/>
		</g>
		<g>
			<path fill="#1D70B7" d="M87.778,50.289H77.549v13.269h10.229V50.289z M79.014,62.094v-10.34h7.3v10.34H79.014z"/>
		</g>
		<g>
			<path fill="#1D70B7" d="M34.607,89.369h10.228V76.1H34.607V89.369z M43.371,77.565v10.34h-7.299v-10.34H43.371z"/>
		</g>
		<g>
			<path fill="#1D70B7" d="M48.977,89.369h10.228V76.1H48.977V89.369z M57.74,77.565v10.34h-7.299v-10.34H57.74z"/>
		</g>
		<g>
			<path fill="#1D70B7" d="M63.464,89.369h10.229V76.1H63.464V89.369z M72.229,77.565v10.34h-7.3v-10.34H72.229z"/>
		</g>
		<g>
			<path fill="#1D70B7" d="M77.549,89.369h10.229V76.1H77.549V89.369z M86.314,77.565v10.34h-7.3v-10.34H86.314z"/>
		</g>
		<g>
			<path fill="#1D70B7" d="M42.343,117.251h37.325v-18.68H42.343V117.251z M78.203,100.035v15.751H43.807v-15.751H78.203z"/>
		</g>
		<g>
			<path fill="#1D70B7" d="M30.75,71.919h61.202v-4.166H30.75V71.919z M90.487,69.217v1.237H32.214v-1.237H90.487z"/>
		</g>
	</g>
</g>
</svg>
