<?xml version="1.0" encoding="utf-8"?>
<!-- Generator: Adobe Illustrator 17.0.0, SVG Export Plug-In . SVG Version: 6.00 Build 0)  -->
<!DOCTYPE svg PUBLIC "-//W3C//DTD SVG 1.1//EN" "http://www.w3.org/Graphics/SVG/1.1/DTD/svg11.dtd">
<svg version="1.1" id="Laag_1" xmlns="http://www.w3.org/2000/svg" xmlns:xlink="http://www.w3.org/1999/xlink" x="0px" y="0px"
	 width="1292px" height="87px" viewBox="0 0 1292 87" enable-background="new 0 0 1292 87" xml:space="preserve">
<g>
	<g>
		<defs>
			<rect id="SVGID_1_" width="1146" height="87"/>
		</defs>
		<clipPath id="SVGID_2_">
			<use xlink:href="#SVGID_1_"  overflow="visible"/>
		</clipPath>
		<path clip-path="url(#SVGID_2_)" fill="#FFFFFF" d="M871.205,215.202h-2.7c-1.535,0-2.938-0.93-4.208-2.79l-2.673,0.93h-2.7
			c-1.032,0-3.335-1.86-6.908-5.579c-3.573,1.395-12.281,2.942-26.098,4.649c-1.535-0.617-3.335-0.93-5.373-0.93h-2.7
			c-0.238,2.477-2.038,3.719-5.347,3.719c-2.065,0-5.77-2.477-11.143-7.439c-7.173,0-10.746-0.313-10.746-0.93
			c-3.838,1.242-6.644,1.86-8.444,1.86l-5.373-4.649l-13.42,0.93c-13.076,0-25.357-3.102-36.844-9.298
			c-8.973-0.617-14.981-1.86-18.052-3.719c-7.676,0.617-13.552,0.93-17.655,0.93c0-1.395-4.473-3.567-13.42-6.509
			c-7.173,0-19.957,0.313-38.38,0.93c-3.335-1.242-9.211-2.477-17.681-3.719c-4.341,0-8.946,0.313-13.817,0.93
			c-11.249-1.242-18.025-1.86-20.328-1.86c0,1.242-2.806,2.172-8.443,2.79c-1.535-0.617-3.335-0.93-5.373-0.93
			c-0.265,1.242-1.165,1.86-2.7,1.86h-2.673c-1.032,0-2.806-2.172-5.373-6.509l-13.817,0.93
			c-27.369-3.719-41.953-5.579-43.753-5.579c0-0.617-0.9-0.93-2.673-0.93l-12.281,0.93l-8.073-2.79l-8.073,0.93
			c-2.038,0-8.047-2.172-18.025-6.509c-5.876-1.242-9.979-1.86-12.281-1.86h-8.073l-4.209-1.86c-2.038,0-3.838,0.313-5.373,0.93
			c-4.606-1.707-14.584-2.942-29.936-3.719c-5.638,1.242-9.343,1.86-11.143,1.86c-0.741,0-2.038-0.313-3.811-0.93
			c-6.405,0.617-11.911,0.93-16.516,0.93l-12.281-0.93l-9.582,3.719c-5.135-1.86-9.608-3.102-13.446-3.719l-6.908,2.79h-4.209
			c-4.103-1.86-7.305-2.79-9.608-2.79c-0.768,0-7.173,1.242-19.19,3.719l-3.838-1.86c-9.714,2.477-17.522,3.719-23.425,3.719
			c-0.741-1.86-3.441-2.79-8.046-2.79h-1.535c-0.503,0-2.7,1.547-6.511,4.649h-1.535c-2.832,0-4.235-1.242-4.235-3.719h-3.838
			c-2.806,2.477-5.108,3.719-6.908,3.719c-5.876-1.242-9.979-1.86-12.281-1.86h-5.373c-9.476,2.477-14.955,3.719-16.49,3.719v-0.93
			l-6.935,1.86l-6.882-0.93c-2.832,0-6.405,1.242-10.746,3.719h-1.535c-0.529,0-2.7-2.172-6.538-6.509
			c-3.573,4.337-5.876,6.509-6.908,6.509l-16.516-2.79l-5.347,0.93c-7.173-3.719-17.681-7.126-31.498-10.228
			c0,2.477-0.873,3.719-2.673,3.719c-3.573-3.719-7.676-5.579-12.281-5.579c-3.335-5.579-5.638-8.369-6.908-8.369h-3.838
			l-5.744,2.79c-18.952-3.872-28.427-10.076-28.427-18.597l-5.744-4.649c-1.271,2.477-2.567,3.719-3.838,3.719
			c-1.535,0-3.441-1.242-5.77-3.719v-0.93c0-1.395,0.529-2.637,1.535-3.719c0-2.477-5.479-4.649-16.49-6.509
			c0-5.114-4.103-10.076-12.281-14.877c-8.946-14.877-13.42-25.106-13.42-30.693c4.606-3.864,6.882-6.958,6.882-9.298l-1.535-5.579
			c14.346-3.88,23.425-10.389,27.263-19.527c6.405-5.258,9.582-8.657,9.582-10.228h1.535l3.864,1.86h5.347
			c6.405-4.008,9.608-8.369,9.608-13.018l2.673-0.93h1.535c2.832,0,4.235,1.86,4.235,5.579c0.503,0,2.806-1.539,6.908-4.649
			l6.538,0.93c3.812-4.329,6.141-6.509,6.882-6.509c1.535,0.641,3.335,0.93,5.4,0.93c2.276-3.719,7.782-5.579,16.49-5.579
			l6.908-1.86c1.535,0,6.511,0.641,14.981,1.86c0-0.609,3.176-2.79,9.582-6.509l9.582,3.719c4.367-3.078,9.343-4.649,14.981-4.649
			c2.303,2.341,7.305,4.2,14.981,5.579c0,0.641,5.876,2.79,17.628,6.509l6.935-0.93l6.882,0.93l8.073-0.93
			c3.07,5.579,8.073,8.369,14.955,8.369c3.6-4.938,5.903-7.439,6.935-7.439l2.673,0.93l-1.138,4.649v2.79
			c0,1.25,1.271,1.86,3.812,1.86c1.8-0.609,3.203-0.93,4.235-0.93c0,3.11,7.676,5.29,23.028,6.509
			c6.908,7.759,14.717,14.589,23.398,20.456h9.608c0.768,0,4.341,0.641,10.746,1.86h11.143l5.347,2.79h5.4
			c3.811,0,8.814,0.321,14.955,0.93c3.335-1.218,7.041-1.86,11.143-1.86c2.276,0,5.876,0.321,10.746,0.93l8.047-0.93l6.908,2.79
			h6.908c4.341-3.078,11.117-4.649,20.328-4.649c0,1.25,8.205,2.501,24.563,3.719c5.638-2.629,8.47-4.168,8.47-4.649
			c0-1.218,0.873-1.86,2.673-1.86c3.838,4.97,6.538,7.439,8.073,7.439c0-0.77,2.806-2.309,8.417-4.649h8.073
			c2.303,1.25,4.103,1.86,5.373,1.86l12.281-0.93c8.179,2.501,16.887,4.04,26.098,4.649c0,4.361,5.373,6.509,16.12,6.509h1.535
			l9.608-0.93c3.07,4.97,9.449,7.439,19.163,7.439c8.973,0,15.749-1.539,20.354-4.649l-1.535-1.86V62.7
			c0-0.93,1.403-1.86,4.208-2.79c1.297,0,3.07,2.501,5.4,7.439h4.209c0-2.309,3.203-4.489,9.608-6.509
			c2.276,4.04,4.606,6.22,6.882,6.509c2.065,0,7.941-4.649,17.681-13.948l13.817-2.79h3.812c5.4,3.719,10.879,5.579,16.516,5.579
			c1.8-2.469,4.103-3.719,6.908-3.719c9.714,4.97,15.087,7.439,16.119,7.439c6.644,0,10.376-1.218,11.117-3.719
			c-1.773-0.16-2.673-0.77-2.673-1.86c0-1.218,0.9-1.86,2.673-1.86c0,0.93,1.8,2.18,5.4,3.719h1.535l2.673-0.93l-1.535-4.649v-1.86
			c0-0.93,1.8-2.148,5.373-3.719c1.271,0,2.7,0.93,4.235,2.79c-1.032,1.09-1.535,2.341-1.535,3.719
			c3.07,0.641,6.776,0.93,11.117,0.93c0.768-3.078,2.17-4.649,4.235-4.649h2.673c5.638,4.361,9.714,6.509,12.281,6.509
			c2.038-3.719,4.341-5.579,6.908-5.579c2.806,1.25,5.505,1.86,8.047,1.86c4.606-0.449,6.935-1.379,6.935-2.79
			c-1.297,0-3.6-1.539-6.935-4.649v-1.86c0-0.93,1.8-2.148,5.4-3.719c4.844,0,8.549,1.571,11.117,4.649v0.93
			c0,0.481-2.303,2.02-6.908,4.649c0.768,0,1.138,0.321,1.138,0.93c7.438-0.93,11.143-1.86,11.143-2.79l-1.535-6.509l2.673-0.93
			h8.47c0-3.719,3.573-7.727,10.746-12.088h1.535c1.006,0,6.008,0.641,14.955,1.86c0-2.148,2.303-3.719,6.908-4.649l5.373,0.93
			c4.103-1.09,8.576-3.238,13.42-6.509h4.235l6.908,0.93l-1.535-6.509l4.209-1.86h5.4l4.209,1.86h13.42
			c3.335,1.09,5.638,2.95,6.935,5.579v4.649c3.573,0.93,5.347,1.86,5.347,2.79v0.93l-1.138,6.509h1.138l5.77-3.719
			c1.535,0,4.235,3.431,8.046,10.228c1.8,0,2.7,0.321,2.7,0.93c7.173-2.469,11.249-4.008,12.281-4.649h4.235
			c3.07,0,6.644,4.361,10.746,13.018c3.07,0,4.976,1.86,5.744,5.579c4.341,0,6.538,1.86,6.538,5.579h1.535
			c2.038,0,3.812-0.289,5.347-0.93c3.6,0,5.903,3.11,6.935,9.298c0.741,0,2.541,1.86,5.347,5.579c0,0.625-0.371,1.555-1.138,2.798
			c5.108,16.12,10.111,24.176,14.955,24.176c2.329,0,4.103,2.477,5.4,7.439v0.93c0,0.313-1.8,1.86-5.4,4.649
			c4.367,6.196,6.538,10.228,6.538,12.088l-1.138,6.509c1.773,2.012,2.673,3.567,2.673,4.649c-6.405,0.778-9.608,1.707-9.608,2.79
			v1.86c2.832,5.892,5.505,9.611,8.073,11.158v2.79l-14.955,12.088c0,2.637-4.103,6.044-12.281,10.228
			c0,1.242-2.197,1.86-6.538,1.86v3.719c2.567,0,3.838,0.617,3.838,1.86c0,1.082-4.103,2.012-12.281,2.79
			c0,1.242-4.103,2.477-12.281,3.719c0,5.266-8.179,8.681-24.563,10.228c-8.708,0-15.987,3.102-21.863,9.298
			c-1.535,0.617-3.335,0.93-5.4,0.93v-0.93C878.51,211.483,875.811,212.725,871.205,215.202z"/>
	</g>
	<g>
		<defs>
			<rect id="SVGID_3_" x="770" width="522" height="87"/>
		</defs>
		<clipPath id="SVGID_4_">
			<use xlink:href="#SVGID_3_"  overflow="visible"/>
		</clipPath>
		<path clip-path="url(#SVGID_4_)" fill="#FFFFFF" d="M1689.205,215.202h-2.7c-1.535,0-2.938-0.93-4.209-2.79l-2.673,0.93h-2.7
			c-1.032,0-3.335-1.86-6.908-5.579c-3.573,1.395-12.281,2.942-26.098,4.649c-1.535-0.617-3.335-0.93-5.373-0.93h-2.7
			c-0.238,2.477-2.038,3.719-5.347,3.719c-2.065,0-5.77-2.477-11.143-7.439c-7.173,0-10.746-0.313-10.746-0.93
			c-3.838,1.242-6.644,1.86-8.443,1.86l-5.373-4.649l-13.42,0.93c-13.076,0-25.357-3.102-36.844-9.298
			c-8.973-0.617-14.981-1.86-18.052-3.719c-7.676,0.617-13.552,0.93-17.655,0.93c0-1.395-4.473-3.567-13.42-6.509
			c-7.173,0-19.958,0.313-38.38,0.93c-3.335-1.242-9.211-2.477-17.681-3.719c-4.341,0-8.946,0.313-13.817,0.93
			c-11.249-1.242-18.025-1.86-20.328-1.86c0,1.242-2.806,2.172-8.444,2.79c-1.535-0.617-3.335-0.93-5.373-0.93
			c-0.265,1.242-1.165,1.86-2.7,1.86h-2.673c-1.032,0-2.806-2.172-5.373-6.509l-13.817,0.93
			c-27.369-3.719-41.953-5.579-43.753-5.579c0-0.617-0.9-0.93-2.673-0.93l-12.281,0.93l-8.073-2.79l-8.073,0.93
			c-2.038,0-8.047-2.172-18.025-6.509c-5.876-1.242-9.979-1.86-12.281-1.86h-8.073l-4.209-1.86c-2.038,0-3.838,0.313-5.373,0.93
			c-4.606-1.707-14.584-2.942-29.936-3.719c-5.638,1.242-9.344,1.86-11.143,1.86c-0.741,0-2.038-0.313-3.812-0.93
			c-6.406,0.617-11.911,0.93-16.516,0.93l-12.281-0.93l-9.582,3.719c-5.135-1.86-9.608-3.102-13.446-3.719l-6.908,2.79h-4.208
			c-4.103-1.86-7.305-2.79-9.608-2.79c-0.768,0-7.173,1.242-19.19,3.719l-3.838-1.86c-9.714,2.477-17.522,3.719-23.425,3.719
			c-0.741-1.86-3.441-2.79-8.047-2.79h-1.535c-0.503,0-2.7,1.547-6.511,4.649h-1.535c-2.832,0-4.235-1.242-4.235-3.719h-3.838
			c-2.806,2.477-5.108,3.719-6.908,3.719c-5.876-1.242-9.979-1.86-12.281-1.86h-5.373c-9.476,2.477-14.955,3.719-16.49,3.719v-0.93
			l-6.935,1.86l-6.882-0.93c-2.832,0-6.405,1.242-10.746,3.719h-1.535c-0.529,0-2.7-2.172-6.538-6.509
			c-3.573,4.337-5.876,6.509-6.908,6.509l-16.516-2.79l-5.347,0.93c-7.173-3.719-17.681-7.126-31.498-10.228
			c0,2.477-0.873,3.719-2.673,3.719c-3.573-3.719-7.676-5.579-12.281-5.579c-3.335-5.579-5.638-8.369-6.908-8.369h-3.838
			l-5.744,2.79c-18.952-3.872-28.427-10.076-28.427-18.597l-5.744-4.649c-1.271,2.477-2.568,3.719-3.838,3.719
			c-1.535,0-3.441-1.242-5.77-3.719v-0.93c0-1.395,0.529-2.637,1.535-3.719c0-2.477-5.479-4.649-16.49-6.509
			c0-5.114-4.103-10.076-12.281-14.877c-8.946-14.877-13.42-25.106-13.42-30.693c4.606-3.864,6.882-6.958,6.882-9.298l-1.535-5.579
			c14.346-3.88,23.425-10.389,27.263-19.527c6.405-5.258,9.582-8.657,9.582-10.228h1.535l3.864,1.86h5.347
			c6.405-4.008,9.608-8.369,9.608-13.018l2.673-0.93h1.535c2.832,0,4.235,1.86,4.235,5.579c0.503,0,2.806-1.539,6.908-4.649
			l6.538,0.93c3.811-4.329,6.141-6.509,6.882-6.509c1.535,0.641,3.335,0.93,5.4,0.93c2.276-3.719,7.782-5.579,16.49-5.579
			l6.908-1.86c1.535,0,6.511,0.641,14.981,1.86c0-0.609,3.176-2.79,9.582-6.509l9.582,3.719c4.367-3.078,9.344-4.649,14.981-4.649
			c2.303,2.341,7.305,4.2,14.981,5.579c0,0.641,5.876,2.79,17.628,6.509l6.935-0.93l6.882,0.93l8.073-0.93
			c3.07,5.579,8.073,8.369,14.955,8.369c3.6-4.938,5.902-7.439,6.935-7.439l2.673,0.93l-1.138,4.649v2.79
			c0,1.25,1.271,1.86,3.812,1.86c1.8-0.609,3.203-0.93,4.235-0.93c0,3.11,7.676,5.29,23.028,6.509
			c6.908,7.759,14.717,14.589,23.398,20.456h9.608c0.768,0,4.341,0.641,10.746,1.86h11.143l5.347,2.79h5.4
			c3.811,0,8.814,0.321,14.955,0.93c3.335-1.218,7.041-1.86,11.143-1.86c2.276,0,5.876,0.321,10.746,0.93l8.046-0.93l6.908,2.79
			h6.908c4.341-3.078,11.117-4.649,20.328-4.649c0,1.25,8.205,2.501,24.563,3.719c5.638-2.629,8.47-4.168,8.47-4.649
			c0-1.218,0.873-1.86,2.673-1.86c3.838,4.97,6.538,7.439,8.073,7.439c0-0.77,2.806-2.309,8.417-4.649h8.073
			c2.303,1.25,4.103,1.86,5.373,1.86l12.281-0.93c8.179,2.501,16.887,4.04,26.098,4.649c0,4.361,5.373,6.509,16.119,6.509h1.535
			l9.608-0.93c3.07,4.97,9.449,7.439,19.163,7.439c8.973,0,15.749-1.539,20.354-4.649l-1.535-1.86V62.7
			c0-0.93,1.403-1.86,4.209-2.79c1.297,0,3.07,2.501,5.4,7.439h4.208c0-2.309,3.203-4.489,9.608-6.509
			c2.276,4.04,4.606,6.22,6.882,6.509c2.065,0,7.941-4.649,17.681-13.948l13.817-2.79h3.811c5.4,3.719,10.879,5.579,16.516,5.579
			c1.8-2.469,4.103-3.719,6.908-3.719c9.714,4.97,15.087,7.439,16.119,7.439c6.644,0,10.376-1.218,11.117-3.719
			c-1.773-0.16-2.673-0.77-2.673-1.86c0-1.218,0.9-1.86,2.673-1.86c0,0.93,1.8,2.18,5.4,3.719h1.535l2.673-0.93l-1.535-4.649v-1.86
			c0-0.93,1.8-2.148,5.373-3.719c1.271,0,2.7,0.93,4.235,2.79c-1.032,1.09-1.535,2.341-1.535,3.719
			c3.07,0.641,6.776,0.93,11.117,0.93c0.768-3.078,2.171-4.649,4.235-4.649h2.673c5.638,4.361,9.714,6.509,12.281,6.509
			c2.038-3.719,4.341-5.579,6.908-5.579c2.806,1.25,5.505,1.86,8.046,1.86c4.606-0.449,6.935-1.379,6.935-2.79
			c-1.297,0-3.6-1.539-6.935-4.649v-1.86c0-0.93,1.8-2.148,5.4-3.719c4.844,0,8.549,1.571,11.117,4.649v0.93
			c0,0.481-2.303,2.02-6.908,4.649c0.768,0,1.138,0.321,1.138,0.93c7.438-0.93,11.143-1.86,11.143-2.79l-1.535-6.509l2.673-0.93
			h8.47c0-3.719,3.573-7.727,10.746-12.088h1.535c1.006,0,6.008,0.641,14.955,1.86c0-2.148,2.303-3.719,6.908-4.649l5.373,0.93
			c4.103-1.09,8.576-3.238,13.42-6.509h4.235l6.908,0.93l-1.535-6.509l4.208-1.86h5.4l4.208,1.86h13.42
			c3.335,1.09,5.638,2.95,6.935,5.579v4.649c3.573,0.93,5.347,1.86,5.347,2.79v0.93l-1.138,6.509h1.138l5.77-3.719
			c1.535,0,4.235,3.431,8.047,10.228c1.8,0,2.7,0.321,2.7,0.93c7.173-2.469,11.249-4.008,12.281-4.649h4.235
			c3.07,0,6.644,4.361,10.746,13.018c3.07,0,4.976,1.86,5.744,5.579c4.341,0,6.538,1.86,6.538,5.579h1.535
			c2.038,0,3.812-0.289,5.347-0.93c3.6,0,5.903,3.11,6.935,9.298c0.741,0,2.541,1.86,5.347,5.579c0,0.625-0.371,1.555-1.138,2.798
			c5.109,16.12,10.111,24.176,14.955,24.176c2.329,0,4.103,2.477,5.4,7.439v0.93c0,0.313-1.8,1.86-5.4,4.649
			c4.367,6.196,6.538,10.228,6.538,12.088l-1.138,6.509c1.773,2.012,2.673,3.567,2.673,4.649c-6.405,0.778-9.608,1.707-9.608,2.79
			v1.86c2.832,5.892,5.505,9.611,8.073,11.158v2.79l-14.955,12.088c0,2.637-4.103,6.044-12.281,10.228
			c0,1.242-2.197,1.86-6.538,1.86v3.719c2.568,0,3.838,0.617,3.838,1.86c0,1.082-4.103,2.012-12.281,2.79
			c0,1.242-4.103,2.477-12.281,3.719c0,5.266-8.179,8.681-24.563,10.228c-8.708,0-15.987,3.102-21.863,9.298
			c-1.535,0.617-3.335,0.93-5.4,0.93v-0.93C1696.51,211.483,1693.811,212.725,1689.205,215.202z"/>
	</g>
</g>
</svg>
