<?xml version="1.0" encoding="utf-8"?>
<!-- Generator: Adobe Illustrator 17.0.0, SVG Export Plug-In . SVG Version: 6.00 Build 0)  -->
<!DOCTYPE svg PUBLIC "-//W3C//DTD SVG 1.1//EN" "http://www.w3.org/Graphics/SVG/1.1/DTD/svg11.dtd">
<svg version="1.1" id="Laag_1" xmlns="http://www.w3.org/2000/svg" xmlns:xlink="http://www.w3.org/1999/xlink" x="0px" y="0px"
	 width="36.768px" height="36.768px" viewBox="0 0 36.768 36.768" enable-background="new 0 0 36.768 36.768" xml:space="preserve">
<path fill="#07AA9E" d="M0,5.017c0.033-0.13,0.07-0.26,0.098-0.391c0.494-2.248,1.833-3.801,4.05-4.446
	c0.251-0.073,0.506-0.128,0.76-0.191L31.75,0.002c0.131,0.032,0.26,0.068,0.392,0.097c2.247,0.496,3.79,1.83,4.432,4.05
	c0.072,0.251,0.128,0.506,0.191,0.76l0,26.842c-0.031,0.121-0.067,0.241-0.093,0.363c-0.488,2.275-1.834,3.833-4.079,4.474
	c-0.242,0.069-0.489,0.123-0.733,0.183L5.017,36.768c-0.121-0.031-0.241-0.066-0.362-0.092c-2.262-0.487-3.81-1.876-4.458-4.106
	c-0.073-0.25-0.128-0.506-0.191-0.76L0,5.017z M21.329,12.635c-0.079-0.026-0.098-0.038-0.116-0.037
	c-1.728,0.002-3.457,0.008-5.185,0.006c-0.194,0-0.225,0.092-0.221,0.253c0.014,0.517,0.025,1.035,0.026,1.552
	c0.009,4.814,0.017,9.628,0.016,14.442c0,0.276,0.064,0.366,0.353,0.363c1.621-0.019,3.242-0.021,4.863-0.016
	c0.245,0.001,0.316-0.074,0.312-0.316c-0.015-0.859-0.012-1.719-0.012-2.578c0-2.255,0.01-4.511,0.001-6.766
	c-0.005-1.351,1.116-2.878,2.79-2.972c1.261-0.071,2.242,0.468,2.687,1.745c0.273,0.784,0.298,1.587,0.301,2.397
	c0.011,2.715,0.021,5.429,0.02,8.144c0,0.261,0.078,0.33,0.333,0.327c1.621-0.015,3.242-0.021,4.863-0.014
	c0.27,0.001,0.347-0.077,0.346-0.346c-0.018-3.037-0.016-6.074-0.036-9.11c-0.009-1.395-0.18-2.766-0.761-4.056
	c-0.476-1.057-1.172-1.928-2.164-2.547c-1.042-0.65-2.189-0.903-3.403-0.911c-1.932-0.013-3.512,0.701-4.676,2.27
	c-0.09,0.121-0.179,0.242-0.269,0.363c-0.022-0.006-0.043-0.013-0.065-0.019C21.333,14.083,21.331,13.357,21.329,12.635z
	 M12.792,20.95c-0.008-2.647-0.016-5.294-0.024-7.941c-0.001-0.392-0.002-0.393-0.375-0.392c-1.612,0.005-3.223,0.015-4.835,0.009
	C7.299,12.625,7.23,12.7,7.231,12.957c0.023,5.314,0.039,10.627,0.047,15.941c0,0.275,0.085,0.344,0.35,0.341
	c1.602-0.016,3.204-0.015,4.806-0.02c0.382-0.001,0.383-0.002,0.382-0.387C12.808,26.205,12.8,23.577,12.792,20.95z M10.077,4.629
	c-1.355,0.013-2.68,0.668-3.085,2.16c-0.325,1.195,0.309,2.69,1.425,3.222c0.657,0.313,1.337,0.373,2.052,0.32
	c2.042-0.151,3.278-2.36,2.311-4.165C12.189,5.064,11.201,4.661,10.077,4.629z"/>
</svg>
