<?xml version="1.0" encoding="utf-8"?>
<!-- Generator: Adobe Illustrator 17.0.0, SVG Export Plug-In . SVG Version: 6.00 Build 0)  -->
<!DOCTYPE svg PUBLIC "-//W3C//DTD SVG 1.1//EN" "http://www.w3.org/Graphics/SVG/1.1/DTD/svg11.dtd">
<svg version="1.1" id="Laag_1" xmlns="http://www.w3.org/2000/svg" xmlns:xlink="http://www.w3.org/1999/xlink" x="0px" y="0px"
	 width="41.594px" height="51.943px" viewBox="0 0 41.594 51.943" enable-background="new 0 0 41.594 51.943" xml:space="preserve">
<g>
	<path fill="#FFFFFF" d="M20.18,50.133C19.397,49.519,1,34.927,1,20.797C1,9.881,9.881,1,20.797,1s19.797,8.881,19.797,19.797
		c0,12.396-18.356,28.616-19.138,29.301l-0.624,0.547L20.18,50.133z M20.797,13.242c-4.529,0-8.215,3.685-8.215,8.214
		s3.686,8.215,8.215,8.215s8.215-3.686,8.215-8.215S25.326,13.242,20.797,13.242z"/>
	<path fill="#00A99D" d="M20.797,2c10.381,0,18.797,8.416,18.797,18.797c0,12.086-18.797,28.549-18.797,28.549S2,34.603,2,20.797
		C2,10.416,10.416,2,20.797,2 M20.797,30.671c5.089,0,9.215-4.126,9.215-9.215s-4.126-9.215-9.215-9.215s-9.215,4.126-9.215,9.215
		C11.582,26.546,15.708,30.671,20.797,30.671 M20.797,0C9.329,0,0,9.329,0,20.797C0,35.408,18.764,50.293,19.563,50.92l1.305,1.023
		l1.247-1.093c0.795-0.697,19.479-17.209,19.479-30.054C41.594,9.329,32.264,0,20.797,0L20.797,0z M20.797,28.671
		c-3.978,0-7.215-3.236-7.215-7.215s3.236-7.215,7.215-7.215c3.978,0,7.215,3.236,7.215,7.215S24.775,28.671,20.797,28.671
		L20.797,28.671z"/>
</g>
</svg>
