<?xml version="1.0" encoding="utf-8"?>
<!-- Generator: Adobe Illustrator 17.0.0, SVG Export Plug-In . SVG Version: 6.00 Build 0)  -->
<!DOCTYPE svg PUBLIC "-//W3C//DTD SVG 1.1//EN" "http://www.w3.org/Graphics/SVG/1.1/DTD/svg11.dtd">
<svg version="1.1" id="Laag_1" xmlns="http://www.w3.org/2000/svg" xmlns:xlink="http://www.w3.org/1999/xlink" x="0px" y="0px"
	 width="120px" height="120px" viewBox="0 0 120 120" enable-background="new 0 0 120 120" xml:space="preserve">
<g>
	
		<rect x="16.488" y="15.643" transform="matrix(0.9171 0.3987 -0.3987 0.9171 8.9517 -10.2295)" fill="#1D70B7" width="25.161" height="1.524"/>
	
		<rect x="16.488" y="39.972" transform="matrix(0.9171 -0.3987 0.3987 0.9171 -13.8314 14.9687)" fill="#1D70B7" width="25.161" height="1.524"/>
	<rect x="8" y="27.682" fill="#1D70B7" width="30.097" height="1.524"/>
	
		<rect x="78.187" y="39.972" transform="matrix(-0.9171 -0.3987 0.3987 -0.9171 157.7654 114.2822)" fill="#1D70B7" width="25.161" height="1.524"/>
	
		<rect x="90.005" y="3.825" transform="matrix(0.3984 0.9172 -0.9172 0.3984 69.6539 -73.3836)" fill="#1D70B7" width="1.524" height="25.161"/>
	<rect x="81.738" y="27.933" fill="#1D70B7" width="30.097" height="1.524"/>
	<path fill="#1D70B7" d="M87.884,109.207h-4.456v-3.564h-7.193L70.663,42.27h3.561v-4.733h-3.449V21.244h3.449v-4.733h-3.446
		c-0.215-3.012-1.661-5.687-3.848-7.513V3.528L60.155,0l-7.039,3.52v5.478c-2.187,1.826-3.633,4.501-3.848,7.513h-3.336v4.733h3.213
		v16.293h-3.213v4.733h4.534l-5.571,63.372h-7.193v3.564h-4.456v9.268H20.56V120h12.685h54.638h12.685v-1.524H87.884V109.207z
		 M51.076,52.723l10.437-10.437h7.621l0.114,1.293l-19.015,18.74L51.076,52.723z M51.284,50.36l0.71-8.074h7.364L51.284,50.36z
		 M50.027,64.662l19.394-19.113l0.707,8.039l-20.971,20.97L50.027,64.662z M48.949,76.921l21.353-21.352l0.718,8.162L48.099,86.592
		L48.949,76.921z M74.704,105.64H64.311l9.553-9.554L74.704,105.64z M47.891,88.953L71.194,65.71l0.718,8.164L47.035,98.691
		L47.891,88.953z M46.828,101.052l25.258-25.198l0.713,8.107L51.182,105.64h-4.757L46.828,101.052z M72.973,85.945l0.717,8.159
		L62.156,105.64h-8.822L72.973,85.945z M57.377,21.244h5.164v16.283h-5.164V21.244z M69.251,37.527h-5.164V21.244h5.164V37.527z
		 M54.64,4.462l5.501-2.751l5.264,2.742v3.487c-1.587-0.918-3.422-1.452-5.382-1.452c-1.961,0-3.796,0.534-5.383,1.452V4.462z
		 M60.023,8.013c4.851,0,8.844,3.746,9.237,8.497H50.785C51.179,11.759,55.171,8.013,60.023,8.013z M47.456,19.72v-1.685h1.772
		v0.011h3.888h13.814h3.888v-0.011H72.7v1.685h-1.925v-0.021h-6.709h-1.503h-5.206h-1.503h-6.709v0.021H47.456z M55.832,21.244
		v16.283h-5.164V21.244H55.832z M47.456,39.061H72.7v1.685H47.456V39.061z M34.769,118.476v-7.744h4.456v-3.564h42.678v3.564h4.456
		v7.744H34.769z"/>
</g>
</svg>
