<?xml version="1.0" encoding="utf-8"?>
<!-- Generator: Adobe Illustrator 17.0.0, SVG Export Plug-In . SVG Version: 6.00 Build 0)  -->
<!DOCTYPE svg PUBLIC "-//W3C//DTD SVG 1.1//EN" "http://www.w3.org/Graphics/SVG/1.1/DTD/svg11.dtd">
<svg version="1.1" id="Laag_1" xmlns="http://www.w3.org/2000/svg" xmlns:xlink="http://www.w3.org/1999/xlink" x="0px" y="0px"
	 width="120px" height="120px" viewBox="0 0 120 120" enable-background="new 0 0 120 120" xml:space="preserve">
<g>
	<path fill="#1D70B7" d="M84.829,83.753c-2.523,0-4.576-2.053-4.576-4.576c0-2.523,2.053-4.576,4.576-4.576l0.503-0.07l0.298-0.579
		V44.973L120,45.183l-7.747-7.917l0.021,0.001l-4.941-4.977l-0.105-0.004L31.517,3L1.064,34.757L0,35.01l3.82,4.067l0.004-0.001
		l5.167,5.427l14.693,0.09l-0.73,14.587l-0.022,0.029l0.019,0.014l-2.965,59.231H6.507v1.529h81.261v-1.529H42.619l-3.517-73.767
		l44.998,0.275v28.152c-3.024,0.361-5.376,2.942-5.376,6.062c0,3.366,2.739,6.105,6.105,6.105s6.105-2.739,6.105-6.105h-1.529
		C89.405,81.7,87.352,83.753,84.829,83.753z M23.132,86.177L39.84,97.913L21.583,117.13L23.132,86.177z M23.587,84.629
		l15.304-12.283l1.136,23.831L23.587,84.629z M25.941,30.054v-1.161l0.002-0.049l-0.002,0v-3.966l5.598-2.799l5.357,2.791
		l0.001,5.645L37.5,43.149l-12.21-0.075L25.941,30.054z M64.229,35.523l9.812,7.849L53.986,43.25L64.229,35.523z M51.964,42.861
		l-11.702-8.549l21.848,0.897L51.964,42.861z M66.509,35.389l17.034,0.699l-7.848,6.65L66.509,35.389z M85.625,36.327l9.393,7.174
		l-17.731-0.108L85.625,36.327z M88.074,36.274l14.268,0.586l-5.734,5.932L88.074,36.274z M116.343,43.631l-18.312-0.112
		l6.355-6.576l5.638,0.231L116.343,43.631z M38.665,32.716l-0.097-1.684l68.103,2.761l1.774,1.787L38.665,32.716z M30.941,5.809
		L30.866,19.52l1.529,0.008L32.474,5.01l70.018,27.084l-64.067-2.598v-5.553l-6.872-3.579l-7.141,3.57l0.001,5.273L3.808,34.105
		L30.941,5.809z M24.335,30.798l-0.069,1.708L4.324,37.38l-1.403-1.493L24.335,30.798z M9.65,42.979l-4.114-4.321l18.674-4.565
		l-0.449,8.972L9.65,42.979z M36.173,44.67L24.621,56.426l0.592-11.823L36.173,44.67z M37.607,45.393l1.122,23.532L24.652,58.577
		L37.607,45.393z M38.529,70.676L23.296,82.903l1.131-22.594L38.529,70.676z M22.433,118.455l17.764-18.699l0.891,18.699H22.433z
		 M38.642,35.021l11.229,8.203L39.03,43.159L38.642,35.021z"/>
	<path fill="#1D70B7" d="M36.158,32.677h-9.509l-0.375,8.673h10.292L36.158,32.677z M27.87,39.821l0.243-5.615H34.7l0.264,5.615
		H27.87z"/>
</g>
</svg>
