<?xml version="1.0" encoding="utf-8"?>
<!-- Generator: Adobe Illustrator 17.0.0, SVG Export Plug-In . SVG Version: 6.00 Build 0)  -->
<!DOCTYPE svg PUBLIC "-//W3C//DTD SVG 1.1//EN" "http://www.w3.org/Graphics/SVG/1.1/DTD/svg11.dtd">
<svg version="1.1" id="Laag_1" xmlns="http://www.w3.org/2000/svg" xmlns:xlink="http://www.w3.org/1999/xlink" x="0px" y="0px"
	 width="20.826px" height="20.826px" viewBox="0 0 20.826 20.826" enable-background="new 0 0 20.826 20.826" xml:space="preserve">
<g>
	<path fill="#FFFFFF" d="M0,17.3c0-4.591,0-9.182,0-13.773c0.07-0.295,0.111-0.601,0.215-0.884c0.483-1.314,1.4-2.165,2.761-2.522
		C3.158,0.072,3.343,0.04,3.526,0C8.118,0,12.709,0,17.3,0c0.3,0.072,0.611,0.113,0.898,0.22c1.314,0.489,2.162,1.411,2.514,2.777
		c0.042,0.164,0.077,0.331,0.115,0.496c0,4.613,0,9.227,0,13.84c-0.021,0.084-0.042,0.169-0.063,0.253
		c-0.05,0.204-0.081,0.415-0.154,0.61c-0.495,1.313-1.413,2.165-2.78,2.516c-0.164,0.042-0.331,0.077-0.496,0.115
		c-4.613,0-9.227,0-13.84,0c-0.084-0.021-0.169-0.042-0.253-0.063c-0.203-0.05-0.414-0.081-0.609-0.154
		c-1.306-0.491-2.156-1.403-2.511-2.761C0.072,17.667,0.039,17.482,0,17.3z M10.631,15.067c1.295-0.05,2.796-0.101,4.297-0.174
		c0.234-0.011,0.487-0.083,0.691-0.199c0.659-0.373,1.017-0.982,1.146-1.706c0.089-0.499,0.126-1.014,0.126-1.522
		c0-1.085-0.036-2.171-0.064-3.256c-0.013-0.511-0.121-1-0.396-1.44c-0.253-0.406-0.584-0.717-1.076-0.784
		c-0.334-0.046-0.673-0.055-1.01-0.073c-2.77-0.149-5.54-0.18-8.31,0.013C5.721,5.947,5.403,5.963,5.126,6.146
		C4.531,6.537,4.188,7.107,4.068,7.788C3.974,8.321,3.935,8.869,3.933,9.41c-0.003,1.013,0.038,2.027,0.064,3.04
		c0.011,0.431,0.089,0.85,0.285,1.238c0.345,0.684,0.817,1.189,1.656,1.215C7.433,14.947,8.928,15.006,10.631,15.067z"/>
	<path fill="#FFFFFF" d="M9.123,13.006c0-1.739,0-3.447,0-5.186c1.299,0.866,2.579,1.72,3.889,2.593
		C11.709,11.282,10.426,12.138,9.123,13.006z"/>
</g>
</svg>
